;TYPE=PLATED
;Layer: PTH_Through
;EasyEDA Pro v3.2.58, 2026-01-05 14:09:16
;Gerber Generator version 0.3
M48
METRIC,LZ,0000.00000
;Hole size 1 = 0.30500 METRIC
T01C0.30500
;Hole size 2 = 0.30500 METRIC
T02C0.30500
;Hole size 3 = 0.64999 METRIC
T03C0.64999
;Hole size 4 = 3.20000 METRIC
T04C3.20000
%
G05
G90
T01
X25.24994Y8.763
X23.876Y9.906
X25.273Y10.033
X28.829Y10.16
X43.75933Y25.55837
X42.94009Y25.55817
X43.75929Y24.73889
X42.94005Y24.73869
X4.826Y36.87571
X2.921Y34.798
X26.289Y22.7965
X26.162Y27.45873
X26.162Y28.72873
X22.33445Y36.05045
X22.5202Y37.08132
X34.66797Y48.00297
X34.6371Y46.76773
X36.06684Y46.98884
X35.93994Y43.18106
X41.16988Y23.85536
X40.77279Y24.64379
X30.52537Y11.96333
X41.148Y26.543
X42.01757Y27.17966
X44.96393Y23.50093
X44.5135Y28.7655
X43.053Y27.686
X41.93793Y23.29507
X17.03642Y14.33965
X7.87467Y14.85967
X45.36922Y16.98778
X44.069Y20.701
X1.778Y13.081
X37.592Y40.386
X1.524Y2.667
X38.227Y39.37
X25.019Y46.99
X25.019Y45.847
X28.5744Y45.2114
X31.49324Y36.19224
X33.51942Y35.67842
X48.26Y3.302
X47.21878Y12.97922
X33.23604Y26.543
X32.91046Y29.718
X37.33906Y42.92706
X42.291Y42.799
X31.623Y9.906
X32.385Y10.668
X19.939Y10.033
X18.93549Y10.033
X36.195Y13.589
X36.83Y14.097
X38.81721Y21.42608
X17.45549Y30.40426
X14.097Y35.814
X23.22155Y36.51587
X21.844Y30.861
X20.9942Y24.0422
X23.64519Y25.47823
X3.556Y31.877
X5.47047Y45.20253
X5.715Y44.45
X3.556Y48.57496
X4.318Y48.895
X33.528Y36.703
X47.86363Y33.54337
X44.958Y33.528
X19.304Y20.574
X19.99566Y15.05347
X31.75Y47.04426
X18.1005Y47.5585
X41.656Y45.212
X41.021Y44.958
X34.22867Y29.68326
X19.812Y14.351
X22.479Y42.418
X23.114Y42.037
X26.416Y40.005
X26.035Y36.322
X26.162Y34.798
X26.289Y30.861
X26.289Y29.845
X23.29507Y20.08221
X4.191Y19.304
X1.524Y19.304
X6.985Y23.622
X10.414Y24.003
X12.573Y26.035
X9.9953Y27.64219
X5.461Y30.353
X2.54Y32.131
X5.461Y33.02
X7.112Y37.338
X9.27962Y37.338
X10.287Y34.417
X11.938Y33.147
X12.954Y35.179
X11.57346Y36.195
X15.113Y44.45
X12.446Y47.117
X5.588Y46.482
X2.413Y46.863
X2.032Y41.021
X0.90083Y41.021
X16.76476Y37.67715
X20.97866Y34.90091
X14.55005Y34.33384
X16.35809Y30.25641
X26.12041Y25.55384
X17.68372Y33.1614
X45.12206Y32.12077
X44.323Y31.877
X43.23384Y35.50616
X40.767Y36.449
X35.306Y27.559
X12.28336Y9.81464
X14.478Y7.69518
X33.782Y7.62
X34.671Y8.382
X29.21Y15.875
X29.845Y16.256
X37.338Y11.43
X37.338Y10.668
X43.59517Y17.15446
X44.26552Y17.15442
X36.99351Y44.82458
X37.211Y45.593
X11.303Y1.397
X13.462Y2.54
X12.446Y5.461
X16.383Y6.096
X4.318Y15.113
X6.58105Y15.113
X0.889Y16.383
X16.383Y7.493
X20.574Y13.208
X17.78Y12.065
X19.05Y16.256
X29.591Y14.605
X31.115Y16.637
X31.496Y19.685
X45.466Y38.989
X47.879Y36.957
X43.561Y40.767
X47.498Y42.926
X45.466Y46.101
X41.91Y49.911
X41.148Y53.086
X46.609Y50.038
X40.132Y58.039
X36.576Y56.3407
X33.14982Y55.372
X33.528Y51.943
X32.766Y50.673
X16.256Y51.689
X13.081Y54.356
X15.621Y56.642
X7.874Y53.086
X42.926Y31.75
X48.387Y18.542
X47.625Y14.351
X36.322Y2.794
X37.719Y5.842
X34.29Y5.461
X31.75Y35.306
X36.449Y29.083
X39.751Y14.605
X28.27555Y37.34442
X28.29176Y38.17091
X21.61698Y46.12348
T02
X26.02745Y16.63888
X27.48077Y15.18573
X23.97227Y16.63877
X22.51911Y15.18545
X26.02773Y11.67723
X27.48088Y13.13055
X23.97255Y11.67712
X22.51923Y13.13027
X47.02777Y58.4809
X48.48109Y57.02775
X44.97259Y58.48079
X43.51944Y57.02747
X47.02805Y53.51924
X48.48121Y54.97256
X44.97287Y53.51913
X43.51955Y54.97228
X5.02777Y58.4809
X6.48109Y57.02775
X2.97259Y58.48079
X1.51944Y57.02747
X5.02805Y53.51924
X6.4812Y54.97256
X2.97287Y53.51913
X1.51955Y54.97228
T03
X30.53999Y6.672G85X30.53999Y5.92198
X19.46001Y6.672G85X19.46001Y5.92198
X30.53999Y2.822G85X30.53999Y1.77199
X19.46001Y2.822G85X19.46001Y1.77199
T04
X25.0Y14.158
X46.00032Y56.00002
X4.00032Y56.00002
M30