G04 Layer: BottomPasteMaskLayer*
G04 EasyEDA Pro v3.2.58, 2026-01-05 14:09:15*
G04 Gerber Generator version 0.3*
G04 Scale: 100 percent, Rotated: No, Reflected: No*
G04 Dimensions in millimeters*
G04 Leading zeros omitted, absolute positions, 4 integers and 5 decimals*
G04 Generated by one-click*
%FSLAX45Y45*%
%MOMM*%
%AMRect*21,1,$1,$2,0,0,$3*%
%AMPolygonMacro1*4,1,3,-1.62493,-0.57304,-1.62493,0.57304,1.62493,0.0,-1.62493,-0.57304,0*%
%AMPolygonMacro2*4,1,3,-0.5412,-1.3516,-1.3516,-0.5412,1.3516,1.3516,-0.5412,-1.3516,0*%
%AMPolygonMacro3*4,1,3,-1.3516,0.5412,-0.5412,1.3516,1.3516,-1.3516,-1.3516,0.5412,0*%
%AMPolygonMacro4*4,1,3,0.57304,-1.62493,-0.57304,-1.62493,0.0,1.62493,0.57304,-1.62493,0*%
%AMPolygonMacro5*4,1,3,-0.57304,1.62493,0.57304,1.62493,0.0,-1.62493,-0.57304,1.62493,0*%
%AMPolygonMacro6*4,1,3,0.5412,1.3516,1.3516,0.5412,-1.3516,-1.3516,0.5412,1.3516,0*%
%AMPolygonMacro7*4,1,3,1.3516,-0.5412,0.5412,-1.3516,-1.3516,1.3516,1.3516,-0.5412,0*%
%AMPolygonMacro8*4,1,3,1.62493,0.57304,1.62493,-0.57304,-1.62493,0.0,1.62493,0.57304,0*%
%AMPolygonMacro9*4,1,3,-0.5412,-1.3516,-1.3516,-0.5412,1.3516,1.3516,-0.5412,-1.3516,0*%
%AMPolygonMacro10*4,1,3,-1.3516,0.5412,-0.5412,1.3516,1.3516,-1.3516,-1.3516,0.5412,0*%
%AMPolygonMacro11*4,1,3,0.57304,-1.62493,-0.57304,-1.62493,0.0,1.62493,0.57304,-1.62493,0*%
%AMPolygonMacro12*4,1,3,-0.57304,1.62493,0.57304,1.62493,0.0,-1.62493,-0.57304,1.62493,0*%
%AMPolygonMacro13*4,1,3,0.5412,1.3516,1.3516,0.5412,-1.3516,-1.3516,0.5412,1.3516,0*%
%AMPolygonMacro14*4,1,3,1.3516,-0.5412,0.5412,-1.3516,-1.3516,1.3516,1.3516,-0.5412,0*%
%AMPolygonMacro15*4,1,3,-0.5412,-1.3516,-1.3516,-0.5412,1.3516,1.3516,-0.5412,-1.3516,0*%
%AMPolygonMacro16*4,1,3,-1.3516,0.5412,-0.5412,1.3516,1.3516,-1.3516,-1.3516,0.5412,0*%
%AMPolygonMacro17*4,1,3,0.5412,1.3516,1.3516,0.5412,-1.3516,-1.3516,0.5412,1.3516,0*%
%AMPolygonMacro18*4,1,3,1.3516,-0.5412,0.5412,-1.3516,-1.3516,1.3516,1.3516,-0.5412,0*%
%ADD10R,0.5X0.54*%
%ADD11R,0.54X0.5*%
%ADD12R,0.9X1.5*%
%ADD13R,1.5X0.9*%
%ADD14R,0.9X0.9*%
%ADD15O,1.8148X0.3556*%
%ADD16O,1.52001X0.6*%
%ADD17Rect,0.5381X1.07201X135.0*%
%ADD18Rect,0.532X1.07201X135.0*%
%ADD19R,1.524X3.0*%
%ADD20R,1.1X0.6*%
%ADD21R,1.4X1.5*%
%ADD22PolygonMacro1*%
%ADD23PolygonMacro2*%
%ADD24PolygonMacro3*%
%ADD25PolygonMacro4*%
%ADD26PolygonMacro5*%
%ADD27PolygonMacro6*%
%ADD28PolygonMacro7*%
%ADD29PolygonMacro8*%
%ADD30PolygonMacro9*%
%ADD31PolygonMacro10*%
%ADD32PolygonMacro11*%
%ADD33PolygonMacro12*%
%ADD34PolygonMacro13*%
%ADD35PolygonMacro14*%
%ADD36PolygonMacro15*%
%ADD37PolygonMacro16*%
%ADD38PolygonMacro17*%
%ADD39PolygonMacro18*%
G75*


G04 PolygonModel Start*
G36*
G01X3291486Y3315388D02*
G01X3291486Y3269388D01*
G01X3295486Y3265388D01*
G01X3345550Y3265388D01*
G01X3349550Y3269388D01*
G01X3349550Y3315388D01*
G01X3345550Y3319388D01*
G01X3295486Y3319388D01*
G01X3291486Y3315388D01*
G37*
G36*
G01X3264486Y3315388D02*
G01X3260485Y3319388D01*
G01X3210422Y3319388D01*
G01X3206421Y3315388D01*
G01X3206421Y3269388D01*
G01X3210422Y3265388D01*
G01X3260485Y3265388D01*
G01X3264486Y3269388D01*
G01X3264486Y3315388D01*
G37*
G36*
G01X3291486Y3442388D02*
G01X3291486Y3396388D01*
G01X3295486Y3392388D01*
G01X3345550Y3392388D01*
G01X3349550Y3396388D01*
G01X3349550Y3442388D01*
G01X3345550Y3446388D01*
G01X3295486Y3446388D01*
G01X3291486Y3442388D01*
G37*
G36*
G01X3264486Y3442388D02*
G01X3260485Y3446388D01*
G01X3210422Y3446388D01*
G01X3206421Y3442388D01*
G01X3206421Y3396388D01*
G01X3210422Y3392388D01*
G01X3260485Y3392388D01*
G01X3264486Y3396388D01*
G01X3264486Y3442388D01*
G37*
G36*
G01X2221700Y3164700D02*
G01X2221700Y3210700D01*
G01X2217699Y3214700D01*
G01X2167636Y3214700D01*
G01X2163636Y3210700D01*
G01X2163636Y3164700D01*
G01X2167636Y3160700D01*
G01X2217699Y3160700D01*
G01X2221700Y3164700D01*
G37*
G36*
G01X2248700Y3164700D02*
G01X2252701Y3160700D01*
G01X2302764Y3160700D01*
G01X2306765Y3164700D01*
G01X2306765Y3210700D01*
G01X2302764Y3214700D01*
G01X2252701Y3214700D01*
G01X2248700Y3210700D01*
G01X2248700Y3164700D01*
G37*
G36*
G01X2221700Y3355200D02*
G01X2221700Y3401200D01*
G01X2217699Y3405200D01*
G01X2167636Y3405200D01*
G01X2163636Y3401200D01*
G01X2163636Y3355200D01*
G01X2167636Y3351200D01*
G01X2217699Y3351200D01*
G01X2221700Y3355200D01*
G37*
G36*
G01X2248700Y3355200D02*
G01X2252701Y3351200D01*
G01X2302764Y3351200D01*
G01X2306765Y3355200D01*
G01X2306765Y3401200D01*
G01X2302764Y3405200D01*
G01X2252701Y3405200D01*
G01X2248700Y3401200D01*
G01X2248700Y3355200D01*
G37*
G36*
G01X688200Y4277555D02*
G01X734200Y4277555D01*
G01X738200Y4281556D01*
G01X738200Y4331619D01*
G01X734200Y4335619D01*
G01X688200Y4335619D01*
G01X684200Y4331619D01*
G01X684200Y4281556D01*
G01X688200Y4277555D01*
G37*
G36*
G01X688200Y4250555D02*
G01X684200Y4246554D01*
G01X684200Y4196491D01*
G01X688200Y4192490D01*
G01X734200Y4192490D01*
G01X738200Y4196491D01*
G01X738200Y4246554D01*
G01X734200Y4250555D01*
G01X688200Y4250555D01*
G37*
G36*
G01X175400Y4250555D02*
G01X129400Y4250555D01*
G01X125400Y4246554D01*
G01X125400Y4196491D01*
G01X129400Y4192490D01*
G01X175400Y4192490D01*
G01X179400Y4196491D01*
G01X179400Y4246554D01*
G01X175400Y4250555D01*
G37*
G36*
G01X175400Y4277555D02*
G01X179400Y4281556D01*
G01X179400Y4331619D01*
G01X175400Y4335619D01*
G01X129400Y4335619D01*
G01X125400Y4331619D01*
G01X125400Y4281556D01*
G01X129400Y4277555D01*
G01X175400Y4277555D01*
G37*
G36*
G01X3380386Y2768873D02*
G01X3380386Y2722873D01*
G01X3384386Y2718873D01*
G01X3434450Y2718873D01*
G01X3438450Y2722873D01*
G01X3438450Y2768873D01*
G01X3434450Y2772873D01*
G01X3384386Y2772873D01*
G01X3380386Y2768873D01*
G37*
G36*
G01X3353386Y2768873D02*
G01X3349385Y2772873D01*
G01X3299322Y2772873D01*
G01X3295321Y2768873D01*
G01X3295321Y2722873D01*
G01X3299322Y2718873D01*
G01X3349385Y2718873D01*
G01X3353386Y2722873D01*
G01X3353386Y2768873D01*
G37*
G36*
G01X3380386Y2895873D02*
G01X3380386Y2849873D01*
G01X3384386Y2845873D01*
G01X3434450Y2845873D01*
G01X3438450Y2849873D01*
G01X3438450Y2895873D01*
G01X3434450Y2899873D01*
G01X3384386Y2899873D01*
G01X3380386Y2895873D01*
G37*
G36*
G01X3353386Y2895873D02*
G01X3349385Y2899873D01*
G01X3299322Y2899873D01*
G01X3295321Y2895873D01*
G01X3295321Y2849873D01*
G01X3299322Y2845873D01*
G01X3349385Y2845873D01*
G01X3353386Y2849873D01*
G01X3353386Y2895873D01*
G37*
G36*
G01X3021063Y4442600D02*
G01X3021063Y4396600D01*
G01X3025064Y4392600D01*
G01X3075127Y4392600D01*
G01X3079128Y4396600D01*
G01X3079128Y4442600D01*
G01X3075127Y4446600D01*
G01X3025064Y4446600D01*
G01X3021063Y4442600D01*
G37*
G36*
G01X2994063Y4442600D02*
G01X2990063Y4446600D01*
G01X2939999Y4446600D01*
G01X2935999Y4442600D01*
G01X2935999Y4396600D01*
G01X2939999Y4392600D01*
G01X2990063Y4392600D01*
G01X2994063Y4396600D01*
G01X2994063Y4442600D01*
G37*
G36*
G01X3021063Y4315600D02*
G01X3021063Y4269600D01*
G01X3025064Y4265600D01*
G01X3075127Y4265600D01*
G01X3079128Y4269600D01*
G01X3079128Y4315600D01*
G01X3075127Y4319600D01*
G01X3025064Y4319600D01*
G01X3021063Y4315600D01*
G37*
G36*
G01X2994063Y4315600D02*
G01X2990063Y4319600D01*
G01X2939999Y4319600D01*
G01X2935999Y4315600D01*
G01X2935999Y4269600D01*
G01X2939999Y4265600D01*
G01X2990063Y4265600D01*
G01X2994063Y4269600D01*
G01X2994063Y4315600D01*
G37*
G36*
G01X3718700Y913600D02*
G01X3672700Y913600D01*
G01X3668700Y909599D01*
G01X3668700Y859536D01*
G01X3672700Y855536D01*
G01X3718700Y855536D01*
G01X3722700Y859536D01*
G01X3722700Y909599D01*
G01X3718700Y913600D01*
G37*
G36*
G01X3718700Y940600D02*
G01X3722700Y944601D01*
G01X3722700Y994664D01*
G01X3718700Y998665D01*
G01X3672700Y998665D01*
G01X3668700Y994664D01*
G01X3668700Y944601D01*
G01X3672700Y940600D01*
G01X3718700Y940600D01*
G37*
G36*
G01X4617682Y1735519D02*
G01X4663681Y1735519D01*
G01X4667682Y1739519D01*
G01X4667682Y1789582D01*
G01X4663681Y1793583D01*
G01X4617682Y1793583D01*
G01X4613681Y1789582D01*
G01X4613681Y1739519D01*
G01X4617682Y1735519D01*
G37*
G36*
G01X4617682Y1708518D02*
G01X4613681Y1704518D01*
G01X4613681Y1654454D01*
G01X4617682Y1650454D01*
G01X4663681Y1650454D01*
G01X4667682Y1654454D01*
G01X4667682Y1704518D01*
G01X4663681Y1708518D01*
G01X4617682Y1708518D01*
G37*
G36*
G01X3912481Y1845790D02*
G01X3958480Y1845790D01*
G01X3962481Y1849791D01*
G01X3962481Y1899854D01*
G01X3958480Y1903855D01*
G01X3912481Y1903855D01*
G01X3908480Y1899854D01*
G01X3908480Y1849791D01*
G01X3912481Y1845790D01*
G37*
G36*
G01X3912481Y1818790D02*
G01X3908480Y1814790D01*
G01X3908480Y1764726D01*
G01X3912481Y1760726D01*
G01X3958480Y1760726D01*
G01X3962481Y1764726D01*
G01X3962481Y1814790D01*
G01X3958480Y1818790D01*
G01X3912481Y1818790D01*
G37*

G04 Pad Start*
G54D10*
G01X3319997Y3165388D03*
G01X3235974Y3165388D03*
G54D11*
G01X2286000Y2993288D03*
G01X2286000Y3077312D03*
G01X3543300Y2937612D03*
G01X3543300Y2853588D03*
G01X838200Y4306067D03*
G01X838200Y4222043D03*
G01X533400Y4306067D03*
G01X533400Y4222043D03*
G01X406296Y4306067D03*
G01X406296Y4222043D03*
G54D12*
G01X151905Y3897605D03*
G01X278905Y3897605D03*
G01X405905Y3897605D03*
G01X532905Y3897605D03*
G01X659905Y3897605D03*
G01X786905Y3897605D03*
G01X913905Y3897605D03*
G01X1040905Y3897605D03*
G01X1167905Y3897605D03*
G01X1294905Y3897605D03*
G01X1421905Y3897605D03*
G01X1548905Y3897605D03*
G01X1675905Y3897605D03*
G01X1802905Y3897605D03*
G54D13*
G01X1930895Y3721100D03*
G01X1930895Y3594100D03*
G01X1930895Y3467100D03*
G01X1930895Y3340100D03*
G01X1930895Y3213100D03*
G01X1930895Y3086100D03*
G01X1930895Y2959100D03*
G01X1930895Y2832100D03*
G01X1930895Y2705100D03*
G01X1930895Y2578100D03*
G01X1930895Y2451100D03*
G01X1927898Y2324100D03*
G54D12*
G01X1802905Y2147595D03*
G01X1675905Y2147595D03*
G01X1548905Y2147595D03*
G01X1421905Y2147595D03*
G01X1294905Y2147595D03*
G01X1167905Y2147595D03*
G01X1040905Y2147595D03*
G01X913905Y2147595D03*
G01X786905Y2147595D03*
G01X659905Y2147595D03*
G01X532905Y2147595D03*
G01X405905Y2147595D03*
G01X278905Y2147595D03*
G01X151905Y2147595D03*
G54D14*
G01X923912Y3172612D03*
G01X923912Y3312617D03*
G01X923912Y3032608D03*
G01X783908Y3032608D03*
G01X783908Y3172612D03*
G01X783908Y3312617D03*
G01X1063917Y3312617D03*
G01X1063917Y3172612D03*
G01X1063917Y3032608D03*
G54D15*
G01X2999078Y4159250D03*
G01X2999078Y4095750D03*
G01X2999078Y4032250D03*
G01X2999078Y3968750D03*
G01X2999078Y3905250D03*
G01X2999078Y3841750D03*
G01X2999078Y3778250D03*
G01X2999078Y3714750D03*
G01X2468116Y4159250D03*
G01X2468116Y4095750D03*
G01X2468116Y4032250D03*
G01X2468116Y3968750D03*
G01X2468116Y3905250D03*
G01X2468116Y3841750D03*
G01X2468116Y3778250D03*
G01X2468116Y3714750D03*
G54D16*
G01X3016353Y3546388D03*
G01X3016353Y3419388D03*
G01X3016353Y3292388D03*
G01X3016353Y3165388D03*
G01X2468373Y3546388D03*
G01X2468373Y3419388D03*
G01X2468373Y3292388D03*
G01X2468373Y3165388D03*
G54D11*
G01X279296Y4233113D03*
G01X279296Y4318111D03*
G54D18*
G01X3025377Y1031596D03*
G01X2958205Y1098769D03*
G01X2891033Y1165941D03*
G01X3053539Y1328448D03*
G01X3120712Y1261275D03*
G01X3187884Y1194103D03*
G54D19*
G01X3008000Y4704426D03*
G01X2669333Y4704426D03*
G01X1992000Y4704426D03*
G01X2330667Y4704426D03*
G54D10*
G01X4312874Y1454823D03*
G01X4228851Y1454823D03*
G54D11*
G01X3937000Y1583588D03*
G01X3937000Y1667612D03*
G54D16*
G01X3016353Y2999873D03*
G01X3016353Y2872873D03*
G01X3016353Y2745873D03*
G01X3016353Y2618873D03*
G01X2468373Y2999873D03*
G01X2468373Y2872873D03*
G01X2468373Y2745873D03*
G01X2468373Y2618873D03*
G54D20*
G01X4395921Y1624772D03*
G01X4395921Y1814764D03*
G01X4135901Y1814764D03*
G01X4135901Y1719768D03*
G01X4135901Y1624772D03*
G54D10*
G01X2193188Y3496867D03*
G01X2277212Y3496867D03*
G54D21*
G01X4640004Y334998D03*
G01X3959996Y334998D03*
G01X4640004Y610004D03*
G01X3959996Y840001D03*
G01X4640004Y1149982D03*
G01X3959996Y1149982D03*
G54D22*
G01X2337507Y1415800D03*
G54D23*
G01X2364840Y1280640D03*
G54D24*
G01X2364840Y1550960D03*
G54D25*
G01X2500000Y1253307D03*
G54D26*
G01X2500000Y1578293D03*
G54D27*
G01X2635160Y1550960D03*
G54D28*
G01X2635160Y1280640D03*
G54D29*
G01X2662493Y1415800D03*
G54D22*
G01X4437539Y5600002D03*
G54D30*
G01X4464872Y5464841D03*
G54D31*
G01X4464872Y5735162D03*
G54D32*
G01X4600032Y5437508D03*
G54D33*
G01X4600032Y5762495D03*
G54D34*
G01X4735192Y5735162D03*
G54D35*
G01X4735192Y5464841D03*
G54D29*
G01X4762526Y5600002D03*
G54D22*
G01X237539Y5600002D03*
G54D36*
G01X264872Y5464841D03*
G54D37*
G01X264872Y5735162D03*
G54D32*
G01X400032Y5437508D03*
G54D33*
G01X400032Y5762495D03*
G54D38*
G01X535192Y5735162D03*
G54D39*
G01X535192Y5464841D03*
G54D29*
G01X562525Y5600002D03*
G54D15*
G01X2481657Y2025650D03*
G01X2481657Y2089150D03*
G01X2481657Y2152650D03*
G01X2481657Y2216150D03*
G01X2481657Y2279650D03*
G01X2481657Y2343150D03*
G01X2481657Y2406650D03*
G01X2481657Y2470150D03*
G01X3012619Y2025650D03*
G01X3012619Y2089150D03*
G01X3012619Y2152650D03*
G01X3012619Y2216150D03*
G01X3012619Y2279650D03*
G01X3012619Y2343150D03*
G01X3012619Y2406650D03*
G01X3012619Y2470150D03*
G54D11*
G01X3200400Y2561488D03*
G01X3200400Y2645512D03*
G04 Pad End*

M02*

