G04 Layer: BottomSolderMaskLayer*
G04 EasyEDA Pro v3.2.58, 2026-01-05 14:09:15*
G04 Gerber Generator version 0.3*
G04 Scale: 100 percent, Rotated: No, Reflected: No*
G04 Dimensions in millimeters*
G04 Leading zeros omitted, absolute positions, 4 integers and 5 decimals*
G04 Generated by one-click*
%FSLAX45Y45*%
%MOMM*%
%AMRoundRect*1,1,$1,$2,$3*1,1,$1,$4,$5*1,1,$1,0-$2,0-$3*1,1,$1,0-$4,0-$5*20,1,$1,$2,$3,$4,$5,0*20,1,$1,$4,$5,0-$2,0-$3,0*20,1,$1,0-$2,0-$3,0-$4,0-$5,0*20,1,$1,0-$4,0-$5,$2,$3,0*4,1,4,$2,$3,$4,$5,0-$2,0-$3,0-$4,0-$5,$2,$3,0*%
%ADD10RoundRect,0.1016X-0.25X0.27X0.25X0.27*%
%ADD11RoundRect,0.1016X-0.27X-0.25X-0.27X0.25*%
%ADD12RoundRect,0.1016X-0.28283X0.27X0.28283X0.27*%
%ADD13RoundRect,0.1016X-0.27X-0.28283X-0.27X0.28283*%
%ADD14RoundRect,0.10003X-0.45X-0.75X-0.45X0.75*%
%ADD15RoundRect,0.10003X-0.75X0.45X0.75X0.45*%
%ADD16RoundRect,0.1016X-0.45X0.45X0.45X0.45*%
%ADD17O,1.9164X0.4572*%
%ADD18O,1.62161X0.7016*%
%ADD19RoundRect,0.1046X-0.19092X-0.5671X-0.5671X-0.19092*%
%ADD20RoundRect,0.1016X-0.19092X-0.5671X-0.5671X-0.19092*%
%ADD21O,1.1X1.9*%
%ADD22O,1.1X2.2*%
%ADD23RoundRect,0.1016X-0.762X1.5X0.762X1.5*%
%ADD24RoundRect,0.1016X-0.55X0.3X0.55X0.3*%
%ADD25RoundRect,0.10003X-0.7X0.75X0.7X0.75*%
%ADD26C,0.61*%
%ADD27C,4.1016*%
G75*


G04 Pad Start*
G54D10*
G01X3319997Y3165388D03*
G01X3235974Y3165388D03*
G54D11*
G01X2286000Y2993288D03*
G01X2286000Y3077312D03*
G01X3543300Y2937612D03*
G01X3543300Y2853588D03*
G01X838200Y4306067D03*
G01X838200Y4222043D03*
G01X533400Y4306067D03*
G01X533400Y4222043D03*
G01X406296Y4306067D03*
G01X406296Y4222043D03*
G54D12*
G01X3321267Y3292388D03*
G01X3234704Y3292388D03*
G01X3321267Y3419388D03*
G01X3234704Y3419388D03*
G01X2191918Y3187700D03*
G01X2278482Y3187700D03*
G01X2191918Y3378200D03*
G01X2278482Y3378200D03*
G54D13*
G01X711200Y4307337D03*
G01X711200Y4220773D03*
G01X152400Y4220773D03*
G01X152400Y4307337D03*
G54D14*
G01X151905Y3897605D03*
G01X278905Y3897605D03*
G01X405905Y3897605D03*
G01X532905Y3897605D03*
G01X659905Y3897605D03*
G01X786905Y3897605D03*
G01X913905Y3897605D03*
G01X1040905Y3897605D03*
G01X1167905Y3897605D03*
G01X1294905Y3897605D03*
G01X1421905Y3897605D03*
G01X1548905Y3897605D03*
G01X1675905Y3897605D03*
G01X1802905Y3897605D03*
G54D15*
G01X1930895Y3721100D03*
G01X1930895Y3594100D03*
G01X1930895Y3467100D03*
G01X1930895Y3340100D03*
G01X1930895Y3213100D03*
G01X1930895Y3086100D03*
G01X1930895Y2959100D03*
G01X1930895Y2832100D03*
G01X1930895Y2705100D03*
G01X1930895Y2578100D03*
G01X1930895Y2451100D03*
G01X1927898Y2324100D03*
G54D14*
G01X1802905Y2147595D03*
G01X1675905Y2147595D03*
G01X1548905Y2147595D03*
G01X1421905Y2147595D03*
G01X1294905Y2147595D03*
G01X1167905Y2147595D03*
G01X1040905Y2147595D03*
G01X913905Y2147595D03*
G01X786905Y2147595D03*
G01X659905Y2147595D03*
G01X532905Y2147595D03*
G01X405905Y2147595D03*
G01X278905Y2147595D03*
G01X151905Y2147595D03*
G54D16*
G01X923912Y3172612D03*
G01X923912Y3312617D03*
G01X923912Y3032608D03*
G01X783908Y3032608D03*
G01X783908Y3172612D03*
G01X783908Y3312617D03*
G01X1063917Y3312617D03*
G01X1063917Y3172612D03*
G01X1063917Y3032608D03*
G54D17*
G01X2999078Y4159250D03*
G01X2999078Y4095750D03*
G01X2999078Y4032250D03*
G01X2999078Y3968750D03*
G01X2999078Y3905250D03*
G01X2999078Y3841750D03*
G01X2999078Y3778250D03*
G01X2999078Y3714750D03*
G01X2468116Y4159250D03*
G01X2468116Y4095750D03*
G01X2468116Y4032250D03*
G01X2468116Y3968750D03*
G01X2468116Y3905250D03*
G01X2468116Y3841750D03*
G01X2468116Y3778250D03*
G01X2468116Y3714750D03*
G54D18*
G01X3016353Y3546388D03*
G01X3016353Y3419388D03*
G01X3016353Y3292388D03*
G01X3016353Y3165388D03*
G01X2468373Y3546388D03*
G01X2468373Y3419388D03*
G01X2468373Y3292388D03*
G01X2468373Y3165388D03*
G54D11*
G01X279296Y4233113D03*
G01X279296Y4318111D03*
G54D20*
G01X3025377Y1031596D03*
G01X2958205Y1098769D03*
G01X2891033Y1165941D03*
G01X3053539Y1328448D03*
G01X3120712Y1261275D03*
G01X3187884Y1194103D03*
G54D21*
G01X3053999Y629699D03*
G01X1946001Y629699D03*
G54D22*
G01X3053999Y229700D03*
G01X1946001Y229700D03*
G54D23*
G01X3008000Y4704426D03*
G01X2669333Y4704426D03*
G01X1992000Y4704426D03*
G01X2330667Y4704426D03*
G54D10*
G01X4312874Y1454823D03*
G01X4228851Y1454823D03*
G54D11*
G01X3937000Y1583588D03*
G01X3937000Y1667612D03*
G54D12*
G01X3410167Y2745873D03*
G01X3323604Y2745873D03*
G01X3410167Y2872873D03*
G01X3323604Y2872873D03*
G01X3050845Y4419600D03*
G01X2964282Y4419600D03*
G01X3050845Y4292600D03*
G01X2964282Y4292600D03*
G54D18*
G01X3016353Y2999873D03*
G01X3016353Y2872873D03*
G01X3016353Y2745873D03*
G01X3016353Y2618873D03*
G01X2468373Y2999873D03*
G01X2468373Y2872873D03*
G01X2468373Y2745873D03*
G01X2468373Y2618873D03*
G54D24*
G01X4395921Y1624772D03*
G01X4395921Y1814764D03*
G01X4135901Y1814764D03*
G01X4135901Y1719768D03*
G01X4135901Y1624772D03*
G54D10*
G01X2193188Y3496867D03*
G01X2277212Y3496867D03*
G54D13*
G01X3695700Y883818D03*
G01X3695700Y970382D03*
G01X4640682Y1765300D03*
G01X4640682Y1678737D03*
G54D25*
G01X4640004Y334998D03*
G01X3959996Y334998D03*
G01X4640004Y610004D03*
G01X3959996Y840001D03*
G01X4640004Y1149982D03*
G01X3959996Y1149982D03*
G54D26*
G01X2602750Y1663863D03*
G01X2748063Y1518552D03*
G01X2397248Y1663863D03*
G01X2251937Y1518550D03*
G01X2602751Y1167737D03*
G01X2748063Y1313050D03*
G01X2397249Y1167737D03*
G01X2251937Y1313048D03*
G36*
G01X2175895Y1478107D02*
G01X2500882Y1420803D01*
G02X2500882Y1410797I-882J-5003D01*
G01X2175895Y1353493D01*
G02X2169933Y1358496I-882J5003D01*
G01X2169933Y1358496D01*
G01X2169933Y1473104D01*
G01X2169933Y1473104D01*
G02X2175895Y1478107I5080J0D01*
G37*
G36*
G01X2226766Y1230681D02*
G01X2497086Y1419961D01*
G02X2504161Y1412886I2914J-4161D01*
G01X2314881Y1142566D01*
G01X2314881Y1142566D01*
G02X2307127Y1141888I-4161J2914D01*
G01X2307127Y1141888D01*
G01X2226087Y1222928D01*
G02X2226766Y1230681I3592J3592D01*
G37*
G36*
G01X2314881Y1689034D02*
G01X2504161Y1418714D01*
G02X2497086Y1411639I-4161J-2914D01*
G01X2226766Y1600919D01*
G01X2226766Y1600919D01*
G02X2226087Y1608672I2914J4161D01*
G01X2307127Y1689712D01*
G01X2307127Y1689712D01*
G02X2314881Y1689034I3592J-3592D01*
G37*
G36*
G01X2437693Y1091696D02*
G01X2494997Y1416682D01*
G02X2505003Y1416682I5003J-882D01*
G01X2505003Y1416682D01*
G01X2562307Y1091696D01*
G02X2557304Y1085733I-5003J-882D01*
G01X2442696Y1085733D01*
G02X2437693Y1091696I0J5080D01*
G37*
G36*
G01X2562307Y1739905D02*
G01X2505003Y1414918D01*
G01X2505003Y1414918D01*
G02X2494997Y1414918I-5003J882D01*
G01X2437693Y1739905D01*
G02X2442696Y1745867I5003J882D01*
G01X2557304Y1745867D01*
G02X2562307Y1739905I0J-5080D01*
G37*
G36*
G01X2773234Y1600919D02*
G01X2502914Y1411639D01*
G01X2502914Y1411639D01*
G02X2495839Y1418714I-2914J4161D01*
G01X2495839Y1418714D01*
G01X2685119Y1689034D01*
G02X2692872Y1689712I4161J-2914D01*
G01X2773912Y1608672D01*
G02X2773234Y1600919I-3592J-3592D01*
G37*
G36*
G01X2685119Y1142566D02*
G01X2495839Y1412886D01*
G01X2495839Y1412886D01*
G02X2502914Y1419961I4161J2914D01*
G01X2502914Y1419961D01*
G01X2773234Y1230681D01*
G02X2773912Y1222928I-2914J-4161D01*
G01X2692872Y1141888D01*
G02X2685119Y1142566I-3592J3592D01*
G37*
G36*
G01X2824104Y1353493D02*
G01X2499118Y1410797D01*
G01X2499118Y1410797D01*
G02X2499118Y1420803I882J5003D01*
G01X2499118Y1420803D01*
G01X2824104Y1478107D01*
G02X2830066Y1473104I882J-5003D01*
G01X2830066Y1358496D01*
G02X2824104Y1353493I-5080J0D01*
G37*
G54D27*
G01X2500000Y1415800D03*
G54D26*
G01X4702783Y5848065D03*
G01X4848095Y5702753D03*
G01X4497281Y5848064D03*
G01X4351969Y5702752D03*
G01X4702784Y5351939D03*
G01X4848095Y5497251D03*
G01X4497282Y5351938D03*
G01X4351969Y5497250D03*
G36*
G01X4275928Y5662308D02*
G01X4600914Y5605004D01*
G02X4600914Y5594999I-882J-5003D01*
G01X4275928Y5537695D01*
G02X4269966Y5542698I-882J5003D01*
G01X4269966Y5542698D01*
G01X4269966Y5657305D01*
G01X4269966Y5657305D01*
G02X4275928Y5662308I5080J0D01*
G37*
G36*
G01X4326798Y5414883D02*
G01X4597118Y5604163D01*
G02X4604193Y5597088I2914J-4161D01*
G01X4414913Y5326767D01*
G01X4414913Y5326767D01*
G02X4407160Y5326089I-4161J2914D01*
G01X4326120Y5407129D01*
G02X4326798Y5414883I3592J3592D01*
G37*
G36*
G01X4414913Y5873236D02*
G01X4604193Y5602915D01*
G02X4597118Y5595840I-4161J-2914D01*
G01X4326798Y5785120D01*
G01X4326798Y5785120D01*
G02X4326120Y5792874I2914J4161D01*
G01X4407160Y5873914D01*
G02X4414913Y5873236I3592J-3592D01*
G37*
G36*
G01X4537725Y5275897D02*
G01X4595029Y5600884D01*
G02X4605035Y5600884I5003J-882D01*
G01X4605035Y5600884D01*
G01X4662339Y5275897D01*
G02X4657336Y5269935I-5003J-882D01*
G01X4542728Y5269935D01*
G02X4537725Y5275897I0J5080D01*
G37*
G36*
G01X4662339Y5924106D02*
G01X4605035Y5599119D01*
G01X4605035Y5599119D01*
G02X4595029Y5599119I-5003J882D01*
G01X4537725Y5924106D01*
G02X4542728Y5930068I5003J882D01*
G01X4657336Y5930068D01*
G02X4662339Y5924106I0J-5080D01*
G37*
G36*
G01X4873266Y5785120D02*
G01X4602946Y5595840D01*
G01X4602946Y5595840D01*
G02X4595871Y5602915I-2914J4161D01*
G01X4595871Y5602915D01*
G01X4785151Y5873236D01*
G02X4792905Y5873914I4161J-2914D01*
G01X4873945Y5792874D01*
G02X4873266Y5785120I-3592J-3592D01*
G37*
G36*
G01X4785151Y5326767D02*
G01X4595871Y5597088D01*
G01X4595871Y5597088D01*
G02X4602946Y5604163I4161J2914D01*
G01X4602946Y5604163D01*
G01X4873266Y5414883D01*
G02X4873945Y5407129I-2914J-4161D01*
G01X4792905Y5326089D01*
G02X4785151Y5326767I-3592J3592D01*
G37*
G36*
G01X4924137Y5537695D02*
G01X4599150Y5594999D01*
G01X4599150Y5594999D01*
G02X4599150Y5605004I882J5003D01*
G01X4599150Y5605004D01*
G01X4924137Y5662308D01*
G02X4930099Y5657305I882J-5003D01*
G01X4930099Y5542698D01*
G02X4924137Y5537695I-5080J0D01*
G37*
G54D27*
G01X4600032Y5600002D03*
G54D26*
G01X502782Y5848065D03*
G01X648095Y5702753D03*
G01X297280Y5848064D03*
G01X151969Y5702752D03*
G01X502784Y5351939D03*
G01X648095Y5497251D03*
G01X297282Y5351938D03*
G01X151969Y5497250D03*
G36*
G01X75927Y5662308D02*
G01X400914Y5605004D01*
G02X400914Y5594999I-882J-5003D01*
G01X75927Y5537695D01*
G02X69965Y5542698I-882J5003D01*
G01X69965Y5657305D01*
G02X75927Y5662308I5080J0D01*
G37*
G36*
G01X126798Y5414883D02*
G01X397118Y5604163D01*
G02X404193Y5597088I2914J-4161D01*
G01X214913Y5326767D01*
G01X214913Y5326767D01*
G02X207160Y5326089I-4161J2914D01*
G01X126120Y5407129D01*
G02X126798Y5414883I3592J3592D01*
G37*
G36*
G01X214913Y5873236D02*
G01X404193Y5602915D01*
G02X397118Y5595840I-4161J-2914D01*
G01X126798Y5785120D01*
G02X126120Y5792874I2914J4161D01*
G01X207160Y5873914D01*
G02X214913Y5873236I3592J-3592D01*
G37*
G36*
G01X337725Y5275897D02*
G01X395029Y5600884D01*
G01X395029Y5600884D01*
G02X405035Y5600884I5003J-882D01*
G01X462339Y5275897D01*
G01X462339Y5275897D01*
G02X457336Y5269935I-5003J-882D01*
G01X342728Y5269935D01*
G02X337725Y5275897I0J5080D01*
G37*
G36*
G01X462339Y5924106D02*
G01X405035Y5599119D01*
G02X395029Y5599119I-5003J882D01*
G01X337725Y5924106D01*
G02X342728Y5930068I5003J882D01*
G01X457336Y5930068D01*
G02X462339Y5924106I0J-5080D01*
G37*
G36*
G01X673266Y5785120D02*
G01X402946Y5595840D01*
G01X402946Y5595840D01*
G02X395871Y5602915I-2914J4161D01*
G01X395871Y5602915D01*
G01X585151Y5873236D01*
G02X592904Y5873914I4161J-2914D01*
G01X673944Y5792874D01*
G02X673266Y5785120I-3592J-3592D01*
G37*
G36*
G01X585151Y5326767D02*
G01X395871Y5597088D01*
G01X395871Y5597088D01*
G02X402946Y5604163I4161J2914D01*
G01X673266Y5414883D01*
G02X673944Y5407129I-2914J-4161D01*
G01X592904Y5326089D01*
G02X585151Y5326767I-3592J3592D01*
G37*
G36*
G01X724136Y5537695D02*
G01X399150Y5594999D01*
G02X399150Y5605004I882J5003D01*
G01X724136Y5662308D01*
G02X730099Y5657305I882J-5003D01*
G01X730099Y5657305D01*
G01X730099Y5542698D01*
G01X730099Y5542698D01*
G02X724136Y5537695I-5080J0D01*
G37*
G54D27*
G01X400032Y5600002D03*
G54D13*
G01X3935481Y1875572D03*
G01X3935481Y1789009D03*
G54D17*
G01X2481657Y2025650D03*
G01X2481657Y2089150D03*
G01X2481657Y2152650D03*
G01X2481657Y2216150D03*
G01X2481657Y2279650D03*
G01X2481657Y2343150D03*
G01X2481657Y2406650D03*
G01X2481657Y2470150D03*
G01X3012619Y2025650D03*
G01X3012619Y2089150D03*
G01X3012619Y2152650D03*
G01X3012619Y2216150D03*
G01X3012619Y2279650D03*
G01X3012619Y2343150D03*
G01X3012619Y2406650D03*
G01X3012619Y2470150D03*
G54D11*
G01X3200400Y2561488D03*
G01X3200400Y2645512D03*
G04 Pad End*

M02*

