G04 Layer: InnerLayer1*
G04 EasyEDA Pro v3.2.58, 2026-01-05 14:09:15*
G04 Gerber Generator version 0.3*
G04 Scale: 100 percent, Rotated: No, Reflected: No*
G04 Dimensions in millimeters*
G04 Leading zeros omitted, absolute positions, 4 integers and 5 decimals*
G04 Generated by one-click*
%FSLAX45Y45*%
%MOMM*%
%ADD10C,0.2032*%
%ADD11O,1.0X1.8*%
%ADD12O,1.0X2.1*%
%ADD13C,0.61*%
%ADD14C,4.0*%
%ADD15C,0.2586*%
%ADD16C,0.254*%
%ADD17C,0.508*%
%ADD18C,0.381*%
G75*


G04 Copper Start*
G36*
G01X2044700Y950214D02*
G01X1839064Y950214D01*
G01X1839027Y990600D01*
G01X2321286Y990600D01*
G01X2323213Y974730D01*
G01X2328882Y959782D01*
G01X2337963Y946626D01*
G01X2349929Y936025D01*
G01X2364085Y928595D01*
G01X2379607Y924769D01*
G01X2395593Y924769D01*
G01X2411115Y928595D01*
G01X2425271Y936025D01*
G01X2437237Y946626D01*
G01X2446318Y959782D01*
G01X2451987Y974730D01*
G01X2453914Y990600D01*
G01X2451987Y1006470D01*
G01X2446318Y1021418D01*
G01X2437237Y1034574D01*
G01X2425271Y1045175D01*
G01X2411115Y1052605D01*
G01X2395593Y1056431D01*
G01X2379607Y1056431D01*
G01X2364085Y1052605D01*
G01X2349929Y1045175D01*
G01X2337963Y1034574D01*
G01X2328882Y1021418D01*
G01X2323213Y1006470D01*
G01X2321286Y990600D01*
G01X2321286Y990600D01*
G01X1839027Y990600D01*
G01X1838960Y1062592D01*
G01X1936446Y1160078D01*
G01X2331379Y1160078D01*
G01X2335146Y1144484D01*
G01X2342547Y1130251D01*
G01X2353149Y1118212D01*
G01X2366333Y1109071D01*
G01X2381325Y1103364D01*
G01X2397249Y1101423D01*
G01X2413174Y1103364D01*
G01X2428166Y1109071D01*
G01X2441350Y1118212D01*
G01X2451952Y1130251D01*
G01X2459353Y1144484D01*
G01X2463120Y1160078D01*
G01X2536881Y1160078D01*
G01X2540648Y1144484D01*
G01X2548049Y1130251D01*
G01X2558651Y1118212D01*
G01X2571835Y1109071D01*
G01X2586827Y1103364D01*
G01X2602751Y1101423D01*
G01X2618676Y1103364D01*
G01X2633668Y1109071D01*
G01X2646851Y1118212D01*
G01X2657454Y1130251D01*
G01X2664855Y1144484D01*
G01X2668622Y1160078D01*
G01X3164019Y1160078D01*
G01X3167907Y1160851D01*
G01X3171203Y1163054D01*
G01X3191789Y1183640D01*
G01X3234292Y1183640D01*
G01X3278886Y1139046D01*
G01X3278886Y1010695D01*
G01X3218405Y950214D01*
G01X2921000Y950214D01*
G01X2908444Y948561D01*
G01X2896743Y943714D01*
G01X2886695Y936005D01*
G01X2786605Y835914D01*
G01X2577591Y835914D01*
G01X2585669Y849541D01*
G01X2590284Y864695D01*
G01X2591174Y880511D01*
G01X2588287Y896087D01*
G01X2581788Y910534D01*
G01X2572048Y923027D01*
G01X2559623Y932854D01*
G01X2545222Y939454D01*
G01X2559739Y945462D01*
G01X2572435Y954717D01*
G01X2582598Y966698D01*
G01X2589657Y980735D01*
G01X2593215Y996038D01*
G01X2593074Y1011749D01*
G01X2592004Y1016000D01*
G01X2816586Y1016000D01*
G01X2818513Y1000130D01*
G01X2824182Y985182D01*
G01X2833263Y972026D01*
G01X2845229Y961425D01*
G01X2859385Y953995D01*
G01X2874907Y950169D01*
G01X2890893Y950169D01*
G01X2906415Y953995D01*
G01X2920571Y961425D01*
G01X2932537Y972026D01*
G01X2941618Y985182D01*
G01X2947287Y1000130D01*
G01X2949214Y1016000D01*
G01X2947287Y1031870D01*
G01X2941618Y1046818D01*
G01X2932537Y1059974D01*
G01X2920571Y1070575D01*
G01X2906415Y1078005D01*
G01X2890893Y1081831D01*
G01X2874907Y1081831D01*
G01X2859385Y1078005D01*
G01X2845229Y1070575D01*
G01X2833263Y1059974D01*
G01X2824182Y1046818D01*
G01X2818513Y1031870D01*
G01X2816586Y1016000D01*
G01X2816586Y1016000D01*
G01X2592004Y1016000D01*
G01X2589240Y1026985D01*
G01X2581930Y1040892D01*
G01X2571553Y1052689D01*
G01X2558692Y1061713D01*
G01X2544068Y1067459D01*
G01X2528504Y1069603D01*
G01X2528504Y1069603D01*
G01X2512872Y1068026D01*
G01X2498050Y1062815D01*
G01X2484870Y1054263D01*
G01X2474071Y1042851D01*
G01X2466261Y1029218D01*
G01X2461876Y1014131D01*
G01X2461165Y998436D01*
G01X2464165Y983014D01*
G01X2470709Y968730D01*
G01X2480430Y956387D01*
G01X2492782Y946678D01*
G01X2507072Y940146D01*
G01X2492179Y933926D01*
G01X2479229Y924291D01*
G01X2468991Y911814D01*
G01X2462070Y897233D01*
G01X2458877Y881412D01*
G01X2459600Y865288D01*
G01X2464197Y849817D01*
G01X2472396Y835914D01*
G01X2179095Y835914D01*
G01X2079005Y936005D01*
G01X2068957Y943714D01*
G01X2057256Y948561D01*
G01X2044700Y950214D01*
G37*
G36*
G01X35814Y4140210D02*
G01X35814Y4245757D01*
G01X2181704Y4245757D01*
G01X2182665Y4229886D01*
G01X2187376Y4214699D01*
G01X2195568Y4201071D01*
G01X2206767Y4189784D01*
G01X2220332Y4181488D01*
G01X2235482Y4176659D01*
G01X2251345Y4175575D01*
G01X2259767Y4162088D01*
G01X2271156Y4150993D01*
G01X2284860Y4142928D01*
G01X2300090Y4138358D01*
G01X2315969Y4137544D01*
G01X2331586Y4140533D01*
G01X2346043Y4147154D01*
G01X2358507Y4157026D01*
G01X2368264Y4169582D01*
G01X2374751Y4184099D01*
G01X2377596Y4199743D01*
G01X2376635Y4215614D01*
G01X2371924Y4230801D01*
G01X2363732Y4244429D01*
G01X2352533Y4255716D01*
G01X2338968Y4264012D01*
G01X2323818Y4268841D01*
G01X2307955Y4269925D01*
G01X2299533Y4283412D01*
G01X2288144Y4294507D01*
G01X2274440Y4302572D01*
G01X2259210Y4307142D01*
G01X2243331Y4307956D01*
G01X2227714Y4304967D01*
G01X2213257Y4298346D01*
G01X2200793Y4288474D01*
G01X2191036Y4275918D01*
G01X2191036Y4275918D01*
G01X2184549Y4261401D01*
G01X2181704Y4245757D01*
G01X35814Y4245757D01*
G01X35814Y4445000D01*
G01X1444986Y4445000D01*
G01X1446913Y4429130D01*
G01X1452582Y4414182D01*
G01X1461663Y4401026D01*
G01X1473629Y4390425D01*
G01X1487785Y4382995D01*
G01X1503307Y4379169D01*
G01X1519293Y4379169D01*
G01X1534815Y4382995D01*
G01X1548971Y4390425D01*
G01X1560937Y4401026D01*
G01X1570018Y4414182D01*
G01X1575687Y4429130D01*
G01X1577614Y4445000D01*
G01X1575687Y4460870D01*
G01X1570018Y4475818D01*
G01X1560937Y4488974D01*
G01X1548971Y4499575D01*
G01X1534815Y4507005D01*
G01X1519293Y4510831D01*
G01X1503307Y4510831D01*
G01X1487785Y4507005D01*
G01X1473629Y4499575D01*
G01X1461663Y4488974D01*
G01X1452582Y4475818D01*
G01X1446913Y4460870D01*
G01X1444986Y4445000D01*
G01X1444986Y4445000D01*
G01X35814Y4445000D01*
G01X35814Y4686300D01*
G01X174986Y4686300D01*
G01X176913Y4670430D01*
G01X182582Y4655482D01*
G01X191663Y4642326D01*
G01X203629Y4631725D01*
G01X217785Y4624295D01*
G01X233307Y4620469D01*
G01X249293Y4620469D01*
G01X264815Y4624295D01*
G01X278971Y4631725D01*
G01X290937Y4642326D01*
G01X294992Y4648200D01*
G01X492486Y4648200D01*
G01X494413Y4632330D01*
G01X500082Y4617382D01*
G01X509163Y4604226D01*
G01X521129Y4593625D01*
G01X535285Y4586195D01*
G01X550807Y4582369D01*
G01X566793Y4582369D01*
G01X582315Y4586195D01*
G01X596471Y4593625D01*
G01X608437Y4604226D01*
G01X617518Y4617382D01*
G01X623187Y4632330D01*
G01X625114Y4648200D01*
G01X623187Y4664070D01*
G01X617518Y4679018D01*
G01X608437Y4692174D01*
G01X596471Y4702775D01*
G01X582315Y4710205D01*
G01X576249Y4711700D01*
G01X1178286Y4711700D01*
G01X1180213Y4695830D01*
G01X1185882Y4680882D01*
G01X1194963Y4667726D01*
G01X1206929Y4657125D01*
G01X1221085Y4649695D01*
G01X1236607Y4645869D01*
G01X1252593Y4645869D01*
G01X1268115Y4649695D01*
G01X1282271Y4657125D01*
G01X1294237Y4667726D01*
G01X1303318Y4680882D01*
G01X1308987Y4695830D01*
G01X1310914Y4711700D01*
G01X1308987Y4727570D01*
G01X1303318Y4742518D01*
G01X1294237Y4755674D01*
G01X1282271Y4766275D01*
G01X1268115Y4773705D01*
G01X1252593Y4777531D01*
G01X1236607Y4777531D01*
G01X1221085Y4773705D01*
G01X1206929Y4766275D01*
G01X1194963Y4755674D01*
G01X1185882Y4742518D01*
G01X1180213Y4727570D01*
G01X1178286Y4711700D01*
G01X1178286Y4711700D01*
G01X576249Y4711700D01*
G01X566793Y4714031D01*
G01X550807Y4714031D01*
G01X535285Y4710205D01*
G01X521129Y4702775D01*
G01X509163Y4692174D01*
G01X500082Y4679018D01*
G01X494413Y4664070D01*
G01X492486Y4648200D01*
G01X492486Y4648200D01*
G01X294992Y4648200D01*
G01X300018Y4655482D01*
G01X305687Y4670430D01*
G01X307614Y4686300D01*
G01X305687Y4702170D01*
G01X300018Y4717118D01*
G01X290937Y4730274D01*
G01X278971Y4740875D01*
G01X264815Y4748305D01*
G01X249293Y4752131D01*
G01X233307Y4752131D01*
G01X217785Y4748305D01*
G01X203629Y4740875D01*
G01X191663Y4730274D01*
G01X182582Y4717118D01*
G01X176913Y4702170D01*
G01X174986Y4686300D01*
G01X174986Y4686300D01*
G01X35814Y4686300D01*
G01X35814Y5044986D01*
G01X1140517Y5044986D01*
G01X1783222Y4402281D01*
G01X1792377Y4394768D01*
G01X1802822Y4389185D01*
G01X1814155Y4385747D01*
G01X1825942Y4384586D01*
G01X2591176Y4384586D01*
G01X2657386Y4318376D01*
G01X2657386Y4064908D01*
G01X2642526Y4066808D01*
G01X2627618Y4065323D01*
G01X2613425Y4060531D01*
G01X2600669Y4052675D01*
G01X2590002Y4042156D01*
G01X2581968Y4029511D01*
G01X2576978Y4015385D01*
G01X2575286Y4000500D01*
G01X2576978Y3985615D01*
G01X2581968Y3971489D01*
G01X2590002Y3958844D01*
G01X2600669Y3948325D01*
G01X2613425Y3940469D01*
G01X2627618Y3935677D01*
G01X2642526Y3934192D01*
G01X2657386Y3936092D01*
G01X2657386Y3670850D01*
G01X2647204Y3682075D01*
G01X2634739Y3690695D01*
G01X2620643Y3696260D01*
G01X2605651Y3698479D01*
G01X2590547Y3697237D01*
G01X2576120Y3692598D01*
G01X2563122Y3684804D01*
G01X2552233Y3674263D01*
G01X2544022Y3661525D01*
G01X2538918Y3647256D01*
G01X2537186Y3632200D01*
G01X2538918Y3617144D01*
G01X2544022Y3602875D01*
G01X2552233Y3590137D01*
G01X2563122Y3579596D01*
G01X2576120Y3571802D01*
G01X2590547Y3567163D01*
G01X2605651Y3565921D01*
G01X2620643Y3568140D01*
G01X2634739Y3573705D01*
G01X2647204Y3582325D01*
G01X2657386Y3593550D01*
G01X2657386Y3531774D01*
G01X2644807Y3539627D01*
G01X2630797Y3544488D01*
G01X2616057Y3546114D01*
G01X2601324Y3544424D01*
G01X2587335Y3539502D01*
G01X2574790Y3531595D01*
G01X2564315Y3521098D01*
G01X2556435Y3508536D01*
G01X2551544Y3494536D01*
G01X2549886Y3479800D01*
G01X2551544Y3465064D01*
G01X2556435Y3451064D01*
G01X2564315Y3438502D01*
G01X2574790Y3428005D01*
G01X2587335Y3420098D01*
G01X2601324Y3415176D01*
G01X2616057Y3413486D01*
G01X2630797Y3415112D01*
G01X2644807Y3419973D01*
G01X2657386Y3427826D01*
G01X2657386Y3145984D01*
G01X2642294Y3151047D01*
G01X2626431Y3152368D01*
G01X2610710Y3149871D01*
G01X2596037Y3143698D01*
G01X2583258Y3134207D01*
G01X2573108Y3121945D01*
G01X2566174Y3107616D01*
G01X2562853Y3092048D01*
G01X2563339Y3076137D01*
G01X2567602Y3060801D01*
G01X2575397Y3046922D01*
G01X2586275Y3035300D01*
G01X2576166Y3024708D01*
G01X2568629Y3012157D01*
G01X2564029Y2998257D01*
G01X2562591Y2983687D01*
G01X2564385Y2969156D01*
G01X2569325Y2955374D01*
G01X2577168Y2943011D01*
G01X2587533Y2932670D01*
G01X2574129Y2924133D01*
G01X2563142Y2912652D01*
G01X2555201Y2898886D01*
G01X2550764Y2883627D01*
G01X2550084Y2867749D01*
G01X2553201Y2852167D01*
G01X2559937Y2837773D01*
G01X2569903Y2825395D01*
G01X2582528Y2815743D01*
G01X2597087Y2809373D01*
G01X2597087Y2809373D01*
G01X2583693Y2803672D01*
G01X2571864Y2795187D01*
G01X2562173Y2784325D01*
G01X2555084Y2771611D01*
G01X2550941Y2757656D01*
G01X2549943Y2743133D01*
G01X2552137Y2728742D01*
G01X2557418Y2715177D01*
G01X2565531Y2703091D01*
G01X2576087Y2693067D01*
G01X2588575Y2685587D01*
G01X2602394Y2681012D01*
G01X2616879Y2679562D01*
G01X2631331Y2681308D01*
G01X2645054Y2686165D01*
G01X2657386Y2693899D01*
G01X2657386Y2603772D01*
G01X2645024Y2612914D01*
G01X2630889Y2618963D01*
G01X2615741Y2621595D01*
G01X2600394Y2620667D01*
G01X2585673Y2616230D01*
G01X2572370Y2608523D01*
G01X2561199Y2597958D01*
G01X2552761Y2585106D01*
G01X2547510Y2570655D01*
G01X2545727Y2555384D01*
G01X2547510Y2540113D01*
G01X2552761Y2525662D01*
G01X2561199Y2512810D01*
G01X2572370Y2502245D01*
G01X2585673Y2494538D01*
G01X2600394Y2490101D01*
G01X2615741Y2489173D01*
G01X2630889Y2491805D01*
G01X2645024Y2497854D01*
G01X2657386Y2506996D01*
G01X2657386Y2339534D01*
G01X2643381Y2344364D01*
G01X2628653Y2345964D01*
G01X2613937Y2344254D01*
G01X2599968Y2339320D01*
G01X2587444Y2331408D01*
G01X2576988Y2320913D01*
G01X2569122Y2308359D01*
G01X2564241Y2294372D01*
G01X2562586Y2279650D01*
G01X2564241Y2264928D01*
G01X2569122Y2250941D01*
G01X2576988Y2238387D01*
G01X2587444Y2227892D01*
G01X2599968Y2219980D01*
G01X2613937Y2215046D01*
G01X2628653Y2213336D01*
G01X2643381Y2214936D01*
G01X2657386Y2219766D01*
G01X2657386Y2112747D01*
G01X2545065Y2000426D01*
G01X2395362Y2000426D01*
G01X2395269Y2016762D01*
G01X2391185Y2032580D01*
G01X2383358Y2046920D01*
G01X2372263Y2058911D01*
G01X2358573Y2067825D01*
G01X2343119Y2073123D01*
G01X2326839Y2074481D01*
G01X2310721Y2071818D01*
G01X2295743Y2065295D01*
G01X2282814Y2055309D01*
G01X2272719Y2042464D01*
G01X2266071Y2027542D01*
G01X2263272Y2011447D01*
G01X2264493Y1995156D01*
G01X2264493Y1995156D01*
G01X2254905Y1989768D01*
G01X2246452Y1982731D01*
G01X2089435Y1825714D01*
G01X35814Y1825714D01*
G01X35814Y1930400D01*
G01X86086Y1930400D01*
G01X88013Y1914530D01*
G01X93682Y1899582D01*
G01X102763Y1886426D01*
G01X114729Y1875825D01*
G01X128885Y1868395D01*
G01X144407Y1864569D01*
G01X160393Y1864569D01*
G01X175915Y1868395D01*
G01X190071Y1875825D01*
G01X202037Y1886426D01*
G01X211118Y1899582D01*
G01X216787Y1914530D01*
G01X218714Y1930400D01*
G01X352786Y1930400D01*
G01X354713Y1914530D01*
G01X360382Y1899582D01*
G01X369463Y1886426D01*
G01X381429Y1875825D01*
G01X395585Y1868395D01*
G01X411107Y1864569D01*
G01X427093Y1864569D01*
G01X442615Y1868395D01*
G01X456771Y1875825D01*
G01X468737Y1886426D01*
G01X477818Y1899582D01*
G01X483487Y1914530D01*
G01X485414Y1930400D01*
G01X483487Y1946270D01*
G01X477818Y1961218D01*
G01X468737Y1974374D01*
G01X456771Y1984975D01*
G01X442615Y1992405D01*
G01X427093Y1996231D01*
G01X411107Y1996231D01*
G01X395585Y1992405D01*
G01X381429Y1984975D01*
G01X369463Y1974374D01*
G01X360382Y1961218D01*
G01X354713Y1946270D01*
G01X352786Y1930400D01*
G01X352786Y1930400D01*
G01X218714Y1930400D01*
G01X216787Y1946270D01*
G01X211118Y1961218D01*
G01X202037Y1974374D01*
G01X190071Y1984975D01*
G01X175915Y1992405D01*
G01X160393Y1996231D01*
G01X144407Y1996231D01*
G01X128885Y1992405D01*
G01X114729Y1984975D01*
G01X102763Y1974374D01*
G01X93682Y1961218D01*
G01X88013Y1946270D01*
G01X86086Y1930400D01*
G01X86086Y1930400D01*
G01X35814Y1930400D01*
G01X35814Y2057400D01*
G01X1864086Y2057400D01*
G01X1866013Y2041530D01*
G01X1871682Y2026582D01*
G01X1880763Y2013426D01*
G01X1892729Y2002825D01*
G01X1906885Y1995395D01*
G01X1922407Y1991569D01*
G01X1938393Y1991569D01*
G01X1953915Y1995395D01*
G01X1968071Y2002825D01*
G01X1980037Y2013426D01*
G01X1989118Y2026582D01*
G01X1994787Y2041530D01*
G01X1996714Y2057400D01*
G01X1994787Y2073270D01*
G01X1989118Y2088218D01*
G01X1980037Y2101374D01*
G01X1968071Y2111975D01*
G01X1953915Y2119405D01*
G01X1938393Y2123231D01*
G01X1922407Y2123231D01*
G01X1906885Y2119405D01*
G01X1892729Y2111975D01*
G01X1880763Y2101374D01*
G01X1871682Y2088218D01*
G01X1866013Y2073270D01*
G01X1864086Y2057400D01*
G01X1864086Y2057400D01*
G01X35814Y2057400D01*
G01X35814Y2362200D01*
G01X632186Y2362200D01*
G01X634113Y2346330D01*
G01X639782Y2331382D01*
G01X648863Y2318226D01*
G01X660829Y2307625D01*
G01X674985Y2300195D01*
G01X690507Y2296369D01*
G01X706493Y2296369D01*
G01X722015Y2300195D01*
G01X736171Y2307625D01*
G01X748137Y2318226D01*
G01X757218Y2331382D01*
G01X762887Y2346330D01*
G01X764814Y2362200D01*
G01X762887Y2378070D01*
G01X757218Y2393018D01*
G01X752192Y2400300D01*
G01X975086Y2400300D01*
G01X977013Y2384430D01*
G01X982682Y2369482D01*
G01X991763Y2356326D01*
G01X1003729Y2345725D01*
G01X1017885Y2338295D01*
G01X1033407Y2334469D01*
G01X1049393Y2334469D01*
G01X1064915Y2338295D01*
G01X1079071Y2345725D01*
G01X1091037Y2356326D01*
G01X1100118Y2369482D01*
G01X1105787Y2384430D01*
G01X1107714Y2400300D01*
G01X1107238Y2404220D01*
G01X2033106Y2404220D01*
G01X2035033Y2388350D01*
G01X2040702Y2373402D01*
G01X2049783Y2360245D01*
G01X2061749Y2349644D01*
G01X2075905Y2342215D01*
G01X2091427Y2338389D01*
G01X2107413Y2338389D01*
G01X2122935Y2342215D01*
G01X2137091Y2349644D01*
G01X2149057Y2360245D01*
G01X2158138Y2373402D01*
G01X2163807Y2388350D01*
G01X2165734Y2404220D01*
G01X2163807Y2420090D01*
G01X2158138Y2435038D01*
G01X2149057Y2448194D01*
G01X2137091Y2458795D01*
G01X2122935Y2466225D01*
G01X2107413Y2470050D01*
G01X2091427Y2470050D01*
G01X2075905Y2466225D01*
G01X2061749Y2458795D01*
G01X2049783Y2448194D01*
G01X2040702Y2435038D01*
G01X2035033Y2420090D01*
G01X2033106Y2404220D01*
G01X2033106Y2404220D01*
G01X1107238Y2404220D01*
G01X1105787Y2416170D01*
G01X1100118Y2431118D01*
G01X1091037Y2444274D01*
G01X1079071Y2454875D01*
G01X1064915Y2462305D01*
G01X1049393Y2466131D01*
G01X1033407Y2466131D01*
G01X1017885Y2462305D01*
G01X1003729Y2454875D01*
G01X991763Y2444274D01*
G01X982682Y2431118D01*
G01X977013Y2416170D01*
G01X975086Y2400300D01*
G01X975086Y2400300D01*
G01X752192Y2400300D01*
G01X748137Y2406174D01*
G01X736171Y2416775D01*
G01X722015Y2424205D01*
G01X706493Y2428031D01*
G01X690507Y2428031D01*
G01X674985Y2424205D01*
G01X660829Y2416775D01*
G01X648863Y2406174D01*
G01X639782Y2393018D01*
G01X634113Y2378070D01*
G01X632186Y2362200D01*
G01X632186Y2362200D01*
G01X35814Y2362200D01*
G01X35814Y2603500D01*
G01X1190986Y2603500D01*
G01X1192913Y2587630D01*
G01X1198582Y2572682D01*
G01X1207663Y2559526D01*
G01X1219629Y2548925D01*
G01X1233785Y2541495D01*
G01X1249307Y2537669D01*
G01X1265293Y2537669D01*
G01X1280815Y2541495D01*
G01X1294971Y2548925D01*
G01X1306937Y2559526D01*
G01X1316018Y2572682D01*
G01X1321687Y2587630D01*
G01X1323614Y2603500D01*
G01X1321687Y2619370D01*
G01X1316018Y2634318D01*
G01X1306937Y2647474D01*
G01X1294971Y2658075D01*
G01X1280815Y2665505D01*
G01X1265293Y2669331D01*
G01X1249307Y2669331D01*
G01X1233785Y2665505D01*
G01X1219629Y2658075D01*
G01X1207663Y2647474D01*
G01X1198582Y2634318D01*
G01X1192913Y2619370D01*
G01X1190986Y2603500D01*
G01X1190986Y2603500D01*
G01X35814Y2603500D01*
G01X35814Y2764218D01*
G01X933216Y2764218D01*
G01X935143Y2748348D01*
G01X940812Y2733401D01*
G01X949893Y2720244D01*
G01X961859Y2709643D01*
G01X976015Y2702214D01*
G01X991537Y2698388D01*
G01X1007523Y2698388D01*
G01X1023045Y2702214D01*
G01X1037201Y2709643D01*
G01X1049167Y2720244D01*
G01X1058248Y2733401D01*
G01X1063917Y2748348D01*
G01X1065844Y2764218D01*
G01X1063917Y2780088D01*
G01X1058248Y2795036D01*
G01X1049167Y2808193D01*
G01X1037201Y2818794D01*
G01X1023045Y2826223D01*
G01X1007523Y2830049D01*
G01X991537Y2830049D01*
G01X976015Y2826223D01*
G01X961859Y2818794D01*
G01X949893Y2808193D01*
G01X940812Y2795036D01*
G01X935143Y2780088D01*
G01X933216Y2764218D01*
G01X933216Y2764218D01*
G01X35814Y2764218D01*
G01X35814Y3035300D01*
G01X479786Y3035300D01*
G01X481713Y3019430D01*
G01X487382Y3004482D01*
G01X496463Y2991326D01*
G01X508429Y2980725D01*
G01X522585Y2973295D01*
G01X538107Y2969469D01*
G01X554093Y2969469D01*
G01X569615Y2973295D01*
G01X583771Y2980725D01*
G01X595737Y2991326D01*
G01X604818Y3004482D01*
G01X610487Y3019430D01*
G01X612035Y3032175D01*
G01X1569817Y3032175D01*
G01X1570088Y3016787D01*
G01X1570088Y3016787D01*
G01X1573899Y3001875D01*
G01X1581045Y2988244D01*
G01X1591141Y2976627D01*
G01X1603643Y2967650D01*
G01X1617878Y2961797D01*
G01X1633078Y2959383D01*
G01X1648425Y2960538D01*
G01X1663093Y2965200D01*
G01X1676291Y2973118D01*
G01X1687309Y2983864D01*
G01X1695552Y2996861D01*
G01X1706941Y2986509D01*
G01X1720410Y2979062D01*
G01X1735233Y2974919D01*
G01X1750612Y2974306D01*
G01X1765717Y2977254D01*
G01X1779737Y2983604D01*
G01X1791915Y2993016D01*
G01X1801595Y3004981D01*
G01X1808257Y3018856D01*
G01X1811540Y3033892D01*
G01X1811269Y3049281D01*
G01X1807458Y3064192D01*
G01X1800312Y3077823D01*
G01X1790216Y3089440D01*
G01X1777714Y3098417D01*
G01X1763480Y3104270D01*
G01X1748279Y3106684D01*
G01X1732932Y3105529D01*
G01X1718264Y3100867D01*
G01X1705066Y3092950D01*
G01X1694049Y3082203D01*
G01X1685805Y3069206D01*
G01X1674416Y3079558D01*
G01X1660947Y3087006D01*
G01X1646124Y3091148D01*
G01X1630746Y3091762D01*
G01X1615640Y3088814D01*
G01X1601620Y3082463D01*
G01X1589443Y3073051D01*
G01X1579762Y3061086D01*
G01X1573101Y3047212D01*
G01X1569817Y3032175D01*
G01X612035Y3032175D01*
G01X612414Y3035300D01*
G01X610487Y3051170D01*
G01X604818Y3066118D01*
G01X595737Y3079274D01*
G01X583771Y3089875D01*
G01X569615Y3097305D01*
G01X554093Y3101131D01*
G01X538107Y3101131D01*
G01X522585Y3097305D01*
G01X508429Y3089875D01*
G01X496463Y3079274D01*
G01X487382Y3066118D01*
G01X481713Y3051170D01*
G01X479786Y3035300D01*
G01X479786Y3035300D01*
G01X35814Y3035300D01*
G01X35814Y3213100D01*
G01X187686Y3213100D01*
G01X189613Y3197230D01*
G01X195282Y3182282D01*
G01X204363Y3169126D01*
G01X216329Y3158525D01*
G01X230485Y3151095D01*
G01X246007Y3147269D01*
G01X261993Y3147269D01*
G01X277515Y3151095D01*
G01X291671Y3158525D01*
G01X303637Y3169126D01*
G01X312718Y3182282D01*
G01X318387Y3197230D01*
G01X320314Y3213100D01*
G01X318387Y3228970D01*
G01X312718Y3243918D01*
G01X303637Y3257074D01*
G01X291671Y3267675D01*
G01X277515Y3275105D01*
G01X261993Y3278931D01*
G01X246007Y3278931D01*
G01X230485Y3275105D01*
G01X216329Y3267675D01*
G01X204363Y3257074D01*
G01X195282Y3243918D01*
G01X189613Y3228970D01*
G01X187686Y3213100D01*
G01X187686Y3213100D01*
G01X35814Y3213100D01*
G01X35814Y3302000D01*
G01X479786Y3302000D01*
G01X481713Y3286130D01*
G01X487382Y3271182D01*
G01X496463Y3258026D01*
G01X508429Y3247425D01*
G01X522585Y3239995D01*
G01X538107Y3236169D01*
G01X554093Y3236169D01*
G01X569615Y3239995D01*
G01X583771Y3247425D01*
G01X595737Y3258026D01*
G01X604818Y3271182D01*
G01X610487Y3286130D01*
G01X612414Y3302000D01*
G01X610872Y3314700D01*
G01X1127486Y3314700D01*
G01X1129413Y3298830D01*
G01X1135082Y3283882D01*
G01X1144163Y3270726D01*
G01X1156129Y3260125D01*
G01X1170285Y3252695D01*
G01X1185807Y3248869D01*
G01X1201793Y3248869D01*
G01X1217315Y3252695D01*
G01X1231471Y3260125D01*
G01X1243437Y3270726D01*
G01X1252518Y3283882D01*
G01X1258187Y3298830D01*
G01X1260114Y3314700D01*
G01X1259939Y3316140D01*
G01X1702058Y3316140D01*
G01X1703985Y3300271D01*
G01X1709654Y3285323D01*
G01X1718736Y3272166D01*
G01X1730702Y3261565D01*
G01X1744857Y3254136D01*
G01X1760379Y3250310D01*
G01X1776366Y3250310D01*
G01X1791888Y3254136D01*
G01X1806043Y3261565D01*
G01X1818009Y3272166D01*
G01X1827091Y3285323D01*
G01X1832759Y3300271D01*
G01X1834686Y3316140D01*
G01X1832759Y3332010D01*
G01X1827091Y3346958D01*
G01X1818009Y3360115D01*
G01X1806043Y3370716D01*
G01X1791888Y3378145D01*
G01X1776366Y3381971D01*
G01X1760379Y3381971D01*
G01X1744857Y3378145D01*
G01X1730702Y3370716D01*
G01X1718736Y3360115D01*
G01X1709654Y3346958D01*
G01X1703985Y3332010D01*
G01X1702058Y3316140D01*
G01X1702058Y3316140D01*
G01X1259939Y3316140D01*
G01X1258187Y3330570D01*
G01X1252518Y3345518D01*
G01X1243437Y3358674D01*
G01X1231471Y3369275D01*
G01X1217315Y3376705D01*
G01X1201793Y3380531D01*
G01X1185807Y3380531D01*
G01X1170285Y3376705D01*
G01X1156129Y3369275D01*
G01X1144163Y3358674D01*
G01X1135082Y3345518D01*
G01X1129413Y3330570D01*
G01X1127486Y3314700D01*
G01X1127486Y3314700D01*
G01X610872Y3314700D01*
G01X610487Y3317870D01*
G01X604818Y3332818D01*
G01X595737Y3345974D01*
G01X583771Y3356575D01*
G01X569615Y3364005D01*
G01X554093Y3367831D01*
G01X538107Y3367831D01*
G01X522585Y3364005D01*
G01X508429Y3356575D01*
G01X496463Y3345974D01*
G01X487382Y3332818D01*
G01X481713Y3317870D01*
G01X479786Y3302000D01*
G01X479786Y3302000D01*
G01X35814Y3302000D01*
G01X35814Y3479800D01*
G01X225786Y3479800D01*
G01X227713Y3463930D01*
G01X233382Y3448982D01*
G01X242463Y3435826D01*
G01X254429Y3425225D01*
G01X268585Y3417795D01*
G01X284107Y3413969D01*
G01X300093Y3413969D01*
G01X315615Y3417795D01*
G01X329771Y3425225D01*
G01X341737Y3435826D01*
G01X345792Y3441700D01*
G01X962386Y3441700D01*
G01X964313Y3425830D01*
G01X969982Y3410882D01*
G01X979063Y3397726D01*
G01X991029Y3387125D01*
G01X1005185Y3379695D01*
G01X1020707Y3375869D01*
G01X1036693Y3375869D01*
G01X1052215Y3379695D01*
G01X1066371Y3387125D01*
G01X1078337Y3397726D01*
G01X1087418Y3410882D01*
G01X1093087Y3425830D01*
G01X1094004Y3433383D01*
G01X1388692Y3433383D01*
G01X1390618Y3417513D01*
G01X1396287Y3402566D01*
G01X1405369Y3389409D01*
G01X1417335Y3378808D01*
G01X1431490Y3371379D01*
G01X1447012Y3367553D01*
G01X1462999Y3367553D01*
G01X1478521Y3371379D01*
G01X1492676Y3378808D01*
G01X1504642Y3389409D01*
G01X1513724Y3402566D01*
G01X1519393Y3417513D01*
G01X1521320Y3433383D01*
G01X1519393Y3449253D01*
G01X1513724Y3464201D01*
G01X1504642Y3477358D01*
G01X1492676Y3487959D01*
G01X1488614Y3490091D01*
G01X2031552Y3490091D01*
G01X2033479Y3474221D01*
G01X2039148Y3459273D01*
G01X2048229Y3446116D01*
G01X2060195Y3435515D01*
G01X2074350Y3428086D01*
G01X2089872Y3424260D01*
G01X2105859Y3424260D01*
G01X2121381Y3428086D01*
G01X2135536Y3435515D01*
G01X2147503Y3446116D01*
G01X2156584Y3459273D01*
G01X2162253Y3474221D01*
G01X2164180Y3490091D01*
G01X2162253Y3505961D01*
G01X2156584Y3520908D01*
G01X2147503Y3534065D01*
G01X2135536Y3544666D01*
G01X2121381Y3552095D01*
G01X2105859Y3555921D01*
G01X2089872Y3555921D01*
G01X2074350Y3552095D01*
G01X2060195Y3544666D01*
G01X2048229Y3534065D01*
G01X2039148Y3520908D01*
G01X2033479Y3505961D01*
G01X2031552Y3490091D01*
G01X2031552Y3490091D01*
G01X1488614Y3490091D01*
G01X1478521Y3495388D01*
G01X1462999Y3499214D01*
G01X1447012Y3499214D01*
G01X1431490Y3495388D01*
G01X1417335Y3487959D01*
G01X1405369Y3477358D01*
G01X1396287Y3464201D01*
G01X1390618Y3449253D01*
G01X1388692Y3433383D01*
G01X1388692Y3433383D01*
G01X1094004Y3433383D01*
G01X1095014Y3441700D01*
G01X1093087Y3457570D01*
G01X1087418Y3472518D01*
G01X1078337Y3485674D01*
G01X1066371Y3496275D01*
G01X1052215Y3503705D01*
G01X1036693Y3507531D01*
G01X1020707Y3507531D01*
G01X1005185Y3503705D01*
G01X991029Y3496275D01*
G01X979063Y3485674D01*
G01X969982Y3472518D01*
G01X964313Y3457570D01*
G01X962386Y3441700D01*
G01X962386Y3441700D01*
G01X345792Y3441700D01*
G01X350818Y3448982D01*
G01X356487Y3463930D01*
G01X358414Y3479800D01*
G01X356487Y3495670D01*
G01X350818Y3510618D01*
G01X348064Y3514608D01*
G01X1229168Y3514608D01*
G01X1231639Y3499677D01*
G01X1237431Y3485695D01*
G01X1246242Y3473391D01*
G01X1257614Y3463404D01*
G01X1270954Y3456256D01*
G01X1285567Y3452319D01*
G01X1300692Y3451797D01*
G01X1315541Y3454719D01*
G01X1329341Y3460930D01*
G01X1341374Y3470109D01*
G01X1351012Y3481778D01*
G01X1357754Y3495327D01*
G01X1361248Y3510052D01*
G01X1361313Y3525186D01*
G01X1357944Y3539941D01*
G01X1368692Y3529286D01*
G01X1381576Y3521345D01*
G01X1395924Y3516533D01*
G01X1410990Y3515098D01*
G01X1425989Y3517118D01*
G01X1440139Y3522485D01*
G01X1452704Y3530920D01*
G01X1463029Y3541985D01*
G01X1470577Y3555103D01*
G01X1474954Y3569590D01*
G01X1475932Y3584692D01*
G01X1473461Y3599623D01*
G01X1472289Y3602452D01*
G01X2167182Y3602452D01*
G01X2169440Y3587698D01*
G01X2174942Y3573822D01*
G01X2183407Y3561528D01*
G01X2194408Y3551439D01*
G01X2207386Y3544066D01*
G01X2221685Y3539782D01*
G01X2236580Y3538805D01*
G01X2251316Y3541184D01*
G01X2265146Y3546799D01*
G01X2277370Y3555365D01*
G01X2287369Y3566448D01*
G01X2294636Y3579486D01*
G01X2298802Y3593820D01*
G01X2299657Y3608722D01*
G01X2297157Y3623438D01*
G01X2291430Y3637222D01*
G01X2282764Y3649375D01*
G01X2295127Y3657740D01*
G01X2305306Y3668658D01*
G01X2312785Y3681576D01*
G01X2317185Y3695839D01*
G01X2318284Y3710725D01*
G01X2316025Y3725480D01*
G01X2310524Y3739356D01*
G01X2302058Y3751650D01*
G01X2291058Y3761739D01*
G01X2278079Y3769112D01*
G01X2263780Y3773395D01*
G01X2248886Y3774372D01*
G01X2234150Y3771993D01*
G01X2220319Y3766378D01*
G01X2208095Y3757813D01*
G01X2198096Y3746730D01*
G01X2190830Y3733691D01*
G01X2186663Y3719358D01*
G01X2185808Y3704456D01*
G01X2188308Y3689740D01*
G01X2194036Y3675956D01*
G01X2202701Y3663802D01*
G01X2202701Y3663802D01*
G01X2190339Y3655437D01*
G01X2180160Y3644520D01*
G01X2172681Y3631602D01*
G01X2168280Y3617338D01*
G01X2167182Y3602452D01*
G01X1472289Y3602452D01*
G01X1467669Y3613605D01*
G01X1467669Y3613605D01*
G01X1458858Y3625909D01*
G01X1447486Y3635896D01*
G01X1434146Y3643044D01*
G01X1419533Y3646981D01*
G01X1404408Y3647503D01*
G01X1389559Y3644581D01*
G01X1375759Y3638370D01*
G01X1363726Y3629191D01*
G01X1354088Y3617522D01*
G01X1347346Y3603973D01*
G01X1343852Y3589248D01*
G01X1343787Y3574114D01*
G01X1347156Y3559359D01*
G01X1336408Y3570014D01*
G01X1323524Y3577955D01*
G01X1309176Y3582767D01*
G01X1294110Y3584202D01*
G01X1279111Y3582182D01*
G01X1264961Y3576815D01*
G01X1252396Y3568380D01*
G01X1242071Y3557315D01*
G01X1234523Y3544197D01*
G01X1230146Y3529710D01*
G01X1229168Y3514608D01*
G01X348064Y3514608D01*
G01X341737Y3523774D01*
G01X329771Y3534375D01*
G01X315615Y3541805D01*
G01X300093Y3545631D01*
G01X284107Y3545631D01*
G01X268585Y3541805D01*
G01X254429Y3534375D01*
G01X242463Y3523774D01*
G01X233382Y3510618D01*
G01X227713Y3495670D01*
G01X225786Y3479800D01*
G01X225786Y3479800D01*
G01X35814Y3479800D01*
G01X35814Y3619500D01*
G01X1091032Y3619500D01*
G01X1092959Y3603630D01*
G01X1098628Y3588682D01*
G01X1107709Y3575526D01*
G01X1119675Y3564925D01*
G01X1133831Y3557495D01*
G01X1149353Y3553669D01*
G01X1165339Y3553669D01*
G01X1180861Y3557495D01*
G01X1195017Y3564925D01*
G01X1206983Y3575526D01*
G01X1216064Y3588682D01*
G01X1221733Y3603630D01*
G01X1223660Y3619500D01*
G01X1221733Y3635370D01*
G01X1216064Y3650318D01*
G01X1206983Y3663474D01*
G01X1195017Y3674075D01*
G01X1180861Y3681505D01*
G01X1165339Y3685331D01*
G01X1149353Y3685331D01*
G01X1133831Y3681505D01*
G01X1119675Y3674075D01*
G01X1107709Y3663474D01*
G01X1098628Y3650318D01*
G01X1092959Y3635370D01*
G01X1091032Y3619500D01*
G01X1091032Y3619500D01*
G01X35814Y3619500D01*
G01X35814Y3687571D01*
G01X416286Y3687571D01*
G01X418213Y3671701D01*
G01X423882Y3656753D01*
G01X432963Y3643597D01*
G01X444929Y3632996D01*
G01X459085Y3625566D01*
G01X474607Y3621740D01*
G01X490593Y3621740D01*
G01X506115Y3625566D01*
G01X520271Y3632996D01*
G01X532237Y3643597D01*
G01X541318Y3656753D01*
G01X546987Y3671701D01*
G01X548914Y3687571D01*
G01X546987Y3703441D01*
G01X541318Y3718389D01*
G01X532237Y3731545D01*
G01X529692Y3733800D01*
G01X644886Y3733800D01*
G01X646813Y3717930D01*
G01X652482Y3702982D01*
G01X661563Y3689826D01*
G01X673529Y3679225D01*
G01X687685Y3671795D01*
G01X703207Y3667969D01*
G01X719193Y3667969D01*
G01X734715Y3671795D01*
G01X748871Y3679225D01*
G01X760837Y3689826D01*
G01X769918Y3702982D01*
G01X775587Y3717930D01*
G01X777514Y3733800D01*
G01X861648Y3733800D01*
G01X863575Y3717930D01*
G01X869244Y3702982D01*
G01X878326Y3689826D01*
G01X890292Y3679225D01*
G01X904447Y3671795D01*
G01X919969Y3667969D01*
G01X935956Y3667969D01*
G01X951478Y3671795D01*
G01X965633Y3679225D01*
G01X977599Y3689826D01*
G01X986681Y3702982D01*
G01X992350Y3717930D01*
G01X994276Y3733800D01*
G01X992350Y3749670D01*
G01X986681Y3764618D01*
G01X984543Y3767715D01*
G01X1610162Y3767715D01*
G01X1612089Y3751845D01*
G01X1617758Y3736897D01*
G01X1626839Y3723741D01*
G01X1638805Y3713140D01*
G01X1652961Y3705710D01*
G01X1668483Y3701884D01*
G01X1684469Y3701884D01*
G01X1699991Y3705710D01*
G01X1714147Y3713140D01*
G01X1726113Y3723741D01*
G01X1735194Y3736897D01*
G01X1740863Y3751845D01*
G01X1742790Y3767715D01*
G01X1740863Y3783585D01*
G01X1735194Y3798533D01*
G01X1726113Y3811689D01*
G01X1714147Y3822290D01*
G01X1699991Y3829720D01*
G01X1684469Y3833546D01*
G01X1668483Y3833546D01*
G01X1652961Y3829720D01*
G01X1638805Y3822290D01*
G01X1626839Y3811689D01*
G01X1617758Y3798533D01*
G01X1612089Y3783585D01*
G01X1610162Y3767715D01*
G01X1610162Y3767715D01*
G01X984543Y3767715D01*
G01X977599Y3777774D01*
G01X965633Y3788375D01*
G01X951478Y3795805D01*
G01X935956Y3799631D01*
G01X919969Y3799631D01*
G01X904447Y3795805D01*
G01X890292Y3788375D01*
G01X878326Y3777774D01*
G01X869244Y3764618D01*
G01X863575Y3749670D01*
G01X861648Y3733800D01*
G01X861648Y3733800D01*
G01X777514Y3733800D01*
G01X775587Y3749670D01*
G01X769918Y3764618D01*
G01X760837Y3777774D01*
G01X748871Y3788375D01*
G01X734715Y3795805D01*
G01X719193Y3799631D01*
G01X703207Y3799631D01*
G01X687685Y3795805D01*
G01X673529Y3788375D01*
G01X661563Y3777774D01*
G01X652482Y3764618D01*
G01X646813Y3749670D01*
G01X644886Y3733800D01*
G01X644886Y3733800D01*
G01X529692Y3733800D01*
G01X520271Y3742146D01*
G01X506115Y3749576D01*
G01X490593Y3753402D01*
G01X474607Y3753402D01*
G01X459085Y3749576D01*
G01X444929Y3742146D01*
G01X432963Y3731545D01*
G01X423882Y3718389D01*
G01X418213Y3703441D01*
G01X416286Y3687571D01*
G01X416286Y3687571D01*
G01X35814Y3687571D01*
G01X35814Y4063990D01*
G01X46804Y4051856D01*
G01X60432Y4042784D01*
G01X75868Y4037328D01*
G01X92169Y4035819D01*
G01X108344Y4038350D01*
G01X123405Y4044766D01*
G01X136436Y4054677D01*
G01X146642Y4067478D01*
G01X156289Y4055229D01*
G01X168529Y4045571D01*
G01X182686Y4039039D01*
G01X197977Y4035992D01*
G01X213557Y4036600D01*
G01X228564Y4040828D01*
G01X242169Y4048444D01*
G01X253620Y4059026D01*
G01X262284Y4071989D01*
G01X267681Y4086617D01*
G01X269514Y4102100D01*
G01X267681Y4117583D01*
G01X262284Y4132211D01*
G01X253620Y4145174D01*
G01X242169Y4155756D01*
G01X228564Y4163372D01*
G01X213557Y4167600D01*
G01X197977Y4168208D01*
G01X182686Y4165161D01*
G01X168529Y4158629D01*
G01X156289Y4148971D01*
G01X146642Y4136722D01*
G01X136436Y4149523D01*
G01X123405Y4159434D01*
G01X108344Y4165850D01*
G01X92169Y4168381D01*
G01X75868Y4166872D01*
G01X60432Y4161416D01*
G01X46804Y4152344D01*
G01X35814Y4140210D01*
G37*
G36*
G01X35814Y1678042D02*
G01X35814Y1704886D01*
G01X2100916Y1704886D01*
G01X1937915Y1541885D01*
G01X1930302Y1532609D01*
G01X1924646Y1522026D01*
G01X1921162Y1510542D01*
G01X1919986Y1498600D01*
G01X1919986Y1472417D01*
G01X1919843Y1468858D01*
G01X1919516Y1465805D01*
G01X1918036Y1457224D01*
G01X1916685Y1450441D01*
G01X1914886Y1435189D01*
G01X1916644Y1419932D01*
G01X1921864Y1405489D01*
G01X1930267Y1392633D01*
G01X1941402Y1382056D01*
G01X1954671Y1374323D01*
G01X1969364Y1369851D01*
G01X1969364Y1369851D01*
G01X1984691Y1368878D01*
G01X1999831Y1371457D01*
G01X2013971Y1377449D01*
G01X2026354Y1386534D01*
G01X2036315Y1398224D01*
G01X2043320Y1411891D01*
G01X2046993Y1426803D01*
G01X2050744Y1430774D01*
G01X2082032Y1462062D01*
G01X2091386Y1474101D01*
G01X2097475Y1488078D01*
G01X2099920Y1503127D01*
G01X2102806Y1517835D01*
G01X2108125Y1531848D01*
G01X2115726Y1544767D01*
G01X2125392Y1556222D01*
G01X2328483Y1759314D01*
G01X2660543Y1759314D01*
G01X2669813Y1760534D01*
G01X2678450Y1764112D01*
G01X2685868Y1769803D01*
G01X2772474Y1856410D01*
G01X2778165Y1863827D01*
G01X2781743Y1872465D01*
G01X2782963Y1881734D01*
G01X2782963Y1908994D01*
G01X2842470Y1968500D01*
G01X3083286Y1968500D01*
G01X3085213Y1952630D01*
G01X3090882Y1937682D01*
G01X3099963Y1924526D01*
G01X3111929Y1913925D01*
G01X3126085Y1906495D01*
G01X3141607Y1902669D01*
G01X3157593Y1902669D01*
G01X3173115Y1906495D01*
G01X3187271Y1913925D01*
G01X3199237Y1924526D01*
G01X3208318Y1937682D01*
G01X3213987Y1952630D01*
G01X3215914Y1968500D01*
G01X3213987Y1984370D01*
G01X3208318Y1999318D01*
G01X3199237Y2012474D01*
G01X3187271Y2023075D01*
G01X3173115Y2030505D01*
G01X3157593Y2034331D01*
G01X3141607Y2034331D01*
G01X3126085Y2030505D01*
G01X3111929Y2023075D01*
G01X3099963Y2012474D01*
G01X3090882Y1999318D01*
G01X3085213Y1984370D01*
G01X3083286Y1968500D01*
G01X3083286Y1968500D01*
G01X2842470Y1968500D01*
G01X2913485Y2039515D01*
G01X2921098Y2048791D01*
G01X2926754Y2059374D01*
G01X2930238Y2070858D01*
G01X2931414Y2082800D01*
G01X2931414Y2690919D01*
G01X2937495Y2683495D01*
G01X3278886Y2342105D01*
G01X3278886Y1204063D01*
G01X3263824Y1219124D01*
G01X3256407Y1224816D01*
G01X3247769Y1228394D01*
G01X3238500Y1229614D01*
G01X3187581Y1229614D01*
G01X3178311Y1228394D01*
G01X3169674Y1224816D01*
G01X3162256Y1219124D01*
G01X3149184Y1206052D01*
G01X3118136Y1206052D01*
G01X3114013Y1221199D01*
G01X3106445Y1234953D01*
G01X3095857Y1246543D01*
G01X3082840Y1255319D01*
G01X3068126Y1260789D01*
G01X3052538Y1262647D01*
G01X3036949Y1260789D01*
G01X3022235Y1255319D01*
G01X3009219Y1246543D01*
G01X2998630Y1234953D01*
G01X2991062Y1221199D01*
G01X2986940Y1206052D01*
G01X2656877Y1206052D01*
G01X2648106Y1216116D01*
G01X2637497Y1224220D01*
G01X2637497Y1224220D01*
G01X2657451Y1240251D01*
G01X2675550Y1258350D01*
G01X2691580Y1278304D01*
G01X2691580Y1278304D01*
G01X2701655Y1265681D01*
G01X2714482Y1255867D01*
G01X2729301Y1249445D01*
G01X2745233Y1246796D01*
G01X2761333Y1248077D01*
G01X2776646Y1253212D01*
G01X2790263Y1261896D01*
G01X2801377Y1273615D01*
G01X2809329Y1287673D01*
G01X2813647Y1303236D01*
G01X2814074Y1319381D01*
G01X2810586Y1335150D01*
G01X2803389Y1349609D01*
G01X2792910Y1361899D01*
G01X2779771Y1371292D01*
G01X2764752Y1377229D01*
G01X2748742Y1379360D01*
G01X2732692Y1377558D01*
G01X2735032Y1396616D01*
G01X2735814Y1415801D01*
G01X2735814Y1415801D01*
G01X2735032Y1434986D01*
G01X2732692Y1454044D01*
G01X2748742Y1452241D01*
G01X2764752Y1454372D01*
G01X2779771Y1460310D01*
G01X2780037Y1460500D01*
G01X2892786Y1460500D01*
G01X2894713Y1444630D01*
G01X2900382Y1429682D01*
G01X2909463Y1416526D01*
G01X2921429Y1405925D01*
G01X2935585Y1398495D01*
G01X2951107Y1394669D01*
G01X2967093Y1394669D01*
G01X2982615Y1398495D01*
G01X2996771Y1405925D01*
G01X3008737Y1416526D01*
G01X3017818Y1429682D01*
G01X3023487Y1444630D01*
G01X3025414Y1460500D01*
G01X3023487Y1476370D01*
G01X3017818Y1491318D01*
G01X3008737Y1504474D01*
G01X2996771Y1515075D01*
G01X2982615Y1522505D01*
G01X2967093Y1526331D01*
G01X2951107Y1526331D01*
G01X2935585Y1522505D01*
G01X2921429Y1515075D01*
G01X2909463Y1504474D01*
G01X2900382Y1491318D01*
G01X2894713Y1476370D01*
G01X2892786Y1460500D01*
G01X2892786Y1460500D01*
G01X2780037Y1460500D01*
G01X2792910Y1469703D01*
G01X2803389Y1481993D01*
G01X2810585Y1496451D01*
G01X2814074Y1512221D01*
G01X2813646Y1528366D01*
G01X2809329Y1543929D01*
G01X2801377Y1557987D01*
G01X2790263Y1569705D01*
G01X2776645Y1578390D01*
G01X2761333Y1583524D01*
G01X2745233Y1584805D01*
G01X2729301Y1582156D01*
G01X2714481Y1575734D01*
G01X2701654Y1565920D01*
G01X2691580Y1553297D01*
G01X2675549Y1573251D01*
G01X2657450Y1591350D01*
G01X2637496Y1607381D01*
G01X2637496Y1607381D01*
G01X2650119Y1617455D01*
G01X2659933Y1630282D01*
G01X2666355Y1645102D01*
G01X2669004Y1661034D01*
G01X2668792Y1663700D01*
G01X3045186Y1663700D01*
G01X3047113Y1647830D01*
G01X3052782Y1632882D01*
G01X3061863Y1619726D01*
G01X3073829Y1609125D01*
G01X3087985Y1601695D01*
G01X3103507Y1597869D01*
G01X3119493Y1597869D01*
G01X3135015Y1601695D01*
G01X3149171Y1609125D01*
G01X3161137Y1619726D01*
G01X3170218Y1632882D01*
G01X3175887Y1647830D01*
G01X3177814Y1663700D01*
G01X3175887Y1679570D01*
G01X3170218Y1694518D01*
G01X3161137Y1707674D01*
G01X3149171Y1718275D01*
G01X3135015Y1725705D01*
G01X3119493Y1729531D01*
G01X3103507Y1729531D01*
G01X3087985Y1725705D01*
G01X3073829Y1718275D01*
G01X3061863Y1707674D01*
G01X3052782Y1694518D01*
G01X3047113Y1679570D01*
G01X3045186Y1663700D01*
G01X3045186Y1663700D01*
G01X2668792Y1663700D01*
G01X2667723Y1677133D01*
G01X2662588Y1692446D01*
G01X2653904Y1706063D01*
G01X2642185Y1717178D01*
G01X2628127Y1725129D01*
G01X2612564Y1729447D01*
G01X2596419Y1729874D01*
G01X2580650Y1726386D01*
G01X2566191Y1719189D01*
G01X2553901Y1708710D01*
G01X2544508Y1695572D01*
G01X2538571Y1680552D01*
G01X2536440Y1664542D01*
G01X2538242Y1648492D01*
G01X2538242Y1648492D01*
G01X2512797Y1651267D01*
G01X2487201Y1651266D01*
G01X2461756Y1648492D01*
G01X2461756Y1648492D01*
G01X2463559Y1664542D01*
G01X2461428Y1680552D01*
G01X2455490Y1695571D01*
G01X2446097Y1708710D01*
G01X2433807Y1719189D01*
G01X2419349Y1726386D01*
G01X2403579Y1729874D01*
G01X2387434Y1729446D01*
G01X2371871Y1725129D01*
G01X2357813Y1717177D01*
G01X2346095Y1706063D01*
G01X2337410Y1692446D01*
G01X2332276Y1677133D01*
G01X2330995Y1661033D01*
G01X2333644Y1645101D01*
G01X2340066Y1630282D01*
G01X2349879Y1617454D01*
G01X2362503Y1607380D01*
G01X2362503Y1607380D01*
G01X2342549Y1591349D01*
G01X2324450Y1573250D01*
G01X2308419Y1553296D01*
G01X2308419Y1553296D01*
G01X2298345Y1565920D01*
G01X2285518Y1575733D01*
G01X2270698Y1582155D01*
G01X2254766Y1584804D01*
G01X2238666Y1583523D01*
G01X2223354Y1578388D01*
G01X2209736Y1569704D01*
G01X2198622Y1557985D01*
G01X2190671Y1543928D01*
G01X2186353Y1528365D01*
G01X2185926Y1512219D01*
G01X2189414Y1496450D01*
G01X2196611Y1481991D01*
G01X2207089Y1469701D01*
G01X2220228Y1460309D01*
G01X2235248Y1454371D01*
G01X2251258Y1452240D01*
G01X2267307Y1454042D01*
G01X2267307Y1454042D01*
G01X2264533Y1428597D01*
G01X2264533Y1403002D01*
G01X2267308Y1377556D01*
G01X2267308Y1377556D01*
G01X2251258Y1379359D01*
G01X2235248Y1377228D01*
G01X2220228Y1371290D01*
G01X2207090Y1361898D01*
G01X2196611Y1349607D01*
G01X2189414Y1335149D01*
G01X2185926Y1319379D01*
G01X2186353Y1303234D01*
G01X2190671Y1287671D01*
G01X2198623Y1273613D01*
G01X2209737Y1261895D01*
G01X2223354Y1253211D01*
G01X2238667Y1248076D01*
G01X2254767Y1246795D01*
G01X2270699Y1249444D01*
G01X2285518Y1255866D01*
G01X2298345Y1265680D01*
G01X2308420Y1278303D01*
G01X2308420Y1278303D01*
G01X2324451Y1258349D01*
G01X2342550Y1240250D01*
G01X2362504Y1224220D01*
G01X2362504Y1224220D01*
G01X2351895Y1216116D01*
G01X2343125Y1206052D01*
G01X1932238Y1206052D01*
G01X1922969Y1204832D01*
G01X1914331Y1201254D01*
G01X1906914Y1195562D01*
G01X1803476Y1092124D01*
G01X1797784Y1084707D01*
G01X1794206Y1076069D01*
G01X1792986Y1066800D01*
G01X1792986Y950214D01*
G01X1772695Y950214D01*
G01X1516409Y1206500D01*
G01X1711686Y1206500D01*
G01X1713613Y1190630D01*
G01X1719282Y1175682D01*
G01X1728363Y1162526D01*
G01X1740329Y1151925D01*
G01X1754485Y1144495D01*
G01X1770007Y1140669D01*
G01X1785993Y1140669D01*
G01X1801515Y1144495D01*
G01X1815671Y1151925D01*
G01X1827637Y1162526D01*
G01X1836718Y1175682D01*
G01X1842387Y1190630D01*
G01X1844314Y1206500D01*
G01X1842387Y1222370D01*
G01X1836718Y1237318D01*
G01X1827637Y1250474D01*
G01X1815671Y1261075D01*
G01X1801515Y1268505D01*
G01X1785993Y1272331D01*
G01X1770007Y1272331D01*
G01X1754485Y1268505D01*
G01X1740329Y1261075D01*
G01X1728363Y1250474D01*
G01X1719282Y1237318D01*
G01X1713613Y1222370D01*
G01X1711686Y1206500D01*
G01X1711686Y1206500D01*
G01X1516409Y1206500D01*
G01X1402109Y1320800D01*
G01X1991086Y1320800D01*
G01X1993013Y1304930D01*
G01X1998682Y1289982D01*
G01X2007763Y1276826D01*
G01X2019729Y1266225D01*
G01X2033885Y1258795D01*
G01X2049407Y1254969D01*
G01X2065393Y1254969D01*
G01X2080915Y1258795D01*
G01X2095071Y1266225D01*
G01X2107037Y1276826D01*
G01X2116118Y1289982D01*
G01X2121787Y1304930D01*
G01X2123714Y1320800D01*
G01X2121787Y1336670D01*
G01X2116118Y1351618D01*
G01X2107037Y1364774D01*
G01X2095071Y1375375D01*
G01X2080915Y1382805D01*
G01X2065393Y1386631D01*
G01X2049407Y1386631D01*
G01X2033885Y1382805D01*
G01X2019729Y1375375D01*
G01X2007763Y1364774D01*
G01X1998682Y1351618D01*
G01X1993013Y1336670D01*
G01X1991086Y1320800D01*
G01X1991086Y1320800D01*
G01X1402109Y1320800D01*
G01X1291605Y1431305D01*
G01X1288137Y1433965D01*
G01X1637328Y1433965D01*
G01X1639255Y1418095D01*
G01X1644924Y1403147D01*
G01X1654005Y1389991D01*
G01X1665971Y1379390D01*
G01X1680126Y1371960D01*
G01X1695648Y1368135D01*
G01X1711635Y1368135D01*
G01X1727157Y1371960D01*
G01X1741312Y1379390D01*
G01X1753279Y1389991D01*
G01X1762360Y1403147D01*
G01X1768029Y1418095D01*
G01X1769956Y1433965D01*
G01X1768029Y1449835D01*
G01X1762360Y1464783D01*
G01X1753279Y1477939D01*
G01X1741312Y1488541D01*
G01X1727157Y1495970D01*
G01X1711635Y1499796D01*
G01X1695648Y1499796D01*
G01X1680126Y1495970D01*
G01X1665971Y1488541D01*
G01X1654005Y1477939D01*
G01X1644924Y1464783D01*
G01X1639255Y1449835D01*
G01X1637328Y1433965D01*
G01X1637328Y1433965D01*
G01X1288137Y1433965D01*
G01X1281557Y1439014D01*
G01X1269856Y1443861D01*
G01X1257300Y1445514D01*
G01X840013Y1445514D01*
G01X847529Y1457858D01*
G01X852192Y1471536D01*
G01X853781Y1485900D01*
G01X852220Y1500268D01*
G01X847585Y1513956D01*
G01X840094Y1526314D01*
G01X830104Y1536757D01*
G01X818089Y1544787D01*
G01X804619Y1550024D01*
G01X790335Y1552219D01*
G01X775915Y1551267D01*
G01X762043Y1547214D01*
G01X749379Y1540252D01*
G01X738524Y1530712D01*
G01X729993Y1519047D01*
G01X724191Y1505811D01*
G01X723669Y1521248D01*
G01X719589Y1536145D01*
G01X712174Y1549694D01*
G01X701825Y1561161D01*
G01X689105Y1569922D01*
G01X674702Y1575503D01*
G01X659400Y1577601D01*
G01X644027Y1576102D01*
G01X629418Y1571088D01*
G01X616365Y1562830D01*
G01X605576Y1551776D01*
G01X597638Y1538527D01*
G01X592979Y1523800D01*
G01X591854Y1508395D01*
G01X594324Y1493148D01*
G01X600253Y1478885D01*
G01X609321Y1466382D01*
G01X621035Y1456315D01*
G01X634761Y1449231D01*
G01X649753Y1445514D01*
G01X440152Y1445514D01*
G01X455051Y1449196D01*
G01X468704Y1456203D01*
G01X480381Y1466162D01*
G01X489456Y1478538D01*
G01X495443Y1492669D01*
G01X498022Y1507798D01*
G01X497053Y1523114D01*
G01X492590Y1537798D01*
G01X484871Y1551062D01*
G01X474309Y1562197D01*
G01X461471Y1570606D01*
G01X447044Y1575838D01*
G01X431800Y1577614D01*
G01X416556Y1575838D01*
G01X402129Y1570606D01*
G01X389291Y1562197D01*
G01X378729Y1551062D01*
G01X371010Y1537798D01*
G01X366547Y1523114D01*
G01X365578Y1507798D01*
G01X368157Y1492669D01*
G01X374144Y1478538D01*
G01X383219Y1466162D01*
G01X394896Y1456203D01*
G01X408549Y1449196D01*
G01X423448Y1445514D01*
G01X266700Y1445514D01*
G01X254144Y1443861D01*
G01X242443Y1439014D01*
G01X232395Y1431305D01*
G01X176132Y1375041D01*
G01X174409Y1374542D01*
G01X171762Y1374139D01*
G01X157292Y1371163D01*
G01X143839Y1365058D01*
G01X132072Y1356126D01*
G01X122574Y1344811D01*
G01X115817Y1331674D01*
G01X112137Y1317366D01*
G01X111714Y1302599D01*
G01X114572Y1288105D01*
G01X120568Y1274604D01*
G01X129403Y1262764D01*
G01X140641Y1253175D01*
G01X153723Y1246311D01*
G01X168000Y1242514D01*
G01X182763Y1241972D01*
G01X118095Y1177305D01*
G01X110386Y1167257D01*
G01X105539Y1155556D01*
G01X103886Y1143000D01*
G01X103886Y312855D01*
G01X103021Y311284D01*
G01X101434Y309127D01*
G01X93208Y296598D01*
G01X88006Y282541D01*
G01X86093Y267676D01*
G01X87568Y252760D01*
G01X92354Y238557D01*
G01X100208Y225791D01*
G01X110728Y215115D01*
G01X123376Y207075D01*
G01X137508Y202080D01*
G01X152400Y200386D01*
G01X167292Y202080D01*
G01X181424Y207075D01*
G01X194072Y215115D01*
G01X204592Y225791D01*
G01X212446Y238557D01*
G01X217232Y252760D01*
G01X218707Y267676D01*
G01X216794Y282541D01*
G01X211592Y296598D01*
G01X203366Y309127D01*
G01X201779Y311284D01*
G01X200914Y312855D01*
G01X200914Y1122905D01*
G01X350295Y1272286D01*
G01X1176091Y1272286D01*
G01X1632977Y815400D01*
G01X1632977Y815400D01*
G01X1618283Y812521D01*
G01X1604609Y806418D01*
G01X1592654Y797404D01*
G01X1583025Y785937D01*
G01X1576215Y772602D01*
G01X1572570Y758079D01*
G01X1572276Y743108D01*
G01X1575348Y728453D01*
G01X1581630Y714861D01*
G01X1590801Y703025D01*
G01X1602393Y693548D01*
G01X1602393Y693548D01*
G01X1615817Y686914D01*
G01X1630386Y683460D01*
G01X1645359Y683363D01*
G01X1659972Y686627D01*
G01X1673481Y693087D01*
G01X1685195Y702413D01*
G01X1694519Y714129D01*
G01X1700976Y727639D01*
G01X1704239Y742252D01*
G01X1704139Y757226D01*
G01X1700682Y771795D01*
G01X1952467Y771795D01*
G01X1973160Y751102D01*
G01X1973160Y751102D01*
G01X1955567Y754978D01*
G01X1937553Y755096D01*
G01X1919911Y751451D01*
G01X1903419Y744203D01*
G01X1888803Y733671D01*
G01X1876708Y720321D01*
G01X1867667Y704740D01*
G01X1862078Y687614D01*
G01X1860187Y669699D01*
G01X1860187Y589699D01*
G01X1862196Y571237D01*
G01X1868130Y553640D01*
G01X1877711Y537732D01*
G01X1890490Y524257D01*
G01X1905869Y513848D01*
G01X1923127Y506990D01*
G01X1941456Y504006D01*
G01X1959998Y505035D01*
G01X1977885Y510028D01*
G01X1994278Y518753D01*
G01X1994278Y355645D01*
G01X1978905Y363955D01*
G01X1962166Y368977D01*
G01X1944757Y370505D01*
G01X1927400Y368473D01*
G01X1910814Y362968D01*
G01X1910814Y400000D01*
G01X1909061Y411067D01*
G01X1903974Y421051D01*
G01X1896051Y428974D01*
G01X1886067Y434061D01*
G01X1875000Y435814D01*
G01X1625000Y435814D01*
G01X1613933Y434061D01*
G01X1603949Y428974D01*
G01X1596026Y421051D01*
G01X1590939Y411067D01*
G01X1589186Y400000D01*
G01X1589186Y35814D01*
G01X1002514Y35814D01*
G01X1002514Y139700D01*
G01X1063986Y139700D01*
G01X1065913Y123830D01*
G01X1071582Y108882D01*
G01X1080663Y95726D01*
G01X1092629Y85125D01*
G01X1106785Y77695D01*
G01X1122307Y73869D01*
G01X1138293Y73869D01*
G01X1153815Y77695D01*
G01X1167971Y85125D01*
G01X1179937Y95726D01*
G01X1189018Y108882D01*
G01X1194687Y123830D01*
G01X1196614Y139700D01*
G01X1194687Y155570D01*
G01X1189018Y170518D01*
G01X1179937Y183674D01*
G01X1167971Y194275D01*
G01X1153815Y201705D01*
G01X1138293Y205531D01*
G01X1122307Y205531D01*
G01X1106785Y201705D01*
G01X1092629Y194275D01*
G01X1080663Y183674D01*
G01X1071582Y170518D01*
G01X1065913Y155570D01*
G01X1063986Y139700D01*
G01X1063986Y139700D01*
G01X1002514Y139700D01*
G01X1002514Y254000D01*
G01X1279886Y254000D01*
G01X1281813Y238130D01*
G01X1287482Y223182D01*
G01X1296563Y210026D01*
G01X1308529Y199425D01*
G01X1322685Y191995D01*
G01X1338207Y188169D01*
G01X1354193Y188169D01*
G01X1369715Y191995D01*
G01X1383871Y199425D01*
G01X1395837Y210026D01*
G01X1404918Y223182D01*
G01X1410587Y238130D01*
G01X1412514Y254000D01*
G01X1410587Y269870D01*
G01X1404918Y284818D01*
G01X1395837Y297974D01*
G01X1383871Y308575D01*
G01X1369715Y316005D01*
G01X1354193Y319831D01*
G01X1338207Y319831D01*
G01X1322685Y316005D01*
G01X1308529Y308575D01*
G01X1296563Y297974D01*
G01X1287482Y284818D01*
G01X1281813Y269870D01*
G01X1279886Y254000D01*
G01X1279886Y254000D01*
G01X1002514Y254000D01*
G01X1002514Y473085D01*
G01X1042900Y473085D01*
G01X1053967Y474838D01*
G01X1063951Y479925D01*
G01X1071874Y487848D01*
G01X1076961Y497832D01*
G01X1078714Y508899D01*
G01X1078714Y546100D01*
G01X1178286Y546100D01*
G01X1180213Y530230D01*
G01X1185882Y515282D01*
G01X1194963Y502126D01*
G01X1206929Y491525D01*
G01X1221085Y484095D01*
G01X1236607Y480269D01*
G01X1252593Y480269D01*
G01X1268115Y484095D01*
G01X1282271Y491525D01*
G01X1294237Y502126D01*
G01X1303318Y515282D01*
G01X1308987Y530230D01*
G01X1310914Y546100D01*
G01X1308987Y561970D01*
G01X1303318Y576918D01*
G01X1294237Y590074D01*
G01X1282271Y600675D01*
G01X1268115Y608105D01*
G01X1262049Y609600D01*
G01X1571986Y609600D01*
G01X1573913Y593730D01*
G01X1579582Y578782D01*
G01X1588663Y565626D01*
G01X1600629Y555025D01*
G01X1614785Y547595D01*
G01X1630307Y543769D01*
G01X1646293Y543769D01*
G01X1661815Y547595D01*
G01X1675971Y555025D01*
G01X1687937Y565626D01*
G01X1697018Y578782D01*
G01X1702687Y593730D01*
G01X1704614Y609600D01*
G01X1702687Y625470D01*
G01X1697018Y640418D01*
G01X1687937Y653574D01*
G01X1675971Y664175D01*
G01X1661815Y671605D01*
G01X1646293Y675431D01*
G01X1630307Y675431D01*
G01X1614785Y671605D01*
G01X1600629Y664175D01*
G01X1588663Y653574D01*
G01X1579582Y640418D01*
G01X1573913Y625470D01*
G01X1571986Y609600D01*
G01X1571986Y609600D01*
G01X1262049Y609600D01*
G01X1252593Y611931D01*
G01X1236607Y611931D01*
G01X1221085Y608105D01*
G01X1206929Y600675D01*
G01X1194963Y590074D01*
G01X1185882Y576918D01*
G01X1180213Y561970D01*
G01X1178286Y546100D01*
G01X1178286Y546100D01*
G01X1078714Y546100D01*
G01X1078714Y648599D01*
G01X1076961Y659666D01*
G01X1071874Y669650D01*
G01X1063951Y677573D01*
G01X1053967Y682660D01*
G01X1042900Y684413D01*
G01X1002584Y684413D01*
G01X1002584Y1026270D01*
G01X1002616Y1199938D01*
G01X1000859Y1211023D01*
G01X995758Y1221019D01*
G01X987814Y1228947D01*
G01X977805Y1234026D01*
G01X966717Y1235758D01*
G01X433402Y1235758D01*
G01X422335Y1234005D01*
G01X412351Y1228918D01*
G01X404428Y1220995D01*
G01X399341Y1211011D01*
G01X397588Y1199944D01*
G01X397588Y938324D01*
G01X357202Y938324D01*
G01X346135Y936571D01*
G01X336151Y931484D01*
G01X328228Y923561D01*
G01X323141Y913577D01*
G01X321388Y902510D01*
G01X321388Y775510D01*
G01X323141Y764443D01*
G01X328228Y754459D01*
G01X336151Y746536D01*
G01X346135Y741449D01*
G01X357202Y739696D01*
G01X397588Y739696D01*
G01X397588Y35814D01*
G01X300000Y35814D01*
G01X268156Y37740D01*
G01X236776Y43491D01*
G01X206318Y52982D01*
G01X177227Y66075D01*
G01X149925Y82579D01*
G01X124812Y102254D01*
G01X102254Y124812D01*
G01X82579Y149925D01*
G01X66075Y177227D01*
G01X52982Y206318D01*
G01X43491Y236776D01*
G01X37740Y268156D01*
G01X35814Y300000D01*
G01X35814Y1598558D01*
G01X46129Y1587623D01*
G01X58642Y1579291D01*
G01X72710Y1573993D01*
G01X87610Y1571998D01*
G01X102576Y1573412D01*
G01X116840Y1578159D01*
G01X129667Y1585997D01*
G01X140400Y1596523D01*
G01X148486Y1609196D01*
G01X153510Y1623364D01*
G01X153765Y1625600D01*
G01X1838686Y1625600D01*
G01X1840613Y1609730D01*
G01X1846282Y1594782D01*
G01X1855363Y1581626D01*
G01X1867329Y1571025D01*
G01X1881485Y1563595D01*
G01X1897007Y1559769D01*
G01X1912993Y1559769D01*
G01X1928515Y1563595D01*
G01X1942671Y1571025D01*
G01X1954637Y1581626D01*
G01X1963718Y1594782D01*
G01X1969387Y1609730D01*
G01X1971314Y1625600D01*
G01X1969387Y1641470D01*
G01X1963718Y1656418D01*
G01X1954637Y1669574D01*
G01X1942671Y1680175D01*
G01X1928515Y1687605D01*
G01X1912993Y1691431D01*
G01X1897007Y1691431D01*
G01X1881485Y1687605D01*
G01X1867329Y1680175D01*
G01X1855363Y1669574D01*
G01X1846282Y1656418D01*
G01X1840613Y1641470D01*
G01X1838686Y1625600D01*
G01X1838686Y1625600D01*
G01X153765Y1625600D01*
G01X155214Y1638300D01*
G01X153510Y1653236D01*
G01X148486Y1667404D01*
G01X140400Y1680077D01*
G01X129667Y1690603D01*
G01X116840Y1698441D01*
G01X102576Y1703188D01*
G01X87610Y1704602D01*
G01X72710Y1702607D01*
G01X58642Y1697309D01*
G01X46129Y1688977D01*
G01X35814Y1678042D01*
G37*
G36*
G01X3277248Y3851079D02*
G01X3295585Y3867457D01*
G01X3315649Y3881668D01*
G01X3337184Y3893531D01*
G01X3359917Y3902897D01*
G01X3383559Y3909645D01*
G01X3393186Y3900018D01*
G01X3393186Y3619770D01*
G01X3379722Y3628057D01*
G01X3364679Y3632922D01*
G01X3348912Y3634087D01*
G01X3333317Y3631487D01*
G01X3318781Y3625269D01*
G01X3306129Y3615787D01*
G01X3296082Y3603580D01*
G01X3289210Y3589342D01*
G01X3285904Y3573881D01*
G01X3285500Y3571233D01*
G01X3285001Y3569510D01*
G01X3241128Y3525637D01*
G01X3240566Y3540533D01*
G01X3236691Y3554927D01*
G01X3229699Y3568091D01*
G01X3219943Y3579361D01*
G01X3207916Y3588168D01*
G01X3213301Y3601774D01*
G01X3215571Y3616230D01*
G01X3214614Y3630832D01*
G01X3210479Y3644868D01*
G01X3203366Y3657656D01*
G01X3193622Y3668573D01*
G01X3181720Y3677087D01*
G01X3168241Y3682783D01*
G01X3153841Y3685384D01*
G01X3139221Y3684764D01*
G01X3125093Y3680953D01*
G01X3112145Y3674136D01*
G01X3101007Y3664645D01*
G01X3092222Y3652943D01*
G01X3086218Y3639598D01*
G01X3083286Y3625262D01*
G01X3082882Y3622615D01*
G01X3082383Y3620892D01*
G01X2937495Y3476005D01*
G01X2931414Y3468581D01*
G01X2931414Y3505244D01*
G01X3277248Y3851079D01*
G37*
G36*
G01X3089186Y362968D02*
G01X3072753Y368439D01*
G01X3055555Y370500D01*
G01X3038295Y369064D01*
G01X3021674Y364192D01*
G01X3006370Y356082D01*
G01X2993006Y345064D01*
G01X2993006Y529335D01*
G01X3007266Y517727D01*
G01X3023670Y509424D01*
G01X3041467Y504805D01*
G01X3059839Y504084D01*
G01X3077943Y507293D01*
G01X3094948Y514285D01*
G01X3110073Y524740D01*
G01X3122624Y538176D01*
G01X3127339Y546100D01*
G01X3362686Y546100D01*
G01X3364613Y530230D01*
G01X3370282Y515282D01*
G01X3379363Y502126D01*
G01X3391329Y491525D01*
G01X3405485Y484095D01*
G01X3421007Y480269D01*
G01X3436993Y480269D01*
G01X3452515Y484095D01*
G01X3466671Y491525D01*
G01X3478637Y502126D01*
G01X3487718Y515282D01*
G01X3493387Y530230D01*
G01X3495314Y546100D01*
G01X3493387Y561970D01*
G01X3487718Y576918D01*
G01X3482692Y584200D01*
G01X3705586Y584200D01*
G01X3707513Y568330D01*
G01X3713182Y553382D01*
G01X3722263Y540226D01*
G01X3734229Y529625D01*
G01X3748385Y522195D01*
G01X3763907Y518369D01*
G01X3779893Y518369D01*
G01X3795415Y522195D01*
G01X3809571Y529625D01*
G01X3821537Y540226D01*
G01X3830618Y553382D01*
G01X3836287Y568330D01*
G01X3838214Y584200D01*
G01X3836287Y600070D01*
G01X3830618Y615018D01*
G01X3821537Y628174D01*
G01X3809571Y638775D01*
G01X3795415Y646205D01*
G01X3779893Y650031D01*
G01X3763907Y650031D01*
G01X3748385Y646205D01*
G01X3734229Y638775D01*
G01X3722263Y628174D01*
G01X3713182Y615018D01*
G01X3707513Y600070D01*
G01X3705586Y584200D01*
G01X3705586Y584200D01*
G01X3482692Y584200D01*
G01X3478637Y590074D01*
G01X3466671Y600675D01*
G01X3452515Y608105D01*
G01X3436993Y611931D01*
G01X3421007Y611931D01*
G01X3405485Y608105D01*
G01X3391329Y600675D01*
G01X3379363Y590074D01*
G01X3370282Y576918D01*
G01X3364613Y561970D01*
G01X3362686Y546100D01*
G01X3362686Y546100D01*
G01X3127339Y546100D01*
G01X3132025Y553977D01*
G01X3137844Y571419D01*
G01X3139813Y589699D01*
G01X3139813Y669699D01*
G01X3138357Y685443D01*
G01X3134036Y700652D01*
G01X3126999Y714811D01*
G01X3117483Y727438D01*
G01X3105812Y738105D01*
G01X3144693Y776986D01*
G01X3276600Y776986D01*
G01X3289156Y778639D01*
G01X3300857Y783486D01*
G01X3310905Y791195D01*
G01X3450605Y930895D01*
G01X3458314Y940943D01*
G01X3463161Y952644D01*
G01X3464814Y965200D01*
G01X3464814Y1358536D01*
G01X3553187Y1358536D01*
G01X3554911Y1343874D01*
G01X3559836Y1329957D01*
G01X3567717Y1317474D01*
G01X3578166Y1307044D01*
G01X3590662Y1299185D01*
G01X3604588Y1294284D01*
G01X3619253Y1292586D01*
G01X3633930Y1294175D01*
G01X3647892Y1298971D01*
G01X3660447Y1306738D01*
G01X3670973Y1317089D01*
G01X3678947Y1329513D01*
G01X3683976Y1343393D01*
G01X3698621Y1345252D01*
G01X3712492Y1350305D01*
G01X3724902Y1358301D01*
G01X3735235Y1368845D01*
G01X3742979Y1381414D01*
G01X3747750Y1395384D01*
G01X3749313Y1410064D01*
G01X3747589Y1424726D01*
G01X3742664Y1438643D01*
G01X3734783Y1451126D01*
G01X3734783Y1451126D01*
G01X3724334Y1461556D01*
G01X3711838Y1469415D01*
G01X3697912Y1474316D01*
G01X3683247Y1476014D01*
G01X3668570Y1474425D01*
G01X3654608Y1469629D01*
G01X3642053Y1461862D01*
G01X3631527Y1451511D01*
G01X3623553Y1439087D01*
G01X3618524Y1425207D01*
G01X3618524Y1425207D01*
G01X3603879Y1423348D01*
G01X3590008Y1418295D01*
G01X3577598Y1410299D01*
G01X3567265Y1399755D01*
G01X3559521Y1387186D01*
G01X3554750Y1373216D01*
G01X3553187Y1358536D01*
G01X3464814Y1358536D01*
G01X3464814Y2387600D01*
G01X3463161Y2400156D01*
G01X3458314Y2411857D01*
G01X3450605Y2421905D01*
G01X3083814Y2788695D01*
G01X3083814Y3231105D01*
G01X3353610Y3500901D01*
G01X3355333Y3501400D01*
G01X3357981Y3501804D01*
G01X3370558Y3504194D01*
G01X3382440Y3508957D01*
G01X3393186Y3515914D01*
G01X3393186Y3390856D01*
G01X3131715Y3129385D01*
G01X3124102Y3120109D01*
G01X3118446Y3109526D01*
G01X3114962Y3098042D01*
G01X3113786Y3086100D01*
G01X3113786Y2928293D01*
G01X3114962Y2916350D01*
G01X3118446Y2904867D01*
G01X3124102Y2894284D01*
G01X3131715Y2885008D01*
G01X3189808Y2826915D01*
G01X3199084Y2819302D01*
G01X3209667Y2813646D01*
G01X3221150Y2810162D01*
G01X3233093Y2808986D01*
G01X3342894Y2808986D01*
G01X3350444Y2809453D01*
G01X3289300Y2748309D01*
G01X3281590Y2738261D01*
G01X3276743Y2726561D01*
G01X3275090Y2714004D01*
G01X3275090Y2700455D01*
G01X3274225Y2698884D01*
G01X3272638Y2696727D01*
G01X3264418Y2684209D01*
G01X3259216Y2670167D01*
G01X3257298Y2655315D01*
G01X3258761Y2640411D01*
G01X3263531Y2626216D01*
G01X3271364Y2613453D01*
G01X3281861Y2602773D01*
G01X3294487Y2594720D01*
G01X3308598Y2589706D01*
G01X3323474Y2587986D01*
G01X3338357Y2589648D01*
G01X3352487Y2594607D01*
G01X3365145Y2602609D01*
G01X3375684Y2613248D01*
G01X3383567Y2625981D01*
G01X3388393Y2640157D01*
G01X3389914Y2655055D01*
G01X3388054Y2669914D01*
G01X3382907Y2683977D01*
G01X3374736Y2696527D01*
G01X3579011Y2900802D01*
G01X3582561Y2885685D01*
G01X3589529Y2871808D01*
G01X3599534Y2859932D01*
G01X3612025Y2850708D01*
G01X3626320Y2844642D01*
G01X3641633Y2842066D01*
G01X3657125Y2843123D01*
G01X3671947Y2847752D01*
G01X3685286Y2855702D01*
G01X3685286Y1854200D01*
G01X3686939Y1841644D01*
G01X3691786Y1829943D01*
G01X3699495Y1819895D01*
G01X3995935Y1523456D01*
G01X3980158Y1526621D01*
G01X3964083Y1525892D01*
G01X3948657Y1521314D01*
G01X3934787Y1513154D01*
G01X3923292Y1501894D01*
G01X3914847Y1488197D01*
G01X3909950Y1472869D01*
G01X3908889Y1456812D01*
G01X3911726Y1440973D01*
G01X3918295Y1426284D01*
G01X3928209Y1413609D01*
G01X3928209Y1413609D01*
G01X3940884Y1403695D01*
G01X3955573Y1397126D01*
G01X3971412Y1394289D01*
G01X3987469Y1395350D01*
G01X4002797Y1400247D01*
G01X4016494Y1408692D01*
G01X4027754Y1420187D01*
G01X4035914Y1434057D01*
G01X4040492Y1449483D01*
G01X4041221Y1465558D01*
G01X4038056Y1481335D01*
G01X4118595Y1400795D01*
G01X4128643Y1393086D01*
G01X4140344Y1388239D01*
G01X4152900Y1386586D01*
G01X4564605Y1386586D01*
G01X4654937Y1296254D01*
G01X4655436Y1294531D01*
G01X4655840Y1291884D01*
G01X4658882Y1277208D01*
G01X4665143Y1263590D01*
G01X4674302Y1251726D01*
G01X4685892Y1242221D01*
G01X4699319Y1235563D01*
G01X4713900Y1232089D01*
G01X4728887Y1231979D01*
G01X4743517Y1235237D01*
G01X4757041Y1241698D01*
G01X4768769Y1251031D01*
G01X4778102Y1262759D01*
G01X4784563Y1276283D01*
G01X4787821Y1290913D01*
G01X4787711Y1305900D01*
G01X4784237Y1320481D01*
G01X4777579Y1333908D01*
G01X4768074Y1345498D01*
G01X4756210Y1354657D01*
G01X4742592Y1360918D01*
G01X4727916Y1363960D01*
G01X4725269Y1364364D01*
G01X4723546Y1364863D01*
G01X4653309Y1435100D01*
G01X4696186Y1435100D01*
G01X4698113Y1419230D01*
G01X4703782Y1404282D01*
G01X4712863Y1391126D01*
G01X4724829Y1380525D01*
G01X4738985Y1373095D01*
G01X4754507Y1369269D01*
G01X4770493Y1369269D01*
G01X4786015Y1373095D01*
G01X4800171Y1380525D01*
G01X4812137Y1391126D01*
G01X4821218Y1404282D01*
G01X4826887Y1419230D01*
G01X4828814Y1435100D01*
G01X4826887Y1450970D01*
G01X4821218Y1465918D01*
G01X4812137Y1479074D01*
G01X4800171Y1489675D01*
G01X4786015Y1497105D01*
G01X4770493Y1500931D01*
G01X4754507Y1500931D01*
G01X4738985Y1497105D01*
G01X4724829Y1489675D01*
G01X4712863Y1479074D01*
G01X4703782Y1465918D01*
G01X4698113Y1450970D01*
G01X4696186Y1435100D01*
G01X4696186Y1435100D01*
G01X4653309Y1435100D01*
G01X4619005Y1469405D01*
G01X4608957Y1477114D01*
G01X4597256Y1481961D01*
G01X4584700Y1483614D01*
G01X4172995Y1483614D01*
G01X4116317Y1540293D01*
G01X4127500Y1538986D01*
G01X4755105Y1538986D01*
G01X4840986Y1453105D01*
G01X4840986Y413795D01*
G01X4824332Y397141D01*
G01X4822609Y396642D01*
G01X4819962Y396239D01*
G01X4805286Y393196D01*
G01X4791668Y386935D01*
G01X4779804Y377776D01*
G01X4770300Y366187D01*
G01X4763641Y352759D01*
G01X4760168Y338179D01*
G01X4760057Y323191D01*
G01X4763316Y308561D01*
G01X4769776Y295037D01*
G01X4779109Y283309D01*
G01X4790837Y273976D01*
G01X4804361Y267516D01*
G01X4818991Y264257D01*
G01X4833979Y264368D01*
G01X4848559Y267841D01*
G01X4861987Y274500D01*
G01X4873576Y284004D01*
G01X4882735Y295868D01*
G01X4888996Y309486D01*
G01X4892039Y324162D01*
G01X4892442Y326809D01*
G01X4892941Y328532D01*
G01X4923805Y359395D01*
G01X4931514Y369443D01*
G01X4936361Y381144D01*
G01X4938014Y393700D01*
G01X4938014Y1473200D01*
G01X4936361Y1485756D01*
G01X4931514Y1497457D01*
G01X4923805Y1507505D01*
G01X4809505Y1621805D01*
G01X4799457Y1629514D01*
G01X4787756Y1634361D01*
G01X4775200Y1636014D01*
G01X4558328Y1636014D01*
G01X4572321Y1642703D01*
G01X4584378Y1652458D01*
G01X4593838Y1664747D01*
G01X4600186Y1678898D01*
G01X4603073Y1694136D01*
G01X4602343Y1709627D01*
G01X4598033Y1724526D01*
G01X4590382Y1738016D01*
G01X4579806Y1749360D01*
G01X4566885Y1757937D01*
G01X4552325Y1763278D01*
G01X4536922Y1765092D01*
G01X4521519Y1763278D01*
G01X4506959Y1757937D01*
G01X4494038Y1749360D01*
G01X4483462Y1738016D01*
G01X4475811Y1724526D01*
G01X4471501Y1709627D01*
G01X4470771Y1694136D01*
G01X4473658Y1678898D01*
G01X4480006Y1664747D01*
G01X4489466Y1652458D01*
G01X4501523Y1642703D01*
G01X4515516Y1636014D01*
G01X4147595Y1636014D01*
G01X3929409Y1854200D01*
G01X4772386Y1854200D01*
G01X4774313Y1838330D01*
G01X4779982Y1823382D01*
G01X4789063Y1810226D01*
G01X4801029Y1799625D01*
G01X4815185Y1792195D01*
G01X4830707Y1788369D01*
G01X4846693Y1788369D01*
G01X4862215Y1792195D01*
G01X4876371Y1799625D01*
G01X4888337Y1810226D01*
G01X4897418Y1823382D01*
G01X4903087Y1838330D01*
G01X4905014Y1854200D01*
G01X4903087Y1870070D01*
G01X4897418Y1885018D01*
G01X4888337Y1898174D01*
G01X4876371Y1908775D01*
G01X4862215Y1916205D01*
G01X4846693Y1920031D01*
G01X4830707Y1920031D01*
G01X4815185Y1916205D01*
G01X4801029Y1908775D01*
G01X4789063Y1898174D01*
G01X4779982Y1885018D01*
G01X4774313Y1870070D01*
G01X4772386Y1854200D01*
G01X4772386Y1854200D01*
G01X3929409Y1854200D01*
G01X3871214Y1912395D01*
G01X3871214Y2070100D01*
G01X4340586Y2070100D01*
G01X4342513Y2054230D01*
G01X4348182Y2039282D01*
G01X4357263Y2026126D01*
G01X4369229Y2015525D01*
G01X4383385Y2008095D01*
G01X4398907Y2004269D01*
G01X4414893Y2004269D01*
G01X4430415Y2008095D01*
G01X4444571Y2015525D01*
G01X4456537Y2026126D01*
G01X4465618Y2039282D01*
G01X4471287Y2054230D01*
G01X4473214Y2070100D01*
G01X4471287Y2085970D01*
G01X4465618Y2100918D01*
G01X4456537Y2114074D01*
G01X4444571Y2124675D01*
G01X4430415Y2132105D01*
G01X4414893Y2135931D01*
G01X4398907Y2135931D01*
G01X4383385Y2132105D01*
G01X4369229Y2124675D01*
G01X4357263Y2114074D01*
G01X4348182Y2100918D01*
G01X4342513Y2085970D01*
G01X4340586Y2070100D01*
G01X4340586Y2070100D01*
G01X3871214Y2070100D01*
G01X3871214Y2077132D01*
G01X3871214Y2077132D01*
G01X3887550Y2076551D01*
G01X3903532Y2079984D01*
G01X3918189Y2087222D01*
G01X3930629Y2097825D01*
G01X3940098Y2111150D01*
G01X3946020Y2126386D01*
G01X3948035Y2142608D01*
G01X3948035Y2142608D01*
G01X3946020Y2158830D01*
G01X3940098Y2174066D01*
G01X3930629Y2187391D01*
G01X3918189Y2197994D01*
G01X3903532Y2205232D01*
G01X3887550Y2208665D01*
G01X3871214Y2208085D01*
G01X3871214Y2461375D01*
G01X4011033Y2461375D01*
G01X4013460Y2446357D01*
G01X4019247Y2432288D01*
G01X4028087Y2419907D01*
G01X4039516Y2409867D01*
G01X4052932Y2402696D01*
G01X4052932Y2402696D01*
G01X4050725Y2388145D01*
G01X4051781Y2373465D01*
G01X4056050Y2359381D01*
G01X4063319Y2346584D01*
G01X4073232Y2335706D01*
G01X4085300Y2327283D01*
G01X4098929Y2321728D01*
G01X4113448Y2319317D01*
G01X4128140Y2320167D01*
G01X4132169Y2305013D01*
G01X4139642Y2291229D01*
G01X4150144Y2279585D01*
G01X4163085Y2270732D01*
G01X4177743Y2265165D01*
G01X4193299Y2263195D01*
G01X4208882Y2264933D01*
G01X4223622Y2270281D01*
G01X4236694Y2278940D01*
G01X4247367Y2290426D01*
G01X4255046Y2304097D01*
G01X4259300Y2319189D01*
G01X4259891Y2334857D01*
G01X4256814Y2350093D01*
G01X4430079Y2350093D01*
G01X4432006Y2334223D01*
G01X4437675Y2319275D01*
G01X4446756Y2306118D01*
G01X4458722Y2295517D01*
G01X4472877Y2288088D01*
G01X4488400Y2284262D01*
G01X4504386Y2284262D01*
G01X4519908Y2288088D01*
G01X4534063Y2295517D01*
G01X4546030Y2306118D01*
G01X4555111Y2319275D01*
G01X4560780Y2334223D01*
G01X4562707Y2350093D01*
G01X4560780Y2365963D01*
G01X4555111Y2380910D01*
G01X4546030Y2394067D01*
G01X4534063Y2404668D01*
G01X4519908Y2412098D01*
G01X4504386Y2415923D01*
G01X4488400Y2415923D01*
G01X4472877Y2412098D01*
G01X4458722Y2404668D01*
G01X4446756Y2394067D01*
G01X4437675Y2380910D01*
G01X4432006Y2365963D01*
G01X4430079Y2350093D01*
G01X4430079Y2350093D01*
G01X4256814Y2350093D01*
G01X4256787Y2350227D01*
G01X4250162Y2364438D01*
G01X4240385Y2376696D01*
G01X4228003Y2386316D01*
G01X4213708Y2392761D01*
G01X4198300Y2395668D01*
G01X4182641Y2394877D01*
G01X4179235Y2408402D01*
G01X4173076Y2420915D01*
G01X4164436Y2431864D01*
G01X4153697Y2440763D01*
G01X4141334Y2447219D01*
G01X4143559Y2462268D01*
G01X4142922Y2469916D01*
G01X4227809Y2469916D01*
G01X4230684Y2454173D01*
G01X4237246Y2439577D01*
G01X4247113Y2426979D01*
G01X4259712Y2417111D01*
G01X4274307Y2410548D01*
G01X4290050Y2407673D01*
G01X4306023Y2408653D01*
G01X4321296Y2413431D01*
G01X4334980Y2421729D01*
G01X4348665Y2413439D01*
G01X4363937Y2408669D01*
G01X4379907Y2407695D01*
G01X4395646Y2410574D01*
G01X4410237Y2417140D01*
G01X4422830Y2427008D01*
G01X4432694Y2439606D01*
G01X4439253Y2454200D01*
G01X4442125Y2469940D01*
G01X4441145Y2485910D01*
G01X4436367Y2501180D01*
G01X4428072Y2514861D01*
G01X4428072Y2514861D01*
G01X4436370Y2528545D01*
G01X4441148Y2543818D01*
G01X4442129Y2559791D01*
G01X4439254Y2575533D01*
G01X4432692Y2590129D01*
G01X4422825Y2602728D01*
G01X4422825Y2602728D01*
G01X4410226Y2612596D01*
G01X4395631Y2619158D01*
G01X4379888Y2622033D01*
G01X4363915Y2621053D01*
G01X4348642Y2616275D01*
G01X4334958Y2607978D01*
G01X4321273Y2616267D01*
G01X4306001Y2621038D01*
G01X4290031Y2622012D01*
G01X4274292Y2619132D01*
G01X4259701Y2612567D01*
G01X4247108Y2602698D01*
G01X4247108Y2602698D01*
G01X4237244Y2590100D01*
G01X4230685Y2575506D01*
G01X4227813Y2559767D01*
G01X4228793Y2543797D01*
G01X4233571Y2528527D01*
G01X4241866Y2514846D01*
G01X4233568Y2501162D01*
G01X4228789Y2485889D01*
G01X4227809Y2469916D01*
G01X4142922Y2469916D01*
G01X4142296Y2477428D01*
G01X4137611Y2491902D01*
G01X4129752Y2504927D01*
G01X4119130Y2515818D01*
G01X4106307Y2524002D01*
G01X4091955Y2529048D01*
G01X4076832Y2530691D01*
G01X4061731Y2528844D01*
G01X4047449Y2523605D01*
G01X4047449Y2523605D01*
G01X4034737Y2515249D01*
G01X4024264Y2504216D01*
G01X4016580Y2491086D01*
G01X4012091Y2476550D01*
G01X4011033Y2461375D01*
G01X3871214Y2461375D01*
G01X3871214Y2657954D01*
G01X4048587Y2657954D01*
G01X4049486Y2642825D01*
G01X4053797Y2628296D01*
G01X4061294Y2615125D01*
G01X4071585Y2604001D01*
G01X4084134Y2595503D01*
G01X4098284Y2590076D01*
G01X4113296Y2588003D01*
G01X4128387Y2589393D01*
G01X4142769Y2594173D01*
G01X4155690Y2602093D01*
G01X4166475Y2612740D01*
G01X4174561Y2625557D01*
G01X4179526Y2639876D01*
G01X4181111Y2654948D01*
G01X4181111Y2654948D01*
G01X4195895Y2651911D01*
G01X4210983Y2652297D01*
G01X4225593Y2656083D01*
G01X4238968Y2663076D01*
G01X4250416Y2672911D01*
G01X4259343Y2685081D01*
G01X4265287Y2698953D01*
G01X4267941Y2713811D01*
G01X4281945Y2706535D01*
G01X4297273Y2702774D01*
G01X4313054Y2702741D01*
G01X4328397Y2706438D01*
G01X4342432Y2713656D01*
G01X4354363Y2723986D01*
G01X4363516Y2736843D01*
G01X4369371Y2751499D01*
G01X4371598Y2767123D01*
G01X4370069Y2782830D01*
G01X4364873Y2797732D01*
G01X4356302Y2810984D01*
G01X4344842Y2821835D01*
G01X4331143Y2829671D01*
G01X4315981Y2834048D01*
G01X4300213Y2834719D01*
G01X4284733Y2831644D01*
G01X4270419Y2824999D01*
G01X4258080Y2815160D01*
G01X4248415Y2802683D01*
G01X4241972Y2788276D01*
G01X4239116Y2772755D01*
G01X4224891Y2780114D01*
G01X4209316Y2783848D01*
G01X4193300Y2783738D01*
G01X4177777Y2779792D01*
G01X4163653Y2772240D01*
G01X4151752Y2761521D01*
G01X4142768Y2748262D01*
G01X4137225Y2733235D01*
G01X4135446Y2717318D01*
G01X4135446Y2717318D01*
G01X4120600Y2720360D01*
G01X4105450Y2719952D01*
G01X4090789Y2716114D01*
G01X4077382Y2709049D01*
G01X4065929Y2699124D01*
G01X4057028Y2686858D01*
G01X4051145Y2672891D01*
G01X4048587Y2657954D01*
G01X3871214Y2657954D01*
G01X3871214Y2876550D01*
G01X4385036Y2876550D01*
G01X4386963Y2860680D01*
G01X4392632Y2845732D01*
G01X4401713Y2832576D01*
G01X4413679Y2821975D01*
G01X4427835Y2814545D01*
G01X4443357Y2810719D01*
G01X4459343Y2810719D01*
G01X4474865Y2814545D01*
G01X4489021Y2821975D01*
G01X4500987Y2832576D01*
G01X4510068Y2845732D01*
G01X4515737Y2860680D01*
G01X4517664Y2876550D01*
G01X4515737Y2892420D01*
G01X4510068Y2907368D01*
G01X4500987Y2920524D01*
G01X4489021Y2931125D01*
G01X4474865Y2938555D01*
G01X4459343Y2942381D01*
G01X4443357Y2942381D01*
G01X4427835Y2938555D01*
G01X4413679Y2931125D01*
G01X4401713Y2920524D01*
G01X4392632Y2907368D01*
G01X4386963Y2892420D01*
G01X4385036Y2876550D01*
G01X4385036Y2876550D01*
G01X3871214Y2876550D01*
G01X3871214Y3175000D01*
G01X4226286Y3175000D01*
G01X4228213Y3159130D01*
G01X4233882Y3144182D01*
G01X4242963Y3131026D01*
G01X4254929Y3120425D01*
G01X4269085Y3112995D01*
G01X4284607Y3109169D01*
G01X4300593Y3109169D01*
G01X4316115Y3112995D01*
G01X4330271Y3120425D01*
G01X4342237Y3131026D01*
G01X4351318Y3144182D01*
G01X4356987Y3159130D01*
G01X4358914Y3175000D01*
G01X4356987Y3190870D01*
G01X4351318Y3205818D01*
G01X4342237Y3218974D01*
G01X4330271Y3229575D01*
G01X4316115Y3237005D01*
G01X4300593Y3240831D01*
G01X4284607Y3240831D01*
G01X4269085Y3237005D01*
G01X4254929Y3229575D01*
G01X4242963Y3218974D01*
G01X4233882Y3205818D01*
G01X4228213Y3190870D01*
G01X4226286Y3175000D01*
G01X4226286Y3175000D01*
G01X3871214Y3175000D01*
G01X3871214Y3352800D01*
G01X4429486Y3352800D01*
G01X4431413Y3336930D01*
G01X4437082Y3321982D01*
G01X4446163Y3308826D01*
G01X4458129Y3298225D01*
G01X4472285Y3290795D01*
G01X4487807Y3286969D01*
G01X4503793Y3286969D01*
G01X4519315Y3290795D01*
G01X4533471Y3298225D01*
G01X4545437Y3308826D01*
G01X4554518Y3321982D01*
G01X4560187Y3336930D01*
G01X4562114Y3352800D01*
G01X4561927Y3354337D01*
G01X4720049Y3354337D01*
G01X4721976Y3338467D01*
G01X4727644Y3323520D01*
G01X4736726Y3310363D01*
G01X4748692Y3299762D01*
G01X4762847Y3292333D01*
G01X4778369Y3288507D01*
G01X4794356Y3288507D01*
G01X4809878Y3292333D01*
G01X4824033Y3299762D01*
G01X4835999Y3310363D01*
G01X4845081Y3323520D01*
G01X4850750Y3338467D01*
G01X4852677Y3354337D01*
G01X4850750Y3370207D01*
G01X4845081Y3385155D01*
G01X4835999Y3398312D01*
G01X4824033Y3408913D01*
G01X4809878Y3416342D01*
G01X4794356Y3420168D01*
G01X4778369Y3420168D01*
G01X4762847Y3416342D01*
G01X4748692Y3408913D01*
G01X4736726Y3398312D01*
G01X4727644Y3385155D01*
G01X4721976Y3370207D01*
G01X4720049Y3354337D01*
G01X4720049Y3354337D01*
G01X4561927Y3354337D01*
G01X4560187Y3368670D01*
G01X4554518Y3383618D01*
G01X4545437Y3396774D01*
G01X4533471Y3407375D01*
G01X4519315Y3414805D01*
G01X4503793Y3418631D01*
G01X4487807Y3418631D01*
G01X4472285Y3414805D01*
G01X4458129Y3407375D01*
G01X4446163Y3396774D01*
G01X4437082Y3383618D01*
G01X4431413Y3368670D01*
G01X4429486Y3352800D01*
G01X4429486Y3352800D01*
G01X3871214Y3352800D01*
G01X3871214Y3695700D01*
G01X4721586Y3695700D01*
G01X4723513Y3679830D01*
G01X4729182Y3664882D01*
G01X4738263Y3651726D01*
G01X4750229Y3641125D01*
G01X4764385Y3633695D01*
G01X4779907Y3629869D01*
G01X4795893Y3629869D01*
G01X4811415Y3633695D01*
G01X4825571Y3641125D01*
G01X4837537Y3651726D01*
G01X4846618Y3664882D01*
G01X4852287Y3679830D01*
G01X4854214Y3695700D01*
G01X4852287Y3711570D01*
G01X4846618Y3726518D01*
G01X4837537Y3739674D01*
G01X4825571Y3750275D01*
G01X4811415Y3757705D01*
G01X4795893Y3761531D01*
G01X4779907Y3761531D01*
G01X4764385Y3757705D01*
G01X4750229Y3750275D01*
G01X4738263Y3739674D01*
G01X4729182Y3726518D01*
G01X4723513Y3711570D01*
G01X4721586Y3695700D01*
G01X4721586Y3695700D01*
G01X3871214Y3695700D01*
G01X3871214Y3890845D01*
G01X3872079Y3892416D01*
G01X3873666Y3894573D01*
G01X3876471Y3898900D01*
G01X4480286Y3898900D01*
G01X4482213Y3883030D01*
G01X4487882Y3868082D01*
G01X4496963Y3854926D01*
G01X4508929Y3844325D01*
G01X4523085Y3836895D01*
G01X4538607Y3833069D01*
G01X4554593Y3833069D01*
G01X4570115Y3836895D01*
G01X4584271Y3844325D01*
G01X4596237Y3854926D01*
G01X4605318Y3868082D01*
G01X4610987Y3883030D01*
G01X4612914Y3898900D01*
G01X4610987Y3914770D01*
G01X4605318Y3929718D01*
G01X4596237Y3942874D01*
G01X4584271Y3953475D01*
G01X4570115Y3960905D01*
G01X4554593Y3964731D01*
G01X4538607Y3964731D01*
G01X4523085Y3960905D01*
G01X4508929Y3953475D01*
G01X4496963Y3942874D01*
G01X4487882Y3929718D01*
G01X4482213Y3914770D01*
G01X4480286Y3898900D01*
G01X4480286Y3898900D01*
G01X3876471Y3898900D01*
G01X3882233Y3907787D01*
G01X3887442Y3922648D01*
G01X3889001Y3938319D01*
G01X3886820Y3953915D01*
G01X3881024Y3968558D01*
G01X3871938Y3981420D01*
G01X3860076Y3991778D01*
G01X3846105Y3999046D01*
G01X3830815Y4002816D01*
G01X3815067Y4002873D01*
G01X3821551Y4016018D01*
G01X3824988Y4030265D01*
G01X3825212Y4044920D01*
G01X3822212Y4059266D01*
G01X3816133Y4072602D01*
G01X3813024Y4076700D01*
G01X4289786Y4076700D01*
G01X4291713Y4060830D01*
G01X4297382Y4045882D01*
G01X4306463Y4032726D01*
G01X4318429Y4022125D01*
G01X4332585Y4014695D01*
G01X4348107Y4010869D01*
G01X4364093Y4010869D01*
G01X4379615Y4014695D01*
G01X4393771Y4022125D01*
G01X4405737Y4032726D01*
G01X4414818Y4045882D01*
G01X4420487Y4060830D01*
G01X4422414Y4076700D01*
G01X4420487Y4092570D01*
G01X4414818Y4107518D01*
G01X4405737Y4120674D01*
G01X4393771Y4131275D01*
G01X4379615Y4138705D01*
G01X4364093Y4142531D01*
G01X4348107Y4142531D01*
G01X4332585Y4138705D01*
G01X4318429Y4131275D01*
G01X4306463Y4120674D01*
G01X4297382Y4107518D01*
G01X4291713Y4092570D01*
G01X4289786Y4076700D01*
G01X4289786Y4076700D01*
G01X3813024Y4076700D01*
G01X3807274Y4084278D01*
G01X3796066Y4093722D01*
G01X3783058Y4100474D01*
G01X3768884Y4104203D01*
G01X3754237Y4104728D01*
G01X3880895Y4231386D01*
G01X4182945Y4231386D01*
G01X4184516Y4230521D01*
G01X4186673Y4228934D01*
G01X4199202Y4220708D01*
G01X4213259Y4215506D01*
G01X4228124Y4213593D01*
G01X4243040Y4215068D01*
G01X4257243Y4219854D01*
G01X4270009Y4227708D01*
G01X4280685Y4238228D01*
G01X4288725Y4250876D01*
G01X4293720Y4265008D01*
G01X4295414Y4279900D01*
G01X4295414Y4279900D01*
G01X4293970Y4292600D01*
G01X4683486Y4292600D01*
G01X4685413Y4276730D01*
G01X4691082Y4261782D01*
G01X4700163Y4248626D01*
G01X4712129Y4238025D01*
G01X4726285Y4230595D01*
G01X4741807Y4226769D01*
G01X4757793Y4226769D01*
G01X4773315Y4230595D01*
G01X4787471Y4238025D01*
G01X4799437Y4248626D01*
G01X4808518Y4261782D01*
G01X4814187Y4276730D01*
G01X4816114Y4292600D01*
G01X4814187Y4308470D01*
G01X4808518Y4323418D01*
G01X4799437Y4336574D01*
G01X4787471Y4347175D01*
G01X4773315Y4354605D01*
G01X4757793Y4358431D01*
G01X4741807Y4358431D01*
G01X4726285Y4354605D01*
G01X4712129Y4347175D01*
G01X4700163Y4336574D01*
G01X4691082Y4323418D01*
G01X4685413Y4308470D01*
G01X4683486Y4292600D01*
G01X4683486Y4292600D01*
G01X4293970Y4292600D01*
G01X4293720Y4294792D01*
G01X4288725Y4308924D01*
G01X4280685Y4321572D01*
G01X4270009Y4332092D01*
G01X4257243Y4339946D01*
G01X4243040Y4344732D01*
G01X4228124Y4346207D01*
G01X4213259Y4344294D01*
G01X4199202Y4339092D01*
G01X4186673Y4330866D01*
G01X4184516Y4329279D01*
G01X4182945Y4328414D01*
G01X3860800Y4328414D01*
G01X3848244Y4326761D01*
G01X3836543Y4321914D01*
G01X3826495Y4314205D01*
G01X3800034Y4287743D01*
G01X3799374Y4303269D01*
G01X3795118Y4318215D01*
G01X3787501Y4331759D01*
G01X3776941Y4343160D01*
G01X3764018Y4351790D01*
G01X3749441Y4357175D01*
G01X3734011Y4359020D01*
G01X3734011Y4359020D01*
G01X3718576Y4357224D01*
G01X3703982Y4351885D01*
G01X3691032Y4343296D01*
G01X3680436Y4331929D01*
G01X3672776Y4318409D01*
G01X3668473Y4303477D01*
G01X3667763Y4287953D01*
G01X3667755Y4287562D01*
G01X3521695Y4141502D01*
G01X3513986Y4131454D01*
G01X3509139Y4119754D01*
G01X3507486Y4107197D01*
G01X3507486Y3955854D01*
G01X3503009Y3962581D01*
G01X3497685Y3968659D01*
G01X3148237Y4318106D01*
G01X3527680Y4318106D01*
G01X3529607Y4302236D01*
G01X3535276Y4287288D01*
G01X3544357Y4274132D01*
G01X3556323Y4263531D01*
G01X3570479Y4256101D01*
G01X3586001Y4252276D01*
G01X3601987Y4252276D01*
G01X3617509Y4256101D01*
G01X3631665Y4263531D01*
G01X3643631Y4274132D01*
G01X3652712Y4287288D01*
G01X3658381Y4302236D01*
G01X3660308Y4318106D01*
G01X3658381Y4333976D01*
G01X3652712Y4348924D01*
G01X3643631Y4362081D01*
G01X3631665Y4372682D01*
G01X3617509Y4380111D01*
G01X3601987Y4383937D01*
G01X3586001Y4383937D01*
G01X3570479Y4380111D01*
G01X3556323Y4372682D01*
G01X3544357Y4362081D01*
G01X3535276Y4348924D01*
G01X3529607Y4333976D01*
G01X3527680Y4318106D01*
G01X3527680Y4318106D01*
G01X3148237Y4318106D01*
G01X3139008Y4327336D01*
G01X3139008Y4643159D01*
G01X3141242Y4643070D01*
G01X3144295Y4642742D01*
G01X3152876Y4641262D01*
G01X3159659Y4639911D01*
G01X3159659Y4639911D01*
G01X3173360Y4638133D01*
G01X3187132Y4639232D01*
G01X3200377Y4643160D01*
G01X3212521Y4649748D01*
G01X3223037Y4658710D01*
G01X3231467Y4669655D01*
G01X3235308Y4675407D01*
G01X3240329Y4682521D01*
G01X3242256Y4684911D01*
G01X3244672Y4687529D01*
G01X3256264Y4699121D01*
G01X3265628Y4711177D01*
G01X3271718Y4725175D01*
G01X3274155Y4740244D01*
G01X3277013Y4755005D01*
G01X3282323Y4769071D01*
G01X3289933Y4782037D01*
G01X3299625Y4793531D01*
G01X3359779Y4853686D01*
G01X3427463Y4853686D01*
G01X3416138Y4843089D01*
G01X3407584Y4830152D01*
G01X3402268Y4815582D01*
G01X3400483Y4800175D01*
G01X3402325Y4784775D01*
G01X3407694Y4770224D01*
G01X3416295Y4757319D01*
G01X3427659Y4746764D01*
G01X3441164Y4739137D01*
G01X3427496Y4732326D01*
G01X3415747Y4722568D01*
G01X3406543Y4710381D01*
G01X3400371Y4696412D01*
G01X3397558Y4681402D01*
G01X3398253Y4666146D01*
G01X3402420Y4651453D01*
G01X3409838Y4638104D01*
G01X3420113Y4626805D01*
G01X3432700Y4618157D01*
G01X3446932Y4612617D01*
G01X3462053Y4610480D01*
G01X3477263Y4611859D01*
G01X3491754Y4616681D01*
G01X3504757Y4624690D01*
G01X3515583Y4635461D01*
G01X3523659Y4648423D01*
G01X3528554Y4662889D01*
G01X3530011Y4678092D01*
G01X3527951Y4693224D01*
G01X3522484Y4707484D01*
G01X3513900Y4720115D01*
G01X3502654Y4730447D01*
G01X3489343Y4737933D01*
G01X3489343Y4737933D01*
G01X3503519Y4745079D01*
G01X3515591Y4755389D01*
G01X3524866Y4768273D01*
G01X3530813Y4782992D01*
G01X3533092Y4798702D01*
G01X3531571Y4814505D01*
G01X3526338Y4829493D01*
G01X3517693Y4842807D01*
G01X3506131Y4853686D01*
G01X3543344Y4853686D01*
G01X3642051Y4754979D01*
G01X3627500Y4761846D01*
G01X3611724Y4765006D01*
G01X3595651Y4764274D01*
G01X3580227Y4759692D01*
G01X3566361Y4751530D01*
G01X3554869Y4740270D01*
G01X3546427Y4726573D01*
G01X3541532Y4711246D01*
G01X3540473Y4695191D01*
G01X3543311Y4679354D01*
G01X3549880Y4664666D01*
G01X3559793Y4651993D01*
G01X3572466Y4642080D01*
G01X3587154Y4635511D01*
G01X3602991Y4632673D01*
G01X3619046Y4633732D01*
G01X3634373Y4638627D01*
G01X3648070Y4647069D01*
G01X3659330Y4658561D01*
G01X3667492Y4672427D01*
G01X3672074Y4687851D01*
G01X3672806Y4703924D01*
G01X3669646Y4719700D01*
G01X3662779Y4734251D01*
G01X3919115Y4477915D01*
G01X3928391Y4470302D01*
G01X3938974Y4464646D01*
G01X3950458Y4461162D01*
G01X3962400Y4459986D01*
G01X4046289Y4459986D01*
G01X4056042Y4448090D01*
G01X4068275Y4438761D01*
G01X4082328Y4432502D01*
G01X4097445Y4429650D01*
G01X4112812Y4430357D01*
G01X4127603Y4434586D01*
G01X4140200Y4434586D01*
G01X4152142Y4435762D01*
G01X4163626Y4439246D01*
G01X4174209Y4444902D01*
G01X4183485Y4452515D01*
G01X4190852Y4459882D01*
G01X4203252Y4466612D01*
G01X4213949Y4475813D01*
G01X4222457Y4487069D01*
G01X4228390Y4499871D01*
G01X4231481Y4513637D01*
G01X4231590Y4527747D01*
G01X4228711Y4541559D01*
G01X4222976Y4554450D01*
G01X4214642Y4565836D01*
G01X4204089Y4575201D01*
G01X4191793Y4582122D01*
G01X4178312Y4586284D01*
G01X4164255Y4587500D01*
G01X4150259Y4585715D01*
G01X4143476Y4584364D01*
G01X4134895Y4582884D01*
G01X4131842Y4582557D01*
G01X4128283Y4582414D01*
G01X3987756Y4582414D01*
G01X3960070Y4610100D01*
G01X4480286Y4610100D01*
G01X4482213Y4594230D01*
G01X4487882Y4579282D01*
G01X4496963Y4566126D01*
G01X4508929Y4555525D01*
G01X4523085Y4548095D01*
G01X4538607Y4544269D01*
G01X4554593Y4544269D01*
G01X4570115Y4548095D01*
G01X4584271Y4555525D01*
G01X4596237Y4566126D01*
G01X4605318Y4579282D01*
G01X4610987Y4594230D01*
G01X4612914Y4610100D01*
G01X4610987Y4625970D01*
G01X4605318Y4640918D01*
G01X4596237Y4654074D01*
G01X4584271Y4664675D01*
G01X4570115Y4672105D01*
G01X4554593Y4675931D01*
G01X4538607Y4675931D01*
G01X4523085Y4672105D01*
G01X4508929Y4664675D01*
G01X4496963Y4654074D01*
G01X4487882Y4640918D01*
G01X4482213Y4625970D01*
G01X4480286Y4610100D01*
G01X4480286Y4610100D01*
G01X3960070Y4610100D01*
G01X3611985Y4958185D01*
G01X3602709Y4965798D01*
G01X3592126Y4971454D01*
G01X3580642Y4974938D01*
G01X3568700Y4976114D01*
G01X3334424Y4976114D01*
G01X3322481Y4974938D01*
G01X3310998Y4971454D01*
G01X3300415Y4965798D01*
G01X3291139Y4958185D01*
G01X3182127Y4849174D01*
G01X3184880Y4856875D01*
G01X3185814Y4865000D01*
G01X3185814Y4991100D01*
G01X4124686Y4991100D01*
G01X4126613Y4975230D01*
G01X4132282Y4960282D01*
G01X4141363Y4947126D01*
G01X4153329Y4936525D01*
G01X4167485Y4929095D01*
G01X4183007Y4925269D01*
G01X4198993Y4925269D01*
G01X4214515Y4929095D01*
G01X4228671Y4936525D01*
G01X4240637Y4947126D01*
G01X4249718Y4960282D01*
G01X4255387Y4975230D01*
G01X4257314Y4991100D01*
G01X4255772Y5003800D01*
G01X4594586Y5003800D01*
G01X4596513Y4987930D01*
G01X4602182Y4972982D01*
G01X4611263Y4959826D01*
G01X4623229Y4949225D01*
G01X4637385Y4941795D01*
G01X4652907Y4937969D01*
G01X4668893Y4937969D01*
G01X4684415Y4941795D01*
G01X4698571Y4949225D01*
G01X4710537Y4959826D01*
G01X4719618Y4972982D01*
G01X4725287Y4987930D01*
G01X4727214Y5003800D01*
G01X4725287Y5019670D01*
G01X4719618Y5034618D01*
G01X4710537Y5047774D01*
G01X4698571Y5058375D01*
G01X4684415Y5065805D01*
G01X4668893Y5069631D01*
G01X4652907Y5069631D01*
G01X4637385Y5065805D01*
G01X4623229Y5058375D01*
G01X4611263Y5047774D01*
G01X4602182Y5034618D01*
G01X4596513Y5019670D01*
G01X4594586Y5003800D01*
G01X4594586Y5003800D01*
G01X4255772Y5003800D01*
G01X4255387Y5006970D01*
G01X4249718Y5021918D01*
G01X4240637Y5035074D01*
G01X4228671Y5045675D01*
G01X4214515Y5053105D01*
G01X4198993Y5056931D01*
G01X4183007Y5056931D01*
G01X4167485Y5053105D01*
G01X4153329Y5045675D01*
G01X4141363Y5035074D01*
G01X4132282Y5021918D01*
G01X4126613Y5006970D01*
G01X4124686Y4991100D01*
G01X4124686Y4991100D01*
G01X3185814Y4991100D01*
G01X3185814Y5067300D01*
G01X3210286Y5067300D01*
G01X3212213Y5051430D01*
G01X3217882Y5036482D01*
G01X3226963Y5023326D01*
G01X3238929Y5012725D01*
G01X3253085Y5005295D01*
G01X3268607Y5001469D01*
G01X3284593Y5001469D01*
G01X3300115Y5005295D01*
G01X3314271Y5012725D01*
G01X3326237Y5023326D01*
G01X3335318Y5036482D01*
G01X3340987Y5051430D01*
G01X3342914Y5067300D01*
G01X3340987Y5083170D01*
G01X3335318Y5098118D01*
G01X3326237Y5111274D01*
G01X3314271Y5121875D01*
G01X3300115Y5129305D01*
G01X3284593Y5133131D01*
G01X3268607Y5133131D01*
G01X3253085Y5129305D01*
G01X3238929Y5121875D01*
G01X3226963Y5111274D01*
G01X3217882Y5098118D01*
G01X3212213Y5083170D01*
G01X3210286Y5067300D01*
G01X3210286Y5067300D01*
G01X3185814Y5067300D01*
G01X3185814Y5194300D01*
G01X3286486Y5194300D01*
G01X3288413Y5178430D01*
G01X3294082Y5163482D01*
G01X3303163Y5150326D01*
G01X3315129Y5139725D01*
G01X3329285Y5132295D01*
G01X3344807Y5128469D01*
G01X3360793Y5128469D01*
G01X3376315Y5132295D01*
G01X3390471Y5139725D01*
G01X3402437Y5150326D01*
G01X3411518Y5163482D01*
G01X3417187Y5178430D01*
G01X3419114Y5194300D01*
G01X3417187Y5210170D01*
G01X3411518Y5225118D01*
G01X3402437Y5238274D01*
G01X3390471Y5248875D01*
G01X3376315Y5256305D01*
G01X3360793Y5260131D01*
G01X3344807Y5260131D01*
G01X3329285Y5256305D01*
G01X3315129Y5248875D01*
G01X3303163Y5238274D01*
G01X3294082Y5225118D01*
G01X3288413Y5210170D01*
G01X3286486Y5194300D01*
G01X3286486Y5194300D01*
G01X3185814Y5194300D01*
G01X3185814Y5308600D01*
G01X4048486Y5308600D01*
G01X4050413Y5292730D01*
G01X4056082Y5277782D01*
G01X4065163Y5264626D01*
G01X4077129Y5254025D01*
G01X4091285Y5246595D01*
G01X4106807Y5242769D01*
G01X4122793Y5242769D01*
G01X4138315Y5246595D01*
G01X4152471Y5254025D01*
G01X4164437Y5264626D01*
G01X4173518Y5277782D01*
G01X4179187Y5292730D01*
G01X4181114Y5308600D01*
G01X4179187Y5324470D01*
G01X4173518Y5339418D01*
G01X4164437Y5352574D01*
G01X4152471Y5363175D01*
G01X4138315Y5370605D01*
G01X4122793Y5374431D01*
G01X4106807Y5374431D01*
G01X4091285Y5370605D01*
G01X4077129Y5363175D01*
G01X4065163Y5352574D01*
G01X4056082Y5339418D01*
G01X4050413Y5324470D01*
G01X4048486Y5308600D01*
G01X4048486Y5308600D01*
G01X3185814Y5308600D01*
G01X3185814Y5537200D01*
G01X3248668Y5537200D01*
G01X3250595Y5521330D01*
G01X3256264Y5506382D01*
G01X3265346Y5493226D01*
G01X3277312Y5482625D01*
G01X3291467Y5475195D01*
G01X3306989Y5471369D01*
G01X3322976Y5471369D01*
G01X3338498Y5475195D01*
G01X3352653Y5482625D01*
G01X3364619Y5493226D01*
G01X3373701Y5506382D01*
G01X3379370Y5521330D01*
G01X3381297Y5537200D01*
G01X3379370Y5553070D01*
G01X3373701Y5568018D01*
G01X3364619Y5581174D01*
G01X3352653Y5591775D01*
G01X3338498Y5599205D01*
G01X3322976Y5603031D01*
G01X3306989Y5603031D01*
G01X3291467Y5599205D01*
G01X3277312Y5591775D01*
G01X3265346Y5581174D01*
G01X3256264Y5568018D01*
G01X3250595Y5553070D01*
G01X3248668Y5537200D01*
G01X3248668Y5537200D01*
G01X3185814Y5537200D01*
G01X3185814Y5634070D01*
G01X3591286Y5634070D01*
G01X3593213Y5618200D01*
G01X3598882Y5603252D01*
G01X3607963Y5590095D01*
G01X3619929Y5579494D01*
G01X3634085Y5572065D01*
G01X3649607Y5568239D01*
G01X3665593Y5568239D01*
G01X3681115Y5572065D01*
G01X3695271Y5579494D01*
G01X3707237Y5590095D01*
G01X3716318Y5603252D01*
G01X3721987Y5618200D01*
G01X3723914Y5634070D01*
G01X3721987Y5649940D01*
G01X3716318Y5664887D01*
G01X3707237Y5678044D01*
G01X3695271Y5688645D01*
G01X3681115Y5696075D01*
G01X3679710Y5696421D01*
G01X4285958Y5696421D01*
G01X4289446Y5680651D01*
G01X4296643Y5666193D01*
G01X4307122Y5653903D01*
G01X4320261Y5644510D01*
G01X4335280Y5638572D01*
G01X4351290Y5636441D01*
G01X4367340Y5638244D01*
G01X4364566Y5612799D01*
G01X4364566Y5587203D01*
G01X4367340Y5561758D01*
G01X4351290Y5563560D01*
G01X4335280Y5561429D01*
G01X4320261Y5555492D01*
G01X4307122Y5546099D01*
G01X4296643Y5533809D01*
G01X4289447Y5519350D01*
G01X4285958Y5503581D01*
G01X4286386Y5487435D01*
G01X4290703Y5471872D01*
G01X4290703Y5471872D01*
G01X4298655Y5457815D01*
G01X4309769Y5446096D01*
G01X4323387Y5437412D01*
G01X4338699Y5432277D01*
G01X4354799Y5430996D01*
G01X4370731Y5433645D01*
G01X4385551Y5440067D01*
G01X4398378Y5449881D01*
G01X4408452Y5462505D01*
G01X4424483Y5442551D01*
G01X4442582Y5424452D01*
G01X4462536Y5408421D01*
G01X4449913Y5398347D01*
G01X4440099Y5385519D01*
G01X4433677Y5370700D01*
G01X4431028Y5354768D01*
G01X4432309Y5338668D01*
G01X4437444Y5323355D01*
G01X4446128Y5309738D01*
G01X4457847Y5298624D01*
G01X4471905Y5290672D01*
G01X4471905Y5290672D01*
G01X4487468Y5286355D01*
G01X4503613Y5285927D01*
G01X4519382Y5289416D01*
G01X4533841Y5296613D01*
G01X4546131Y5307091D01*
G01X4555524Y5320230D01*
G01X4561461Y5335250D01*
G01X4563592Y5351259D01*
G01X4561790Y5367309D01*
G01X4561790Y5367309D01*
G01X4580848Y5364969D01*
G01X4600033Y5364188D01*
G01X4600033Y5364188D01*
G01X4619218Y5364969D01*
G01X4638276Y5367309D01*
G01X4636473Y5351259D01*
G01X4638604Y5335250D01*
G01X4644542Y5320230D01*
G01X4653935Y5307091D01*
G01X4666225Y5296613D01*
G01X4680683Y5289416D01*
G01X4696453Y5285928D01*
G01X4712598Y5286355D01*
G01X4728161Y5290673D01*
G01X4728161Y5290673D01*
G01X4742219Y5298624D01*
G01X4753937Y5309739D01*
G01X4762622Y5323356D01*
G01X4767756Y5338669D01*
G01X4769037Y5354769D01*
G01X4766388Y5370701D01*
G01X4759966Y5385520D01*
G01X4750153Y5398347D01*
G01X4737529Y5408422D01*
G01X4737529Y5408422D01*
G01X4757483Y5424452D01*
G01X4775582Y5442551D01*
G01X4791613Y5462505D01*
G01X4791613Y5462505D01*
G01X4801687Y5449882D01*
G01X4814514Y5440068D01*
G01X4829334Y5433647D01*
G01X4845266Y5430998D01*
G01X4861366Y5432279D01*
G01X4876678Y5437413D01*
G01X4890296Y5446098D01*
G01X4901410Y5457816D01*
G01X4909361Y5471874D01*
G01X4913679Y5487437D01*
G01X4914106Y5503582D01*
G01X4910618Y5519352D01*
G01X4903421Y5533810D01*
G01X4892943Y5546100D01*
G01X4879804Y5555493D01*
G01X4864784Y5561431D01*
G01X4848774Y5563562D01*
G01X4832725Y5561759D01*
G01X4835499Y5587204D01*
G01X4835499Y5612800D01*
G01X4832724Y5638245D01*
G01X4832724Y5638245D01*
G01X4848774Y5636443D01*
G01X4864784Y5638574D01*
G01X4879804Y5644511D01*
G01X4892942Y5653904D01*
G01X4903421Y5666194D01*
G01X4910618Y5680653D01*
G01X4914106Y5696422D01*
G01X4913679Y5712568D01*
G01X4909361Y5728131D01*
G01X4901409Y5742188D01*
G01X4890295Y5753907D01*
G01X4876678Y5762591D01*
G01X4861365Y5767726D01*
G01X4845265Y5769007D01*
G01X4829333Y5766358D01*
G01X4814514Y5759936D01*
G01X4801687Y5750122D01*
G01X4791612Y5737498D01*
G01X4775581Y5757452D01*
G01X4757482Y5775551D01*
G01X4737528Y5791582D01*
G01X4750152Y5801656D01*
G01X4759965Y5814484D01*
G01X4766387Y5829303D01*
G01X4769036Y5845235D01*
G01X4767755Y5861335D01*
G01X4762620Y5876648D01*
G01X4753936Y5890265D01*
G01X4742217Y5901379D01*
G01X4728160Y5909331D01*
G01X4728160Y5909331D01*
G01X4712597Y5913648D01*
G01X4696452Y5914076D01*
G01X4680682Y5910587D01*
G01X4666223Y5903390D01*
G01X4653933Y5892912D01*
G01X4644541Y5879773D01*
G01X4638603Y5864753D01*
G01X4636472Y5848744D01*
G01X4638275Y5832694D01*
G01X4638275Y5832694D01*
G01X4612829Y5835468D01*
G01X4587234Y5835468D01*
G01X4561789Y5832694D01*
G01X4561789Y5832694D01*
G01X4563591Y5848744D01*
G01X4561460Y5864753D01*
G01X4555522Y5879773D01*
G01X4546130Y5892912D01*
G01X4533840Y5903390D01*
G01X4519381Y5910587D01*
G01X4503611Y5914075D01*
G01X4487466Y5913648D01*
G01X4471903Y5909330D01*
G01X4457846Y5901379D01*
G01X4446127Y5890264D01*
G01X4437443Y5876647D01*
G01X4432308Y5861334D01*
G01X4431027Y5845234D01*
G01X4433676Y5829302D01*
G01X4440098Y5814483D01*
G01X4449912Y5801656D01*
G01X4462535Y5791581D01*
G01X4462535Y5791581D01*
G01X4442581Y5775551D01*
G01X4424482Y5757452D01*
G01X4408452Y5737498D01*
G01X4408452Y5737498D01*
G01X4398377Y5750121D01*
G01X4385550Y5759935D01*
G01X4370731Y5766356D01*
G01X4354799Y5769005D01*
G01X4338699Y5767724D01*
G01X4323386Y5762590D01*
G01X4309769Y5753905D01*
G01X4298655Y5742187D01*
G01X4290703Y5728129D01*
G01X4286385Y5712566D01*
G01X4285958Y5696421D01*
G01X3679710Y5696421D01*
G01X3665593Y5699900D01*
G01X3649607Y5699900D01*
G01X3634085Y5696075D01*
G01X3619929Y5688645D01*
G01X3607963Y5678044D01*
G01X3598882Y5664887D01*
G01X3593213Y5649940D01*
G01X3591286Y5634070D01*
G01X3591286Y5634070D01*
G01X3185814Y5634070D01*
G01X3185814Y5700000D01*
G01X3187740Y5731844D01*
G01X3193491Y5763224D01*
G01X3202982Y5793682D01*
G01X3207581Y5803900D01*
G01X3946886Y5803900D01*
G01X3948813Y5788030D01*
G01X3954482Y5773082D01*
G01X3963563Y5759926D01*
G01X3975529Y5749325D01*
G01X3989685Y5741895D01*
G01X4005207Y5738069D01*
G01X4021193Y5738069D01*
G01X4036715Y5741895D01*
G01X4050871Y5749325D01*
G01X4062837Y5759926D01*
G01X4071918Y5773082D01*
G01X4077587Y5788030D01*
G01X4079514Y5803900D01*
G01X4077587Y5819770D01*
G01X4071918Y5834718D01*
G01X4062837Y5847874D01*
G01X4050871Y5858475D01*
G01X4036715Y5865905D01*
G01X4021193Y5869731D01*
G01X4005207Y5869731D01*
G01X3989685Y5865905D01*
G01X3975529Y5858475D01*
G01X3963563Y5847874D01*
G01X3954482Y5834718D01*
G01X3948813Y5819770D01*
G01X3946886Y5803900D01*
G01X3946886Y5803900D01*
G01X3207581Y5803900D01*
G01X3216075Y5822773D01*
G01X3232579Y5850075D01*
G01X3252254Y5875188D01*
G01X3274812Y5897746D01*
G01X3299925Y5917421D01*
G01X3327227Y5933925D01*
G01X3356318Y5947018D01*
G01X3386776Y5956509D01*
G01X3418156Y5962260D01*
G01X3450000Y5964186D01*
G01X4700000Y5964186D01*
G01X4731844Y5962260D01*
G01X4763224Y5956509D01*
G01X4793682Y5947018D01*
G01X4822773Y5933925D01*
G01X4850075Y5917421D01*
G01X4875188Y5897746D01*
G01X4897746Y5875188D01*
G01X4917421Y5850075D01*
G01X4933925Y5822773D01*
G01X4947018Y5793682D01*
G01X4956509Y5763224D01*
G01X4962260Y5731844D01*
G01X4964186Y5700000D01*
G01X4964186Y300000D01*
G01X4962260Y268156D01*
G01X4956509Y236776D01*
G01X4947018Y206318D01*
G01X4933925Y177227D01*
G01X4917421Y149925D01*
G01X4897746Y124812D01*
G01X4875188Y102254D01*
G01X4850075Y82579D01*
G01X4822773Y66075D01*
G01X4793682Y52982D01*
G01X4763224Y43491D01*
G01X4731844Y37740D01*
G01X4700000Y35814D01*
G01X4602412Y35814D01*
G01X4602412Y739696D01*
G01X4642798Y739696D01*
G01X4653866Y741449D01*
G01X4663849Y746536D01*
G01X4671773Y754459D01*
G01X4676860Y764443D01*
G01X4678612Y775510D01*
G01X4678612Y902510D01*
G01X4676860Y913577D01*
G01X4671773Y923561D01*
G01X4663849Y931484D01*
G01X4653866Y936571D01*
G01X4642798Y938324D01*
G01X4602412Y938324D01*
G01X4602412Y1199944D01*
G01X4600660Y1211011D01*
G01X4595573Y1220995D01*
G01X4587649Y1228918D01*
G01X4577666Y1234005D01*
G01X4566598Y1235758D01*
G01X4033198Y1235758D01*
G01X4022130Y1234005D01*
G01X4012145Y1228917D01*
G01X4004222Y1220992D01*
G01X3999136Y1211006D01*
G01X3997384Y1199938D01*
G01X3997479Y684413D01*
G01X3957100Y684413D01*
G01X3946033Y682660D01*
G01X3936049Y677573D01*
G01X3928126Y669650D01*
G01X3923039Y659666D01*
G01X3921286Y648599D01*
G01X3921286Y508899D01*
G01X3923039Y497832D01*
G01X3928126Y487848D01*
G01X3936049Y479925D01*
G01X3946033Y474838D01*
G01X3957100Y473085D01*
G01X3995675Y473085D01*
G01X3995675Y35814D01*
G01X3410814Y35814D01*
G01X3410814Y279400D01*
G01X3565886Y279400D01*
G01X3567813Y263530D01*
G01X3573482Y248582D01*
G01X3582563Y235426D01*
G01X3594529Y224825D01*
G01X3608685Y217395D01*
G01X3624207Y213569D01*
G01X3640193Y213569D01*
G01X3655715Y217395D01*
G01X3669871Y224825D01*
G01X3681837Y235426D01*
G01X3690918Y248582D01*
G01X3696587Y263530D01*
G01X3698514Y279400D01*
G01X3696587Y295270D01*
G01X3690918Y310218D01*
G01X3681837Y323374D01*
G01X3669871Y333975D01*
G01X3655715Y341405D01*
G01X3640193Y345231D01*
G01X3624207Y345231D01*
G01X3608685Y341405D01*
G01X3594529Y333975D01*
G01X3582563Y323374D01*
G01X3573482Y310218D01*
G01X3567813Y295270D01*
G01X3565886Y279400D01*
G01X3565886Y279400D01*
G01X3410814Y279400D01*
G01X3410814Y400000D01*
G01X3409061Y411067D01*
G01X3403974Y421051D01*
G01X3396051Y428974D01*
G01X3386067Y434061D01*
G01X3375000Y435814D01*
G01X3125000Y435814D01*
G01X3113933Y434061D01*
G01X3103949Y428974D01*
G01X3096026Y421051D01*
G01X3090939Y411067D01*
G01X3089186Y400000D01*
G01X3089186Y362968D01*
G37*
G54D10*
G01X2044700Y950214D02*
G01X1839064Y950214D01*
G01X1838960Y1062592D01*
G01X1936446Y1160078D01*
G01X2331379Y1160078D01*
G03X2397249Y1101423I65870J7659D01*
G03X2463120Y1160078I0J66314D01*
G01X2536881Y1160078D01*
G03X2602751Y1101423I65870J7659D01*
G03X2668622Y1160078I0J66314D01*
G01X3164019Y1160078D01*
G03X3171203Y1163054I0J10160D01*
G01X3191789Y1183640D01*
G01X3234292Y1183640D01*
G01X3278886Y1139046D01*
G01X3278886Y1010695D01*
G01X3218405Y950214D01*
G01X2921000Y950214D01*
G03X2886695Y936005I0J-48514D01*
G01X2786605Y835914D01*
G01X2577591Y835914D01*
G03X2545222Y939454I-52598J40386D01*
G03X2528504Y1069603I-17922J63846D01*
G03X2507072Y940146I-1204J-66303D01*
G03X2472396Y835914I17922J-63846D01*
G01X2179095Y835914D01*
G01X2079005Y936005D01*
G03X2044700Y950214I-34305J-34305D01*
G01X2321286Y990600D02*
G03X2453914Y990600I66314J0D01*
G03X2321286Y990600I-66314J0D01*
G01X2816586Y1016000D02*
G03X2949214Y1016000I66314J0D01*
G03X2816586Y1016000I-66314J0D01*
G01X35814Y4140210D02*
G01X35814Y5044986D01*
G01X1140517Y5044986D01*
G01X1783222Y4402281D01*
G03X1825942Y4384586I42719J42719D01*
G01X2591176Y4384586D01*
G01X2657386Y4318376D01*
G01X2657386Y4064908D01*
G03X2575286Y4000500I-15786J-64408D01*
G03X2657386Y3936092I66314J0D01*
G01X2657386Y3670850D01*
G03X2537186Y3632200I-53886J-38650D01*
G03X2657386Y3593550I66314J0D01*
G01X2657386Y3531774D01*
G03X2549886Y3479800I-41186J-51974D01*
G03X2657386Y3427826I66314J0D01*
G01X2657386Y3145984D01*
G03X2573108Y3121945I-28486J-59884D01*
G03X2586275Y3035300I55792J-35845D01*
G03X2587533Y2932670I42625J-50800D01*
G03X2597087Y2809373I28667J-59798D01*
G03X2557418Y2715177I19113J-63500D01*
G03X2657386Y2693899I58782J30695D01*
G01X2657386Y2603772D01*
G03X2545727Y2555384I-45345J-48388D01*
G03X2657386Y2506996I66314J0D01*
G01X2657386Y2339534D01*
G03X2562586Y2279650I-28486J-59884D01*
G03X2657386Y2219766I66314J0D01*
G01X2657386Y2112747D01*
G01X2545065Y2000426D01*
G01X2395362Y2000426D01*
G03X2326839Y2074481I-65854J7795D01*
G03X2264493Y1995156I2668J-66260D01*
G03X2246452Y1982731I24678J-55144D01*
G01X2089435Y1825714D01*
G01X35814Y1825714D01*
G01X35814Y4063990D01*
G03X146642Y4067478I54269J38110D01*
G03X269514Y4102100I56558J34622D01*
G03X146642Y4136722I-66314J0D01*
G03X35814Y4140210I-56558J-34622D01*
G01X86086Y1930400D02*
G03X218714Y1930400I66314J0D01*
G03X86086Y1930400I-66314J0D01*
G01X174986Y4686300D02*
G03X307614Y4686300I66314J0D01*
G03X174986Y4686300I-66314J0D01*
G01X187686Y3213100D02*
G03X320314Y3213100I66314J0D01*
G03X187686Y3213100I-66314J0D01*
G01X225786Y3479800D02*
G03X358414Y3479800I66314J0D01*
G03X225786Y3479800I-66314J0D01*
G01X352786Y1930400D02*
G03X485414Y1930400I66314J0D01*
G03X352786Y1930400I-66314J0D01*
G01X416286Y3687571D02*
G03X548914Y3687571I66314J0D01*
G03X416286Y3687571I-66314J0D01*
G01X479786Y3035300D02*
G03X612414Y3035300I66314J0D01*
G03X479786Y3035300I-66314J0D01*
G01X479786Y3302000D02*
G03X612414Y3302000I66314J0D01*
G03X479786Y3302000I-66314J0D01*
G01X492486Y4648200D02*
G03X625114Y4648200I66314J0D01*
G03X492486Y4648200I-66314J0D01*
G01X632186Y2362200D02*
G03X764814Y2362200I66314J0D01*
G03X632186Y2362200I-66314J0D01*
G01X644886Y3733800D02*
G03X777514Y3733800I66314J0D01*
G03X644886Y3733800I-66314J0D01*
G01X861648Y3733800D02*
G03X994276Y3733800I66314J0D01*
G03X861648Y3733800I-66314J0D01*
G01X933216Y2764218D02*
G03X1065844Y2764218I66314J0D01*
G03X933216Y2764218I-66314J0D01*
G01X962386Y3441700D02*
G03X1095014Y3441700I66314J0D01*
G03X962386Y3441700I-66314J0D01*
G01X975086Y2400300D02*
G03X1107714Y2400300I66314J0D01*
G03X975086Y2400300I-66314J0D01*
G01X1091032Y3619500D02*
G03X1223660Y3619500I66314J0D01*
G03X1091032Y3619500I-66314J0D01*
G01X1127486Y3314700D02*
G03X1260114Y3314700I66314J0D01*
G03X1127486Y3314700I-66314J0D01*
G01X1178286Y4711700D02*
G03X1310914Y4711700I66314J0D01*
G03X1178286Y4711700I-66314J0D01*
G01X1190986Y2603500D02*
G03X1323614Y2603500I66314J0D01*
G03X1190986Y2603500I-66314J0D01*
G01X1467669Y3613605D02*
G03X1347156Y3559359I-57969J-32205D01*
G03X1237431Y3485695I-51756J-41459D01*
G03X1357944Y3539941I57969J32205D01*
G03X1467669Y3613605I51756J41459D01*
G01X1388692Y3433383D02*
G03X1521320Y3433383I66314J0D01*
G03X1388692Y3433383I-66314J0D01*
G01X1444986Y4445000D02*
G03X1577614Y4445000I66314J0D01*
G03X1444986Y4445000I-66314J0D01*
G01X1570088Y3016787D02*
G03X1695552Y2996861I65720J8854D01*
G03X1811269Y3049281I49997J43565D01*
G03X1685805Y3069206I-65720J-8854D01*
G03X1570088Y3016787I-49997J-43565D01*
G01X1610162Y3767715D02*
G03X1742790Y3767715I66314J0D01*
G03X1610162Y3767715I-66314J0D01*
G01X1702058Y3316140D02*
G03X1834686Y3316140I66314J0D01*
G03X1702058Y3316140I-66314J0D01*
G01X1864086Y2057400D02*
G03X1996714Y2057400I66314J0D01*
G03X1864086Y2057400I-66314J0D01*
G01X2031552Y3490091D02*
G03X2164180Y3490091I66314J0D01*
G03X2031552Y3490091I-66314J0D01*
G01X2033106Y2404220D02*
G03X2165734Y2404220I66314J0D01*
G03X2033106Y2404220I-66314J0D01*
G01X2202701Y3663802D02*
G03X2221685Y3539782I30744J-58757D01*
G03X2282764Y3649375I11760J65263D01*
G03X2263780Y3773395I-30744J58757D01*
G03X2202701Y3663802I-11760J-65263D01*
G01X2191036Y4275918D02*
G03X2251345Y4175575I56864J-34118D01*
G03X2368264Y4169582I60055J28125D01*
G03X2307955Y4269925I-56864J34118D01*
G03X2191036Y4275918I-60055J-28125D01*
G01X35814Y1678042D02*
G01X35814Y1704886D01*
G01X2100916Y1704886D01*
G01X1937915Y1541885D01*
G03X1919986Y1498600I43285J-43285D01*
G01X1919986Y1472417D01*
G01X1919843Y1468858D01*
G01X1919516Y1465805D01*
G01X1918036Y1457224D01*
G01X1916685Y1450441D01*
G03X1969364Y1369851I64515J-15341D01*
G03X2046993Y1426803I11836J65249D01*
G01X2050744Y1430774D01*
G01X2082032Y1462062D01*
G03X2099920Y1503127I-43285J43285D01*
G02X2125392Y1556222I88242J-9675D01*
G01X2328483Y1759314D01*
G01X2660543Y1759314D01*
G03X2685868Y1769803I0J35814D01*
G01X2772474Y1856410D01*
G03X2782963Y1881734I-25324J25324D01*
G01X2782963Y1908994D01*
G01X2913485Y2039515D01*
G03X2931414Y2082800I-43285J43285D01*
G01X2931414Y2690919D01*
G03X2937495Y2683495I40386J26881D01*
G01X3278886Y2342105D01*
G01X3278886Y1204063D01*
G01X3263824Y1219124D01*
G03X3238500Y1229614I-25324J-25324D01*
G01X3187581Y1229614D01*
G03X3162256Y1219124I0J-35814D01*
G01X3149184Y1206052D01*
G01X3118136Y1206052D01*
G03X2986940Y1206052I-65598J-9719D01*
G01X2656877Y1206052D01*
G03X2648106Y1216116I-54125J-38315D01*
G03X2637497Y1224220I-45354J-48379D01*
G03X2691580Y1278304I-137497J191580D01*
G03X2809329Y1287673I56483J34746D01*
G03X2732692Y1377558I-61266J25377D01*
G03X2735814Y1415801I-232692J38242D01*
G03X2732692Y1454044I-235814J-1D01*
G03X2809329Y1543929I15371J64508D01*
G03X2691580Y1553297I-61266J-25377D01*
G03X2637496Y1607381I-191580J-137497D01*
G03X2628127Y1725129I-34746J56483D01*
G03X2538242Y1648492I-25377J-61266D01*
G03X2461756Y1648492I-38242J-232692D01*
G03X2371871Y1725129I-64508J15371D01*
G03X2362503Y1607380I25377J-61266D01*
G03X2308419Y1553296I137497J-191580D01*
G03X2190671Y1543928I-56483J-34746D01*
G03X2267307Y1454042I61266J-25377D01*
G03X2267308Y1377556I232692J-38242D01*
G03X2190671Y1287671I-15371J-64508D01*
G03X2308420Y1278303I61266J25377D01*
G03X2362504Y1224220I191580J137497D01*
G03X2343125Y1206052I34746J-56483D01*
G01X1932238Y1206052D01*
G03X1906914Y1195562I0J-35814D01*
G01X1803476Y1092124D01*
G03X1792986Y1066800I25324J-25324D01*
G01X1792986Y950214D01*
G01X1772695Y950214D01*
G01X1291605Y1431305D01*
G03X1257300Y1445514I-34305J-34305D01*
G01X840013Y1445514D01*
G03X818089Y1544787I-52547J40453D01*
G03X724191Y1505811I-30622J-58821D01*
G03X616365Y1562830I-66086J5489D01*
G03X649753Y1445514I41740J-51530D01*
G01X440152Y1445514D01*
G03X431800Y1577614I-8352J65786D01*
G03X423448Y1445514I0J-66314D01*
G01X266700Y1445514D01*
G03X232395Y1431305I0J-48514D01*
G01X176132Y1375041D01*
G01X174409Y1374542D01*
G01X171762Y1374139D01*
G03X111714Y1302599I6038J-66039D01*
G03X182763Y1241972I66086J5501D01*
G01X118095Y1177305D01*
G03X103886Y1143000I34305J-34305D01*
G01X103886Y312855D01*
G01X103021Y311284D01*
G01X101434Y309127D01*
G03X152400Y200386I50966J-42427D01*
G03X203366Y309127I0J66314D01*
G01X201779Y311284D01*
G01X200914Y312855D01*
G01X200914Y1122905D01*
G01X350295Y1272286D01*
G01X1176091Y1272286D01*
G01X1632977Y815400D01*
G03X1602393Y693548I5323J-66100D01*
G03X1700682Y771795I35907J55752D01*
G01X1952467Y771795D01*
G01X1973160Y751102D01*
G03X1860187Y669699I-27159J-81403D01*
G01X1860187Y589699D01*
G03X1994278Y518753I85814J0D01*
G01X1994278Y355645D01*
G03X1910814Y362968I-48278J-70946D01*
G01X1910814Y400000D01*
G03X1875000Y435814I-35814J0D01*
G01X1625000Y435814D01*
G03X1589186Y400000I0J-35814D01*
G01X1589186Y35814D01*
G01X1002514Y35814D01*
G01X1002514Y473085D01*
G01X1042900Y473085D01*
G03X1078714Y508899I0J35814D01*
G01X1078714Y648599D01*
G03X1042900Y684413I-35814J0D01*
G01X1002584Y684413D01*
G01X1002584Y1026270D01*
G01X1002616Y1199938D01*
G03X966717Y1235758I-35814J7D01*
G01X433402Y1235758D01*
G03X397588Y1199944I0J-35814D01*
G01X397588Y938324D01*
G01X357202Y938324D01*
G03X321388Y902510I0J-35814D01*
G01X321388Y775510D01*
G03X357202Y739696I35814J0D01*
G01X397588Y739696D01*
G01X397588Y35814D01*
G01X300000Y35814D01*
G02X35814Y300000I0J264186D01*
G01X35814Y1598558D01*
G03X155214Y1638300I53086J39742D01*
G03X35814Y1678042I-66314J0D01*
G01X1063986Y139700D02*
G03X1196614Y139700I66314J0D01*
G03X1063986Y139700I-66314J0D01*
G01X1178286Y546100D02*
G03X1310914Y546100I66314J0D01*
G03X1178286Y546100I-66314J0D01*
G01X1279886Y254000D02*
G03X1412514Y254000I66314J0D01*
G03X1279886Y254000I-66314J0D01*
G01X1571986Y609600D02*
G03X1704614Y609600I66314J0D01*
G03X1571986Y609600I-66314J0D01*
G01X1637328Y1433965D02*
G03X1769956Y1433965I66314J0D01*
G03X1637328Y1433965I-66314J0D01*
G01X1711686Y1206500D02*
G03X1844314Y1206500I66314J0D01*
G03X1711686Y1206500I-66314J0D01*
G01X1838686Y1625600D02*
G03X1971314Y1625600I66314J0D01*
G03X1838686Y1625600I-66314J0D01*
G01X1991086Y1320800D02*
G03X2123714Y1320800I66314J0D01*
G03X1991086Y1320800I-66314J0D01*
G01X2892786Y1460500D02*
G03X3025414Y1460500I66314J0D01*
G03X2892786Y1460500I-66314J0D01*
G01X3045186Y1663700D02*
G03X3177814Y1663700I66314J0D01*
G03X3045186Y1663700I-66314J0D01*
G01X3083286Y1968500D02*
G03X3215914Y1968500I66314J0D01*
G03X3083286Y1968500I-66314J0D01*
G01X3277248Y3851079D02*
G02X3383559Y3909645I154281J-154281D01*
G01X3393186Y3900018D01*
G01X3393186Y3619770D01*
G03X3285904Y3573881I-41244J-51928D01*
G01X3285500Y3571233D01*
G01X3285001Y3569510D01*
G01X3241128Y3525637D01*
G03X3207916Y3588168I-66128J4963D01*
G03X3168241Y3682783I-58592J31056D01*
G03X3083286Y3625262I-18917J-63559D01*
G01X3082882Y3622615D01*
G01X3082383Y3620892D01*
G01X2937495Y3476005D01*
G03X2931414Y3468581I34305J-34305D01*
G01X2931414Y3505244D01*
G01X3277248Y3851079D01*
G01X3089186Y362968D02*
G03X2993006Y345064I-35186J-78268D01*
G01X2993006Y529335D01*
G03X3139813Y589699I60993J60365D01*
G01X3139813Y669699D01*
G03X3105812Y738105I-85814J0D01*
G01X3144693Y776986D01*
G01X3276600Y776986D01*
G03X3310905Y791195I0J48514D01*
G01X3450605Y930895D01*
G03X3464814Y965200I-34305J34305D01*
G01X3464814Y2387600D01*
G03X3450605Y2421905I-48514J0D01*
G01X3083814Y2788695D01*
G01X3083814Y3231105D01*
G01X3353610Y3500901D01*
G01X3355333Y3501400D01*
G01X3357981Y3501804D01*
G03X3393186Y3515914I-6039J66038D01*
G01X3393186Y3390856D01*
G01X3131715Y3129385D01*
G03X3113786Y3086100I43285J-43285D01*
G01X3113786Y2928293D01*
G03X3131715Y2885008I61214J0D01*
G01X3189808Y2826915D01*
G03X3233093Y2808986I43285J43285D01*
G01X3342894Y2808986D01*
G03X3350444Y2809453I0J61214D01*
G01X3289300Y2748309D01*
G03X3275090Y2714004I34305J-34305D01*
G01X3275090Y2700455D01*
G01X3274225Y2698884D01*
G01X3272638Y2696727D01*
G03X3323474Y2587986I50966J-42427D01*
G03X3374736Y2696527I130J66314D01*
G01X3579011Y2900802D01*
G03X3685286Y2855702I65889J7498D01*
G01X3685286Y1854200D01*
G03X3699495Y1819895I48514J0D01*
G01X3995935Y1523456D01*
G03X3928209Y1413609I-20835J-62956D01*
G03X4038056Y1481335I46891J46891D01*
G01X4118595Y1400795D01*
G03X4152900Y1386586I34305J34305D01*
G01X4564605Y1386586D01*
G01X4654937Y1296254D01*
G01X4655436Y1294531D01*
G01X4655840Y1291884D01*
G03X4768769Y1251031I66039J6038D01*
G03X4727916Y1363960I-46891J46891D01*
G01X4725269Y1364364D01*
G01X4723546Y1364863D01*
G01X4619005Y1469405D01*
G03X4584700Y1483614I-34305J-34305D01*
G01X4172995Y1483614D01*
G01X4116317Y1540293D01*
G03X4127500Y1538986I11183J47207D01*
G01X4755105Y1538986D01*
G01X4840986Y1453105D01*
G01X4840986Y413795D01*
G01X4824332Y397141D01*
G01X4822609Y396642D01*
G01X4819962Y396239D01*
G03X4779109Y283309I6038J-66039D01*
G03X4892039Y324162I46891J46891D01*
G01X4892442Y326809D01*
G01X4892941Y328532D01*
G01X4923805Y359395D01*
G03X4938014Y393700I-34305J34305D01*
G01X4938014Y1473200D01*
G03X4923805Y1507505I-48514J0D01*
G01X4809505Y1621805D01*
G03X4775200Y1636014I-34305J-34305D01*
G01X4558328Y1636014D01*
G03X4536922Y1765092I-21406J62764D01*
G03X4515516Y1636014I0J-66314D01*
G01X4147595Y1636014D01*
G01X3871214Y1912395D01*
G01X3871214Y2077132D01*
G03X3948035Y2142608I10507J65476D01*
G03X3871214Y2208085I-66314J0D01*
G01X3871214Y3890845D01*
G01X3872079Y3892416D01*
G01X3873666Y3894573D01*
G03X3881024Y3968558I-50966J42427D01*
G03X3815067Y4002873I-58324J-31558D01*
G03X3816133Y4072602I-55867J35727D01*
G03X3754237Y4104728I-56933J-34002D01*
G01X3880895Y4231386D01*
G01X4182945Y4231386D01*
G01X4184516Y4230521D01*
G01X4186673Y4228934D01*
G03X4295414Y4279900I42427J50966D01*
G03X4186673Y4330866I-66314J0D01*
G01X4184516Y4329279D01*
G01X4182945Y4328414D01*
G01X3860800Y4328414D01*
G03X3826495Y4314205I0J-48514D01*
G01X3800034Y4287743D01*
G03X3734011Y4359020I-66128J4963D01*
G03X3667763Y4287953I-105J-66314D01*
G01X3667755Y4287562D01*
G01X3521695Y4141502D01*
G03X3507486Y4107197I34305J-34305D01*
G01X3507486Y3955854D01*
G03X3497685Y3968659I-53086J-30480D01*
G01X3139008Y4327336D01*
G01X3139008Y4643159D01*
G01X3141242Y4643070D01*
G01X3144295Y4642742D01*
G01X3152876Y4641262D01*
G01X3159659Y4639911D01*
G03X3231467Y4669655I15341J64515D01*
G01X3235308Y4675407D01*
G01X3240329Y4682521D01*
G01X3242256Y4684911D01*
G01X3244672Y4687529D01*
G01X3256264Y4699121D01*
G03X3274155Y4740244I-43285J43285D01*
G02X3299625Y4793531I88168J-9411D01*
G01X3359779Y4853686D01*
G01X3427463Y4853686D01*
G03X3441164Y4739137I39334J-53389D01*
G03X3462053Y4610480I22546J-62364D01*
G03X3489343Y4737933I1657J66293D01*
G03X3506131Y4853686I-22546J62364D01*
G01X3543344Y4853686D01*
G01X3642051Y4754979D01*
G03X3559793Y4651993I-35367J-56096D01*
G03X3662779Y4734251I46891J46891D01*
G01X3919115Y4477915D01*
G03X3962400Y4459986I43285J43285D01*
G01X4046289Y4459986D01*
G03X4127603Y4434586I55811J35814D01*
G01X4140200Y4434586D01*
G03X4183485Y4452515I0J61214D01*
G01X4190852Y4459882D01*
G03X4228711Y4541559I-25252J61318D01*
G03X4150259Y4585715I-63111J-20359D01*
G01X4143476Y4584364D01*
G01X4134895Y4582884D01*
G01X4131842Y4582557D01*
G01X4128283Y4582414D01*
G01X3987756Y4582414D01*
G01X3611985Y4958185D01*
G03X3568700Y4976114I-43285J-43285D01*
G01X3334424Y4976114D01*
G03X3291139Y4958185I0J-61214D01*
G01X3182127Y4849174D01*
G03X3185814Y4865000I-32127J15826D01*
G01X3185814Y5700000D01*
G02X3450000Y5964186I264186J0D01*
G01X4700000Y5964186D01*
G02X4964186Y5700000I0J-264186D01*
G01X4964186Y300000D01*
G02X4700000Y35814I-264186J0D01*
G01X4602412Y35814D01*
G01X4602412Y739696D01*
G01X4642798Y739696D01*
G03X4678612Y775510I0J35814D01*
G01X4678612Y902510D01*
G03X4642798Y938324I-35814J0D01*
G01X4602412Y938324D01*
G01X4602412Y1199944D01*
G03X4566598Y1235758I-35814J0D01*
G01X4033198Y1235758D01*
G03X3997384Y1199938I0J-35814D01*
G01X3997479Y684413D01*
G01X3957100Y684413D01*
G03X3921286Y648599I0J-35814D01*
G01X3921286Y508899D01*
G03X3957100Y473085I35814J0D01*
G01X3995675Y473085D01*
G01X3995675Y35814D01*
G01X3410814Y35814D01*
G01X3410814Y400000D01*
G03X3375000Y435814I-35814J0D01*
G01X3125000Y435814D01*
G03X3089186Y400000I0J-35814D01*
G01X3089186Y362968D01*
G01X3210286Y5067300D02*
G03X3342914Y5067300I66314J0D01*
G03X3210286Y5067300I-66314J0D01*
G01X3248668Y5537200D02*
G03X3381297Y5537200I66314J0D01*
G03X3248668Y5537200I-66314J0D01*
G01X3286486Y5194300D02*
G03X3419114Y5194300I66314J0D01*
G03X3286486Y5194300I-66314J0D01*
G01X3362686Y546100D02*
G03X3495314Y546100I66314J0D01*
G03X3362686Y546100I-66314J0D01*
G01X3527680Y4318106D02*
G03X3660308Y4318106I66314J0D01*
G03X3527680Y4318106I-66314J0D01*
G01X3618524Y1425207D02*
G03X3567717Y1317474I976J-66307D01*
G03X3683976Y1343393I51783J41426D01*
G03X3734783Y1451126I-976J66307D01*
G03X3618524Y1425207I-51783J-41426D01*
G01X3565886Y279400D02*
G03X3698514Y279400I66314J0D01*
G03X3565886Y279400I-66314J0D01*
G01X3591286Y5634070D02*
G03X3723914Y5634070I66314J0D01*
G03X3591286Y5634070I-66314J0D01*
G01X3705586Y584200D02*
G03X3838214Y584200I66314J0D01*
G03X3705586Y584200I-66314J0D01*
G01X3946886Y5803900D02*
G03X4079514Y5803900I66314J0D01*
G03X3946886Y5803900I-66314J0D01*
G01X4047449Y2523605D02*
G03X4052932Y2402696I29829J-59226D01*
G03X4128140Y2320167I64055J-17160D01*
G03X4247367Y2290426I65653J9341D01*
G03X4182641Y2394877I-53574J39082D01*
G03X4141334Y2447219I-65653J-9341D01*
G03X4047449Y2523605I-64055J17160D01*
G01X4048486Y5308600D02*
G03X4181114Y5308600I66314J0D01*
G03X4048486Y5308600I-66314J0D01*
G01X4135446Y2717318D02*
G03X4061294Y2615125I-20646J-63018D01*
G03X4181111Y2654948I53506J39175D01*
G03X4267941Y2713811I20646J63018D01*
G03X4364873Y2797732I37359J54789D01*
G03X4239116Y2772755I-59573J-29132D01*
G03X4135446Y2717318I-37359J-54789D01*
G01X4124686Y4991100D02*
G03X4257314Y4991100I66314J0D01*
G03X4124686Y4991100I-66314J0D01*
G01X4226286Y3175000D02*
G03X4358914Y3175000I66314J0D01*
G03X4226286Y3175000I-66314J0D01*
G01X4247108Y2602698D02*
G03X4241866Y2514846I46901J-46881D01*
G03X4247113Y2426979I52139J-40976D01*
G03X4334980Y2421729I46892J46890D01*
G03X4422830Y2427008I40949J52161D01*
G03X4428072Y2514861I-46901J46881D01*
G03X4422825Y2602728I-52139J40976D01*
G03X4334958Y2607978I-46892J-46890D01*
G03X4247108Y2602698I-40949J-52161D01*
G01X4728161Y5290673D02*
G03X4737529Y5408422I-25377J61266D01*
G03X4791613Y5462505I-137497J191580D01*
G03X4909361Y5471874I56483J34746D01*
G03X4832725Y5561759I-61266J25377D01*
G03X4832724Y5638245I-232692J38242D01*
G03X4909361Y5728131I15371J64508D01*
G03X4791612Y5737498I-61266J-25377D01*
G03X4737528Y5791582I-191580J-137497D01*
G03X4728160Y5909331I-34746J56483D01*
G03X4638275Y5832694I-25377J-61266D01*
G03X4561789Y5832694I-38242J-232692D01*
G03X4471903Y5909330I-64508J15371D01*
G03X4462535Y5791581I25377J-61266D01*
G03X4408452Y5737498I137497J-191580D01*
G03X4290703Y5728129I-56483J-34746D01*
G03X4367340Y5638244I61266J-25377D01*
G03X4367340Y5561758I232692J-38242D01*
G03X4290703Y5471872I-15371J-64508D01*
G03X4408452Y5462505I61266J25377D01*
G03X4462536Y5408421I191580J137497D01*
G03X4471905Y5290672I34746J-56483D01*
G03X4561790Y5367309I25377J61266D01*
G03X4600033Y5364188I38242J232692D01*
G03X4638276Y5367309I-1J235814D01*
G03X4728161Y5290673I64508J-15371D01*
G01X4289786Y4076700D02*
G03X4422414Y4076700I66314J0D01*
G03X4289786Y4076700I-66314J0D01*
G01X4340586Y2070100D02*
G03X4473214Y2070100I66314J0D01*
G03X4340586Y2070100I-66314J0D01*
G01X4385036Y2876550D02*
G03X4517664Y2876550I66314J0D01*
G03X4385036Y2876550I-66314J0D01*
G01X4429486Y3352800D02*
G03X4562114Y3352800I66314J0D01*
G03X4429486Y3352800I-66314J0D01*
G01X4430079Y2350093D02*
G03X4562707Y2350093I66314J0D01*
G03X4430079Y2350093I-66314J0D01*
G01X4480286Y4610100D02*
G03X4612914Y4610100I66314J0D01*
G03X4480286Y4610100I-66314J0D01*
G01X4480286Y3898900D02*
G03X4612914Y3898900I66314J0D01*
G03X4480286Y3898900I-66314J0D01*
G01X4594586Y5003800D02*
G03X4727214Y5003800I66314J0D01*
G03X4594586Y5003800I-66314J0D01*
G01X4683486Y4292600D02*
G03X4816114Y4292600I66314J0D01*
G03X4683486Y4292600I-66314J0D01*
G01X4696186Y1435100D02*
G03X4828814Y1435100I66314J0D01*
G03X4696186Y1435100I-66314J0D01*
G01X4720049Y3354337D02*
G03X4852677Y3354337I66314J0D01*
G03X4720049Y3354337I-66314J0D01*
G01X4721586Y3695700D02*
G03X4854214Y3695700I66314J0D01*
G03X4721586Y3695700I-66314J0D01*
G01X4772386Y1854200D02*
G03X4905014Y1854200I66314J0D01*
G03X4772386Y1854200I-66314J0D01*
G04 Copper End*

G04 TearDrop Start*
G36*
G01X198182Y1346442D02*
G01X216142Y1328482D01*
G01X213512Y1324615D01*
G01X211071Y1318914D01*
G01X209190Y1312424D01*
G01X208240Y1306190D01*
G01X175890Y1338540D01*
G01X182124Y1339490D01*
G01X188614Y1341371D01*
G01X194315Y1343812D01*
G01X198182Y1346442D01*
G37*
G36*
G01X3742780Y4004220D02*
G01X3724820Y4022180D01*
G01X3725996Y4024593D01*
G01X3727167Y4029024D01*
G01X3728150Y4034617D01*
G01X3728760Y4040510D01*
G01X3761110Y4008160D01*
G01X3755217Y4007550D01*
G01X3749624Y4006567D01*
G01X3745193Y4005396D01*
G01X3742780Y4004220D01*
G37*
G36*
G01X139700Y308224D02*
G01X165100Y308224D01*
G01X165975Y303629D01*
G01X168280Y297872D01*
G01X171539Y291953D01*
G01X175275Y286874D01*
G01X129525Y286874D01*
G01X133261Y291953D01*
G01X136520Y297872D01*
G01X138825Y303629D01*
G01X139700Y308224D01*
G37*
G36*
G01X3835400Y3895476D02*
G01X3810000Y3895476D01*
G01X3809125Y3900071D01*
G01X3806820Y3905828D01*
G01X3803561Y3911747D01*
G01X3799825Y3916826D01*
G01X3845575Y3916826D01*
G01X3841839Y3911747D01*
G01X3838580Y3905828D01*
G01X3836275Y3900071D01*
G01X3835400Y3895476D01*
G37*
G36*
G01X3128942Y3580882D02*
G01X3110982Y3598842D01*
G01X3113613Y3602710D01*
G01X3116053Y3608411D01*
G01X3117934Y3614900D01*
G01X3118884Y3621134D01*
G01X3151234Y3588784D01*
G01X3145000Y3587834D01*
G01X3138511Y3585953D01*
G01X3132810Y3583513D01*
G01X3128942Y3580882D01*
G37*
G36*
G01X3331560Y3529500D02*
G01X3313600Y3547460D01*
G01X3316230Y3551327D01*
G01X3318671Y3557028D01*
G01X3320552Y3563518D01*
G01X3321502Y3569752D01*
G01X3353852Y3537402D01*
G01X3347618Y3536452D01*
G01X3341128Y3534571D01*
G01X3335427Y3532130D01*
G01X3331560Y3529500D01*
G37*
G36*
G01X4846382Y368542D02*
G01X4864342Y350582D01*
G01X4861712Y346715D01*
G01X4859271Y341014D01*
G01X4857390Y334524D01*
G01X4856440Y328290D01*
G01X4824090Y360640D01*
G01X4830324Y361590D01*
G01X4836814Y363471D01*
G01X4842515Y365912D01*
G01X4846382Y368542D01*
G37*
G36*
G01X4683536Y1318303D02*
G01X4701497Y1336264D01*
G01X4705364Y1333633D01*
G01X4711065Y1331192D01*
G01X4717554Y1329312D01*
G01X4723788Y1328362D01*
G01X4691438Y1296012D01*
G01X4690488Y1302246D01*
G01X4688608Y1308735D01*
G01X4686167Y1314436D01*
G01X4683536Y1318303D01*
G37*
G36*
G01X3310904Y2695824D02*
G01X3336304Y2695824D01*
G01X3337179Y2691229D01*
G01X3339484Y2685472D01*
G01X3342743Y2679553D01*
G01X3346479Y2674474D01*
G01X3300729Y2674474D01*
G01X3304465Y2679553D01*
G01X3307724Y2685472D01*
G01X3310030Y2691229D01*
G01X3310904Y2695824D01*
G37*
G36*
G01X3311427Y3010142D02*
G01X3329388Y2992182D01*
G01X3326757Y2988315D01*
G01X3324316Y2982614D01*
G01X3322436Y2976124D01*
G01X3321486Y2969890D01*
G01X3289136Y3002240D01*
G01X3295370Y3003190D01*
G01X3301859Y3005071D01*
G01X3307560Y3007512D01*
G01X3311427Y3010142D01*
G37*
G36*
G01X3720400Y4253637D02*
G01X3696738Y4265895D01*
G01X3698297Y4267825D01*
G01X3699737Y4270309D01*
G01X3702096Y4276397D01*
G01X3703493Y4283065D01*
G01X3703606Y4289221D01*
G01X3741152Y4263079D01*
G01X3735158Y4261238D01*
G01X3729053Y4258756D01*
G01X3723809Y4256074D01*
G01X3720400Y4253637D01*
G37*
G36*
G01X4187576Y4267200D02*
G01X4187576Y4292600D01*
G01X4192171Y4293475D01*
G01X4197928Y4295780D01*
G01X4203847Y4299039D01*
G01X4208926Y4302775D01*
G01X4208926Y4257025D01*
G01X4203847Y4260761D01*
G01X4197928Y4264020D01*
G01X4192171Y4266325D01*
G01X4187576Y4267200D01*
G37*
G36*
G01X3119468Y1006492D02*
G01X3146408Y1033432D01*
G01X3151322Y1028984D01*
G01X3156483Y1025048D01*
G01X3161057Y1022207D01*
G01X3164210Y1021040D01*
G01X3131860Y988690D01*
G01X3130693Y991843D01*
G01X3127852Y996417D01*
G01X3123916Y1001578D01*
G01X3119468Y1006492D01*
G37*
G36*
G01X2003043Y1556364D02*
G01X2043565Y1525044D01*
G01X2034037Y1514966D01*
G01X2030963Y1511017D01*
G01X2030139Y1509551D01*
G01X2029901Y1508514D01*
G01X1993899Y1535316D01*
G01X1995339Y1536217D01*
G01X1996381Y1538115D01*
G01X1997898Y1543895D01*
G01X1999701Y1550648D01*
G01X2001102Y1553761D01*
G01X2003043Y1556364D01*
G37*
G36*
G01X2020786Y1523307D02*
G01X2043487Y1474166D01*
G01X2042190Y1473227D01*
G01X2040591Y1472647D01*
G01X2036661Y1472380D01*
G01X2032040Y1473004D01*
G01X2027071Y1474160D01*
G01X2017457Y1476626D01*
G01X2013498Y1477217D01*
G01X2010562Y1476897D01*
G01X2010137Y1533956D01*
G01X2012993Y1531852D01*
G01X2016521Y1528240D01*
G01X2020786Y1523307D01*
G37*
G36*
G01X3138400Y4679026D02*
G01X3138400Y4729826D01*
G01X3143873Y4730046D01*
G01X3149256Y4730623D01*
G01X3159418Y4732377D01*
G01X3168222Y4734130D01*
G01X3175000Y4734927D01*
G01X3175000Y4673926D01*
G01X3168222Y4674723D01*
G01X3159418Y4676477D01*
G01X3149256Y4678230D01*
G01X3143873Y4678807D01*
G01X3138400Y4679026D01*
G37*
G36*
G01X3182920Y4748267D02*
G01X3218841Y4712346D01*
G01X3215126Y4708321D01*
G01X3211728Y4704106D01*
G01X3205781Y4695681D01*
G01X3200796Y4688216D01*
G01X3196567Y4682860D01*
G01X3153433Y4725993D01*
G01X3158789Y4730222D01*
G01X3166254Y4735208D01*
G01X3174680Y4741154D01*
G01X3178895Y4744552D01*
G01X3182920Y4748267D01*
G37*
G36*
G01X1846650Y4781250D02*
G01X1846650Y4730450D01*
G01X1841177Y4730231D01*
G01X1835794Y4729653D01*
G01X1825632Y4727900D01*
G01X1816828Y4726147D01*
G01X1810050Y4725350D01*
G01X1810050Y4786350D01*
G01X1816828Y4785553D01*
G01X1825632Y4783800D01*
G01X1835794Y4782047D01*
G01X1841177Y4781469D01*
G01X1846650Y4781250D01*
G37*
G36*
G01X4129000Y4495800D02*
G01X4129000Y4546600D01*
G01X4134473Y4546819D01*
G01X4139856Y4547397D01*
G01X4150018Y4549150D01*
G01X4158822Y4550903D01*
G01X4165600Y4551700D01*
G01X4165600Y4490700D01*
G01X4158822Y4491497D01*
G01X4150018Y4493250D01*
G01X4139856Y4495003D01*
G01X4134473Y4495581D01*
G01X4129000Y4495800D01*
G37*
G36*
G01X4076700Y4495800D02*
G01X4088632Y4546600D01*
G01X4090215Y4546377D01*
G01X4091762Y4545747D01*
G01X4094751Y4543486D01*
G01X4097602Y4540260D01*
G01X4100323Y4536517D01*
G01X4105387Y4529256D01*
G01X4107740Y4526629D01*
G01X4109982Y4525264D01*
G01X4076700Y4478915D01*
G01X4076163Y4480448D01*
G01X4075911Y4482740D01*
G01X4075999Y4488412D01*
G01X4076700Y4495800D01*
G37*
G36*
G01X3425923Y2917308D02*
G01X3380037Y2943265D01*
G01X3389673Y2953501D01*
G01X3392676Y2957477D01*
G01X3393418Y2958939D01*
G01X3393538Y2959958D01*
G01X3433635Y2939790D01*
G01X3432275Y2938590D01*
G01X3431403Y2936418D01*
G01X3430376Y2930184D01*
G01X3429050Y2923133D01*
G01X3427806Y2919939D01*
G01X3425923Y2917308D01*
G37*
G36*
G01X1983597Y1486118D02*
G01X2025058Y1455738D01*
G01X2015514Y1445633D01*
G01X2012453Y1441678D01*
G01X2011643Y1440211D01*
G01X2011427Y1439176D01*
G01X1974636Y1464885D01*
G01X1976065Y1465835D01*
G01X1977086Y1467772D01*
G01X1978540Y1473609D01*
G01X1980282Y1480392D01*
G01X1981663Y1483512D01*
G01X1983597Y1486118D01*
G37*
G36*
G01X3071587Y1154809D02*
G01X3033487Y1154809D01*
G01X3033159Y1161429D01*
G01X3032292Y1167861D01*
G01X3031067Y1173105D01*
G01X3029662Y1176159D01*
G01X3075412Y1176159D01*
G01X3074008Y1173105D01*
G01X3072783Y1167861D01*
G01X3071916Y1161429D01*
G01X3071587Y1154809D01*
G37*
G36*
G01X3238379Y4742406D02*
G02X3274300Y4818856I123943J-11572D01*
G01X3212979Y4793456D01*
G01X3238379Y4742406D01*
G37*
G36*
G01X3216003Y3912324D02*
G03X3287845Y4056008I-179605J179605D01*
G01X3359687Y4020087D01*
G01X3395608Y3948245D01*
G03X3251924Y3876403I35921J-251447D01*
G01X3216003Y3912324D01*
G37*
G36*
G01X2064147Y1505347D02*
G02X2100068Y1581547I124016J-11895D01*
G01X2038747Y1556147D01*
G01X2064147Y1505347D01*
G37*
G36*
G01X2006600Y1455003D02*
G01X1955800Y1476963D01*
G01X1956454Y1480128D01*
G01X1958167Y1483202D01*
G01X1960569Y1486159D01*
G01X1963287Y1488974D01*
G01X1968185Y1494078D01*
G01X1969622Y1496317D01*
G01X1969888Y1498313D01*
G01X2009033Y1476353D01*
G01X2008342Y1475666D01*
G01X2007791Y1474181D01*
G01X2007050Y1469282D01*
G01X2006600Y1455003D01*
G37*
G36*
G01X1955800Y1471700D02*
G01X2006600Y1471700D01*
G01X2006819Y1466227D01*
G01X2007397Y1460844D01*
G01X2009150Y1450682D01*
G01X2010903Y1441878D01*
G01X2011700Y1435100D01*
G01X1950700Y1435100D01*
G01X1951497Y1441878D01*
G01X1953250Y1450682D01*
G01X1955003Y1460844D01*
G01X1955581Y1466227D01*
G01X1955800Y1471700D01*
G37*
G04 TearDrop End*

G04 Pad Start*
G54D11*
G01X3053999Y629699D03*
G01X1946001Y629699D03*
G54D12*
G01X3053999Y229700D03*
G01X1946001Y229700D03*
G54D13*
G01X2602750Y1663863D03*
G01X2748063Y1518552D03*
G01X2397248Y1663863D03*
G01X2251937Y1518550D03*
G01X2602751Y1167737D03*
G01X2748063Y1313050D03*
G01X2397249Y1167737D03*
G01X2251937Y1313048D03*
G54D14*
G01X2500000Y1415800D03*
G54D13*
G01X4702783Y5848065D03*
G01X4848095Y5702753D03*
G01X4497281Y5848064D03*
G01X4351969Y5702752D03*
G01X4702784Y5351939D03*
G01X4848095Y5497251D03*
G01X4497282Y5351938D03*
G01X4351969Y5497250D03*
G54D14*
G01X4600032Y5600002D03*
G54D13*
G01X502782Y5848065D03*
G01X648095Y5702753D03*
G01X297280Y5848064D03*
G01X151969Y5702752D03*
G01X502784Y5351939D03*
G01X648095Y5497251D03*
G01X297282Y5351938D03*
G01X151969Y5497250D03*
G54D14*
G01X400032Y5600002D03*
G04 Pad End*

G04 Via Start*
G54D13*
G01X2524994Y876300D03*
G01X2387600Y990600D03*
G01X2527300Y1003300D03*
G01X2882900Y1016000D03*
G01X4375933Y2555837D03*
G01X4294009Y2555817D03*
G01X4375929Y2473889D03*
G01X4294005Y2473869D03*
G01X482600Y3687571D03*
G01X292100Y3479800D03*
G01X2628900Y2279650D03*
G01X2616200Y2745873D03*
G01X2616200Y2872873D03*
G01X2233445Y3605045D03*
G01X2252020Y3708132D03*
G01X3466797Y4800297D03*
G01X3463710Y4676773D03*
G01X3606684Y4698884D03*
G01X3593994Y4318106D03*
G01X4116988Y2385536D03*
G01X4077279Y2464379D03*
G01X3052537Y1196333D03*
G01X4114800Y2654300D03*
G01X4201757Y2717966D03*
G01X4496393Y2350093D03*
G01X4451350Y2876550D03*
G01X4305300Y2768600D03*
G01X4193793Y2329507D03*
G01X1703642Y1433965D03*
G01X787467Y1485967D03*
G01X4536922Y1698778D03*
G01X4406900Y2070100D03*
G01X177800Y1308100D03*
G01X3759200Y4038600D03*
G01X152400Y266700D03*
G01X3822700Y3937000D03*
G01X2501900Y4699000D03*
G01X2501900Y4584700D03*
G01X2857440Y4521140D03*
G01X3149324Y3619224D03*
G01X3351942Y3567842D03*
G01X4826000Y330200D03*
G01X4721878Y1297922D03*
G01X3323604Y2654300D03*
G01X3291046Y2971800D03*
G01X3733906Y4292706D03*
G01X4229100Y4279900D03*
G01X3162300Y990600D03*
G01X3238500Y1066800D03*
G01X1993900Y1003300D03*
G01X1893549Y1003300D03*
G01X3619500Y1358900D03*
G01X3683000Y1409700D03*
G01X3881721Y2142608D03*
G01X1745549Y3040426D03*
G01X1409700Y3581400D03*
G01X2322155Y3651587D03*
G01X2184400Y3086100D03*
G01X2099420Y2404220D03*
G01X2364519Y2547823D03*
G01X355600Y3187700D03*
G01X547047Y4520253D03*
G01X571500Y4445000D03*
G01X355600Y4857496D03*
G01X431800Y4889500D03*
G01X3352800Y3670300D03*
G01X4786363Y3354337D03*
G01X4495800Y3352800D03*
G01X1930400Y2057400D03*
G01X1999566Y1505347D03*
G01X3175000Y4704426D03*
G01X1810050Y4755850D03*
G01X4165600Y4521200D03*
G01X4102100Y4495800D03*
G01X3422867Y2968326D03*
G01X1981200Y1435100D03*
G01X2247900Y4241800D03*
G01X2311400Y4203700D03*
G01X2641600Y4000500D03*
G01X2603500Y3632200D03*
G01X2616200Y3479800D03*
G01X2628900Y3086100D03*
G01X2628900Y2984500D03*
G01X2329507Y2008221D03*
G01X419100Y1930400D03*
G01X152400Y1930400D03*
G01X698500Y2362200D03*
G01X1041400Y2400300D03*
G01X1257300Y2603500D03*
G01X999530Y2764219D03*
G01X546100Y3035300D03*
G01X254000Y3213100D03*
G01X546100Y3302000D03*
G01X711200Y3733800D03*
G01X927962Y3733800D03*
G01X1028700Y3441700D03*
G01X1193800Y3314700D03*
G01X1295400Y3517900D03*
G01X1157346Y3619500D03*
G01X1511300Y4445000D03*
G01X1244600Y4711700D03*
G01X558800Y4648200D03*
G01X241300Y4686300D03*
G01X203200Y4102100D03*
G01X90083Y4102100D03*
G01X1676476Y3767715D03*
G01X2097866Y3490091D03*
G01X1455005Y3433384D03*
G01X1635809Y3025641D03*
G01X2612041Y2555384D03*
G01X1768372Y3316140D03*
G01X4512206Y3212077D03*
G01X4432300Y3187700D03*
G01X4323384Y3550616D03*
G01X4076700Y3644900D03*
G01X3530600Y2755900D03*
G01X1228336Y981464D03*
G01X1447800Y769518D03*
G01X3378200Y762000D03*
G01X3467100Y838200D03*
G01X2921000Y1587500D03*
G01X2984500Y1625600D03*
G01X3733800Y1143000D03*
G01X3733800Y1066800D03*
G01X4359517Y1715446D03*
G01X4426552Y1715442D03*
G01X3699351Y4482458D03*
G01X3721100Y4559300D03*
G01X1130300Y139700D03*
G01X1346200Y254000D03*
G01X1244600Y546100D03*
G01X1638300Y609600D03*
G01X431800Y1511300D03*
G01X658105Y1511300D03*
G01X88900Y1638300D03*
G01X1638300Y749300D03*
G01X2057400Y1320800D03*
G01X1778000Y1206500D03*
G01X1905000Y1625600D03*
G01X2959100Y1460500D03*
G01X3111500Y1663700D03*
G01X3149600Y1968500D03*
G01X4546600Y3898900D03*
G01X4787900Y3695700D03*
G01X4356100Y4076700D03*
G01X4749800Y4292600D03*
G01X4546600Y4610100D03*
G01X4191000Y4991100D03*
G01X4114800Y5308600D03*
G01X4660900Y5003800D03*
G01X4013200Y5803900D03*
G01X3657600Y5634070D03*
G01X3314982Y5537200D03*
G01X3352800Y5194300D03*
G01X3276600Y5067300D03*
G01X1625600Y5168900D03*
G01X1308100Y5435600D03*
G01X1562100Y5664200D03*
G01X787400Y5308600D03*
G01X4292600Y3175000D03*
G01X4838700Y1854200D03*
G01X4762500Y1435100D03*
G01X3632200Y279400D03*
G01X3771900Y584200D03*
G01X3429000Y546100D03*
G01X3175000Y3530600D03*
G01X3644900Y2908300D03*
G01X3975100Y1460500D03*
G01X2827555Y3734442D03*
G01X2829176Y3817091D03*
G01X2161698Y4612348D03*
G04 Via End*

G04 Track Start*
G54D16*
G01X152400Y266700D02*
G01X152400Y1143000D01*
G01X330200Y1320800D01*
G01X4127500Y1587500D02*
G01X4775200Y1587500D01*
G01X4889500Y1473200D01*
G01X4889500Y393700D01*
G01X4826000Y330200D01*
G01X4584700Y1435100D02*
G01X4721878Y1297922D01*
G01X2870200Y723900D02*
G01X2971800Y825500D01*
G01X3276600Y825500D01*
G01X3416300Y965200D01*
G01X3416300Y2387600D01*
G01X2870200Y723900D02*
G01X2108200Y723900D01*
G01X3327400Y2362200D02*
G01X3327400Y990600D01*
G01X3238500Y901700D01*
G01X2921000Y901700D01*
G01X2806700Y787400D01*
G01X2159000Y787400D01*
G01X2011792Y820308D02*
G01X1696678Y820308D01*
G01X1196186Y1320800D01*
G01X2011792Y820308D02*
G01X2108200Y723900D01*
G01X330200Y1320800D02*
G01X1196186Y1320800D01*
G01X2044700Y901700D02*
G01X2159000Y787400D01*
G01X2044700Y901700D02*
G01X1752600Y901700D01*
G01X1257300Y1397000D01*
G01X266700Y1397000D01*
G01X177800Y1308100D01*
G54D17*
G01X1810050Y4755850D02*
G01X2292050Y4755850D01*
G01X2374900Y4838700D01*
G01X2590800Y4838700D01*
G01X2725074Y4704426D01*
G01X3334424Y4914900D02*
G01X3568700Y4914900D01*
G01X3962400Y4521200D01*
G01X3123950Y4704426D02*
G01X3175000Y4704426D01*
G01X4076700Y4521200D02*
G01X4102100Y4495800D01*
G01X4076700Y4521200D02*
G01X3962400Y4521200D01*
G01X4102100Y4495800D02*
G01X4140200Y4495800D01*
G01X4165600Y4521200D01*
G01X3212979Y4793456D02*
G01X3212979Y4742406D01*
G01X3175000Y4704426D01*
G01X3334424Y4914900D02*
G01X3212979Y4793456D01*
G01X2725074Y4704426D02*
G01X3077794Y4704426D01*
G01X3123950Y4704426D01*
G01X1999566Y1505347D02*
G01X2038747Y1505347D01*
G54D16*
G01X3149324Y3619224D02*
G01X2971800Y3441700D01*
G01X2971800Y2717800D01*
G01X3327400Y2362200D01*
G01X3035300Y2768600D02*
G01X3416300Y2387600D01*
G01X3822700Y3937000D02*
G01X3822700Y1892300D01*
G01X4127500Y1587500D01*
G01X3733800Y1854200D02*
G01X4152900Y1435100D01*
G01X4584700Y1435100D01*
G01X3759200Y4038600D02*
G01X3733800Y4013200D01*
G01X3733800Y1854200D01*
G01X3644900Y4064000D02*
G01X3860800Y4279900D01*
G01X4229100Y4279900D01*
G01X3733906Y4285103D02*
G01X3733906Y4292706D01*
G01X3556000Y4107197D02*
G01X3733906Y4285103D01*
G01X3291046Y2971800D02*
G01X3556000Y3236754D01*
G01X3556000Y4107197D01*
G54D17*
G01X3175000Y2928293D02*
G01X3175000Y3086100D01*
G01X3233093Y2870200D02*
G01X3175000Y2928293D01*
G01X3422867Y2968326D02*
G01X3422867Y2950173D01*
G01X3342894Y2870200D01*
G01X3233093Y2870200D01*
G54D16*
G01X3351942Y3567842D02*
G01X3035300Y3251200D01*
G01X3035300Y2768600D01*
G54D17*
G01X3175000Y3086100D02*
G01X3454400Y3365500D01*
G01X3077794Y4301980D02*
G01X3077794Y4704426D01*
G01X3212979Y4793456D02*
G01X3123950Y4704426D01*
G01X4076700Y4521200D02*
G01X4165600Y4521200D01*
G01X2038747Y1505347D02*
G01X1981200Y1447800D01*
G01X3454400Y3365500D02*
G01X3454400Y3925374D01*
G01X2870200Y3530600D02*
G01X3359687Y4020087D01*
G01X3454400Y3925374D02*
G01X3359687Y4020087D01*
G01X3077794Y4301980D02*
G01X3359687Y4020087D01*
G01X2038747Y1505347D02*
G01X2038747Y1556147D01*
G01X1981200Y1498600D01*
G01X1981200Y1447800D01*
G01X1981200Y1435100D01*
G01X2038747Y1556147D02*
G01X2324100Y1841500D01*
G01X2628900Y1841500D01*
G01X2870200Y2082800D01*
G01X2870200Y3530600D01*
G54D16*
G01X3323604Y2654300D02*
G01X3323604Y2714004D01*
G01X3644900Y3035300D01*
G01X3644900Y4064000D01*
G54D18*
G01X3052537Y1196333D02*
G01X3052537Y1100363D01*
G01X3162300Y990600D01*
G04 Track End*

M02*

