G04 Layer: TopPasteMaskLayer*
G04 EasyEDA Pro v3.2.58, 2026-01-05 14:09:15*
G04 Gerber Generator version 0.3*
G04 Scale: 100 percent, Rotated: No, Reflected: No*
G04 Dimensions in millimeters*
G04 Leading zeros omitted, absolute positions, 4 integers and 5 decimals*
G04 Generated by one-click*
%FSLAX45Y45*%
%MOMM*%
%AMPolygonMacro1*4,1,10,-0.29995,-0.3,-0.29995,0.0,-0.3,0.0,-0.3,0.3,-0.29995,0.3,-0.04996,0.3,0.3,0.3,0.3,0.0,-0.04996,0.0,-0.04996,-0.3,-0.29995,-0.3,0*%
%AMPolygonMacro2*4,1,10,-0.04996,-0.00003,0.3,-0.00003,0.3,-0.3,-0.04996,-0.3,-0.29995,-0.3,-0.3,-0.3,-0.3,-0.00003,-0.29995,-0.00003,-0.29995,0.3,-0.04996,0.3,-0.04996,-0.00003,0*%
%AMPolygonMacro3*4,1,10,0.29995,0.3,0.29995,0.0,0.3,0.0,0.3,-0.3,0.29995,-0.3,0.04996,-0.3,-0.3,-0.3,-0.3,0.0,0.04996,0.0,0.04996,0.3,0.29995,0.3,0*%
%AMPolygonMacro4*4,1,10,0.04996,0.0,-0.3,0.0,-0.3,0.3,0.04996,0.3,0.29995,0.3,0.3,0.3,0.3,0.0,0.29995,0.0,0.29995,-0.3,0.04996,-0.3,0.04996,0.0,0*%
%AMPolygonMacro5*4,1,10,-0.3,0.29995,0.0,0.29995,0.0,0.3,0.3,0.3,0.3,0.29995,0.3,0.04996,0.3,-0.3,0.0,-0.3,0.0,0.04996,-0.3,0.04996,-0.3,0.29995,0*%
%AMPolygonMacro6*4,1,10,-0.00003,0.04996,-0.00003,-0.3,-0.3,-0.3,-0.3,0.04996,-0.3,0.29995,-0.3,0.3,-0.00003,0.3,-0.00003,0.29995,0.3,0.29995,0.3,0.04996,-0.00003,0.04996,0*%
%AMPolygonMacro7*4,1,10,0.3,-0.29995,0.0,-0.29995,0.0,-0.3,-0.3,-0.3,-0.3,-0.29995,-0.3,-0.04996,-0.3,0.3,0.0,0.3,0.0,-0.04996,0.3,-0.04996,0.3,-0.29995,0*%
%AMPolygonMacro8*4,1,10,0.0,-0.04996,0.0,0.3,0.3,0.3,0.3,-0.04996,0.3,-0.29995,0.3,-0.3,0.0,-0.3,0.0,-0.29995,-0.3,-0.29995,-0.3,-0.04996,0.0,-0.04996,0*%
%AMPolygonMacro9*4,1,3,-0.57304,1.62493,0.57304,1.62493,0.0,-1.62493,-0.57304,1.62493,0*%
%AMPolygonMacro10*4,1,3,-1.62493,-0.57304,-1.62493,0.57304,1.62493,0.0,-1.62493,-0.57304,0*%
%AMPolygonMacro11*4,1,3,1.62493,0.57304,1.62493,-0.57304,-1.62493,0.0,1.62493,0.57304,0*%
%AMPolygonMacro12*4,1,3,0.57304,-1.62493,-0.57304,-1.62493,0.0,1.62493,0.57304,-1.62493,0*%
%AMPolygonMacro13*4,1,3,0.5412,1.3516,1.3516,0.5412,-1.3516,-1.3516,0.5412,1.3516,0*%
%AMPolygonMacro14*4,1,3,1.3516,-0.5412,0.5412,-1.3516,-1.3516,1.3516,1.3516,-0.5412,0*%
%AMPolygonMacro15*4,1,3,-1.3516,0.5412,-0.5412,1.3516,1.3516,-1.3516,-1.3516,0.5412,0*%
%AMPolygonMacro16*4,1,3,-0.5412,-1.3516,-1.3516,-0.5412,1.3516,1.3516,-0.5412,-1.3516,0*%
%AMPolygonMacro17*4,1,3,-0.57304,1.62493,0.57304,1.62493,0.0,-1.62493,-0.57304,1.62493,0*%
%AMPolygonMacro18*4,1,3,0.57304,-1.62493,-0.57304,-1.62493,0.0,1.62493,0.57304,-1.62493,0*%
%AMPolygonMacro19*4,1,3,0.5412,1.3516,1.3516,0.5412,-1.3516,-1.3516,0.5412,1.3516,0*%
%AMPolygonMacro20*4,1,3,1.3516,-0.5412,0.5412,-1.3516,-1.3516,1.3516,1.3516,-0.5412,0*%
%AMPolygonMacro21*4,1,3,-1.3516,0.5412,-0.5412,1.3516,1.3516,-1.3516,-1.3516,0.5412,0*%
%AMPolygonMacro22*4,1,3,-0.5412,-1.3516,-1.3516,-0.5412,1.3516,1.3516,-0.5412,-1.3516,0*%
%AMPolygonMacro23*4,1,3,0.5412,1.3516,1.3516,0.5412,-1.3516,-1.3516,0.5412,1.3516,0*%
%AMPolygonMacro24*4,1,3,1.3516,-0.5412,0.5412,-1.3516,-1.3516,1.3516,1.3516,-0.5412,0*%
%AMPolygonMacro25*4,1,3,-1.3516,0.5412,-0.5412,1.3516,1.3516,-1.3516,-1.3516,0.5412,0*%
%AMPolygonMacro26*4,1,3,-0.5412,-1.3516,-1.3516,-0.5412,1.3516,1.3516,-0.5412,-1.3516,0*%
%ADD10R,0.6X1.0*%
%ADD11R,1.4X1.2*%
%ADD12R,1.2X1.4*%
%ADD13PolygonMacro1*%
%ADD14PolygonMacro2*%
%ADD15PolygonMacro3*%
%ADD16PolygonMacro4*%
%ADD17R,0.3X2.4*%
%ADD18R,0.6X0.25001*%
%ADD19R,0.6025X1.1*%
%ADD20R,0.6X1.1*%
%ADD21PolygonMacro5*%
%ADD22PolygonMacro6*%
%ADD23PolygonMacro7*%
%ADD24PolygonMacro8*%
%ADD25R,2.4X0.3*%
%ADD26R,0.25001X0.6*%
%ADD27R,1.1X0.6*%
%ADD28R,1.7X0.7*%
%ADD29R,0.5X0.54*%
%ADD30R,0.54X0.5*%
%ADD31R,0.9X0.4*%
%ADD32R,0.85001X1.4*%
%ADD33R,0.25001X0.521*%
%ADD34R,1.6X0.9*%
%ADD35R,0.48999X1.157*%
%ADD36R,0.48999X1.175*%
%ADD37R,2.1X0.95001*%
%ADD38R,0.8X1.7*%
%ADD39R,1.524X3.0*%
%ADD40O,1.73149X0.343*%
%ADD41R,0.8X0.8*%
%ADD42R,1.4X1.5*%
%ADD43PolygonMacro9*%
%ADD44PolygonMacro10*%
%ADD45PolygonMacro11*%
%ADD46PolygonMacro12*%
%ADD47PolygonMacro13*%
%ADD48PolygonMacro14*%
%ADD49PolygonMacro15*%
%ADD50PolygonMacro16*%
%ADD51PolygonMacro17*%
%ADD52PolygonMacro18*%
%ADD53PolygonMacro19*%
%ADD54PolygonMacro20*%
%ADD55PolygonMacro21*%
%ADD56PolygonMacro22*%
%ADD57PolygonMacro23*%
%ADD58PolygonMacro24*%
%ADD59PolygonMacro25*%
%ADD60PolygonMacro26*%
%ADD61R,2.49999X3.0099*%
%ADD62R,3.0099X2.49999*%
G75*


G04 PolygonModel Start*
G36*
G01X3693706Y2325664D02*
G01X3693706Y2371664D01*
G01X3697706Y2375664D01*
G01X3747769Y2375664D01*
G01X3751770Y2371664D01*
G01X3751770Y2325664D01*
G01X3747769Y2321664D01*
G01X3697706Y2321664D01*
G01X3693706Y2325664D01*
G37*
G36*
G01X3666705Y2325664D02*
G01X3662705Y2321664D01*
G01X3612641Y2321664D01*
G01X3608641Y2325664D01*
G01X3608641Y2371664D01*
G01X3612641Y2375664D01*
G01X3662705Y2375664D01*
G01X3666705Y2371664D01*
G01X3666705Y2325664D01*
G37*
G36*
G01X3016965Y1924395D02*
G01X3016965Y1878396D01*
G01X3012964Y1874395D01*
G01X2962901Y1874395D01*
G01X2958900Y1878396D01*
G01X2958900Y1924395D01*
G01X2962901Y1928395D01*
G01X3012964Y1928395D01*
G01X3016965Y1924395D01*
G37*
G36*
G01X3043965Y1924395D02*
G01X3047965Y1928395D01*
G01X3098029Y1928395D01*
G01X3102029Y1924395D01*
G01X3102029Y1878396D01*
G01X3098029Y1874395D01*
G01X3047965Y1874395D01*
G01X3043965Y1878396D01*
G01X3043965Y1924395D01*
G37*
G36*
G01X3693706Y1845170D02*
G01X3693706Y1891169D01*
G01X3697706Y1895170D01*
G01X3747769Y1895170D01*
G01X3751770Y1891169D01*
G01X3751770Y1845170D01*
G01X3747769Y1841170D01*
G01X3697706Y1841170D01*
G01X3693706Y1845170D01*
G37*
G36*
G01X3666705Y1845170D02*
G01X3662705Y1841170D01*
G01X3612641Y1841170D01*
G01X3608641Y1845170D01*
G01X3608641Y1891169D01*
G01X3612641Y1895170D01*
G01X3662705Y1895170D01*
G01X3666705Y1891169D01*
G01X3666705Y1845170D01*
G37*
G36*
G01X3693706Y2205541D02*
G01X3693706Y2251540D01*
G01X3697706Y2255541D01*
G01X3747769Y2255541D01*
G01X3751770Y2251540D01*
G01X3751770Y2205541D01*
G01X3747769Y2201540D01*
G01X3697706Y2201540D01*
G01X3693706Y2205541D01*
G37*
G36*
G01X3666705Y2205541D02*
G01X3662705Y2201540D01*
G01X3612641Y2201540D01*
G01X3608641Y2205541D01*
G01X3608641Y2251540D01*
G01X3612641Y2255541D01*
G01X3662705Y2255541D01*
G01X3666705Y2251540D01*
G01X3666705Y2205541D01*
G37*
G36*
G01X3425405Y2371664D02*
G01X3425405Y2325664D01*
G01X3421405Y2321664D01*
G01X3371341Y2321664D01*
G01X3367341Y2325664D01*
G01X3367341Y2371664D01*
G01X3371341Y2375664D01*
G01X3421405Y2375664D01*
G01X3425405Y2371664D01*
G37*
G36*
G01X3452406Y2371664D02*
G01X3456406Y2375664D01*
G01X3506469Y2375664D01*
G01X3510470Y2371664D01*
G01X3510470Y2325664D01*
G01X3506469Y2321664D01*
G01X3456406Y2321664D01*
G01X3452406Y2325664D01*
G01X3452406Y2371664D01*
G37*
G36*
G01X4333100Y3364700D02*
G01X4379100Y3364700D01*
G01X4383100Y3360699D01*
G01X4383100Y3310636D01*
G01X4379100Y3306636D01*
G01X4333100Y3306636D01*
G01X4329100Y3310636D01*
G01X4329100Y3360699D01*
G01X4333100Y3364700D01*
G37*
G36*
G01X4333100Y3391700D02*
G01X4329100Y3395701D01*
G01X4329100Y3445764D01*
G01X4333100Y3449765D01*
G01X4379100Y3449765D01*
G01X4383100Y3445764D01*
G01X4383100Y3395701D01*
G01X4379100Y3391700D01*
G01X4333100Y3391700D01*
G37*
G36*
G01X3019005Y2155764D02*
G01X3019005Y2109764D01*
G01X3015005Y2105764D01*
G01X2964941Y2105764D01*
G01X2960941Y2109764D01*
G01X2960941Y2155764D01*
G01X2964941Y2159764D01*
G01X3015005Y2159764D01*
G01X3019005Y2155764D01*
G37*
G36*
G01X3046006Y2155764D02*
G01X3050006Y2159764D01*
G01X3100069Y2159764D01*
G01X3104070Y2155764D01*
G01X3104070Y2109764D01*
G01X3100069Y2105764D01*
G01X3050006Y2105764D01*
G01X3046006Y2109764D01*
G01X3046006Y2155764D01*
G37*
G36*
G01X1355254Y3161500D02*
G01X1401254Y3161500D01*
G01X1405254Y3157499D01*
G01X1405254Y3107436D01*
G01X1401254Y3103436D01*
G01X1355254Y3103436D01*
G01X1351254Y3107436D01*
G01X1351254Y3157499D01*
G01X1355254Y3161500D01*
G37*
G36*
G01X1355254Y3188500D02*
G01X1351254Y3192501D01*
G01X1351254Y3242564D01*
G01X1355254Y3246565D01*
G01X1401254Y3246565D01*
G01X1405254Y3242564D01*
G01X1405254Y3192501D01*
G01X1401254Y3188500D01*
G01X1355254Y3188500D01*
G37*
G36*
G01X3666705Y2011293D02*
G01X3666705Y1965294D01*
G01X3662705Y1961293D01*
G01X3612641Y1961293D01*
G01X3608641Y1965294D01*
G01X3608641Y2011293D01*
G01X3612641Y2015294D01*
G01X3662705Y2015294D01*
G01X3666705Y2011293D01*
G37*
G36*
G01X3693706Y2011293D02*
G01X3697706Y2015294D01*
G01X3747769Y2015294D01*
G01X3751770Y2011293D01*
G01X3751770Y1965294D01*
G01X3747769Y1961293D01*
G01X3697706Y1961293D01*
G01X3693706Y1965294D01*
G01X3693706Y2011293D01*
G37*
G36*
G01X3693706Y1725047D02*
G01X3693706Y1771046D01*
G01X3697706Y1775046D01*
G01X3747769Y1775046D01*
G01X3751770Y1771046D01*
G01X3751770Y1725047D01*
G01X3747769Y1721046D01*
G01X3697706Y1721046D01*
G01X3693706Y1725047D01*
G37*
G36*
G01X3666705Y1725047D02*
G01X3662705Y1721046D01*
G01X3612641Y1721046D01*
G01X3608641Y1725047D01*
G01X3608641Y1771046D01*
G01X3612641Y1775046D01*
G01X3662705Y1775046D01*
G01X3666705Y1771046D01*
G01X3666705Y1725047D01*
G37*
G36*
G01X3666705Y1650923D02*
G01X3666705Y1604923D01*
G01X3662705Y1600923D01*
G01X3612641Y1600923D01*
G01X3608641Y1604923D01*
G01X3608641Y1650923D01*
G01X3612641Y1654923D01*
G01X3662705Y1654923D01*
G01X3666705Y1650923D01*
G37*
G36*
G01X3693706Y1650923D02*
G01X3697706Y1654923D01*
G01X3747769Y1654923D01*
G01X3751770Y1650923D01*
G01X3751770Y1604923D01*
G01X3747769Y1600923D01*
G01X3697706Y1600923D01*
G01X3693706Y1604923D01*
G01X3693706Y1650923D01*
G37*
G36*
G01X1477416Y3161500D02*
G01X1523415Y3161500D01*
G01X1527416Y3157499D01*
G01X1527416Y3107436D01*
G01X1523415Y3103436D01*
G01X1477416Y3103436D01*
G01X1473415Y3107436D01*
G01X1473415Y3157499D01*
G01X1477416Y3161500D01*
G37*
G36*
G01X1477416Y3188500D02*
G01X1473415Y3192501D01*
G01X1473415Y3242564D01*
G01X1477416Y3246565D01*
G01X1523415Y3246565D01*
G01X1527416Y3242564D01*
G01X1527416Y3192501D01*
G01X1523415Y3188500D01*
G01X1477416Y3188500D01*
G37*
G36*
G01X1721739Y3161500D02*
G01X1767738Y3161500D01*
G01X1771739Y3157499D01*
G01X1771739Y3107436D01*
G01X1767738Y3103436D01*
G01X1721739Y3103436D01*
G01X1717738Y3107436D01*
G01X1717738Y3157499D01*
G01X1721739Y3161500D01*
G37*
G36*
G01X1721739Y3188500D02*
G01X1717738Y3192501D01*
G01X1717738Y3242564D01*
G01X1721739Y3246565D01*
G01X1767738Y3246565D01*
G01X1771739Y3242564D01*
G01X1771739Y3192501D01*
G01X1767738Y3188500D01*
G01X1721739Y3188500D01*
G37*
G36*
G01X1775600Y3975900D02*
G01X1729600Y3975900D01*
G01X1725600Y3979901D01*
G01X1725600Y4029964D01*
G01X1729600Y4033965D01*
G01X1775600Y4033965D01*
G01X1779600Y4029964D01*
G01X1779600Y3979901D01*
G01X1775600Y3975900D01*
G37*
G36*
G01X1775600Y3948900D02*
G01X1779600Y3944899D01*
G01X1779600Y3894836D01*
G01X1775600Y3890836D01*
G01X1729600Y3890836D01*
G01X1725600Y3894836D01*
G01X1725600Y3944899D01*
G01X1729600Y3948900D01*
G01X1775600Y3948900D01*
G37*
G36*
G01X1448600Y3317100D02*
G01X1448600Y3363100D01*
G01X1452601Y3367100D01*
G01X1502664Y3367100D01*
G01X1506665Y3363100D01*
G01X1506665Y3317100D01*
G01X1502664Y3313100D01*
G01X1452601Y3313100D01*
G01X1448600Y3317100D01*
G37*
G36*
G01X1421600Y3317100D02*
G01X1417599Y3313100D01*
G01X1367536Y3313100D01*
G01X1363536Y3317100D01*
G01X1363536Y3363100D01*
G01X1367536Y3367100D01*
G01X1417599Y3367100D01*
G01X1421600Y3363100D01*
G01X1421600Y3317100D01*
G37*
G36*
G01X1233093Y3161500D02*
G01X1279092Y3161500D01*
G01X1283093Y3157499D01*
G01X1283093Y3107436D01*
G01X1279092Y3103436D01*
G01X1233093Y3103436D01*
G01X1229092Y3107436D01*
G01X1229092Y3157499D01*
G01X1233093Y3161500D01*
G37*
G36*
G01X1233093Y3188500D02*
G01X1229092Y3192501D01*
G01X1229092Y3242564D01*
G01X1233093Y3246565D01*
G01X1279092Y3246565D01*
G01X1283093Y3242564D01*
G01X1283093Y3192501D01*
G01X1279092Y3188500D01*
G01X1233093Y3188500D01*
G37*
G36*
G01X1156931Y3188500D02*
G01X1110931Y3188500D01*
G01X1106931Y3192501D01*
G01X1106931Y3242564D01*
G01X1110931Y3246565D01*
G01X1156931Y3246565D01*
G01X1160931Y3242564D01*
G01X1160931Y3192501D01*
G01X1156931Y3188500D01*
G37*
G36*
G01X1156931Y3161500D02*
G01X1160931Y3157499D01*
G01X1160931Y3107436D01*
G01X1156931Y3103436D01*
G01X1110931Y3103436D01*
G01X1106931Y3107436D01*
G01X1106931Y3157499D01*
G01X1110931Y3161500D01*
G01X1156931Y3161500D01*
G37*
G36*
G01X1843900Y3161500D02*
G01X1889900Y3161500D01*
G01X1893900Y3157499D01*
G01X1893900Y3107436D01*
G01X1889900Y3103436D01*
G01X1843900Y3103436D01*
G01X1839900Y3107436D01*
G01X1839900Y3157499D01*
G01X1843900Y3161500D01*
G37*
G36*
G01X1843900Y3188500D02*
G01X1839900Y3192501D01*
G01X1839900Y3242564D01*
G01X1843900Y3246565D01*
G01X1889900Y3246565D01*
G01X1893900Y3242564D01*
G01X1893900Y3192501D01*
G01X1889900Y3188500D01*
G01X1843900Y3188500D01*
G37*
G36*
G01X1547000Y3963200D02*
G01X1501000Y3963200D01*
G01X1497000Y3967201D01*
G01X1497000Y4017264D01*
G01X1501000Y4021265D01*
G01X1547000Y4021265D01*
G01X1551000Y4017264D01*
G01X1551000Y3967201D01*
G01X1547000Y3963200D01*
G37*
G36*
G01X1547000Y3936200D02*
G01X1551000Y3932199D01*
G01X1551000Y3882136D01*
G01X1547000Y3878136D01*
G01X1501000Y3878136D01*
G01X1497000Y3882136D01*
G01X1497000Y3932199D01*
G01X1501000Y3936200D01*
G01X1547000Y3936200D01*
G37*
G36*
G01X735800Y4544200D02*
G01X735800Y4498200D01*
G01X731799Y4494200D01*
G01X681736Y4494200D01*
G01X677736Y4498200D01*
G01X677736Y4544200D01*
G01X681736Y4548200D01*
G01X731799Y4548200D01*
G01X735800Y4544200D01*
G37*
G36*
G01X762800Y4544200D02*
G01X766801Y4548200D01*
G01X816864Y4548200D01*
G01X820865Y4544200D01*
G01X820865Y4498200D01*
G01X816864Y4494200D01*
G01X766801Y4494200D01*
G01X762800Y4498200D01*
G01X762800Y4544200D01*
G37*
G36*
G01X4741462Y2165463D02*
G01X4741462Y2119463D01*
G01X4737461Y2115463D01*
G01X4687398Y2115463D01*
G01X4683398Y2119463D01*
G01X4683398Y2165463D01*
G01X4687398Y2169463D01*
G01X4737461Y2169463D01*
G01X4741462Y2165463D01*
G37*
G36*
G01X4768462Y2165463D02*
G01X4772463Y2169463D01*
G01X4822526Y2169463D01*
G01X4826527Y2165463D01*
G01X4826527Y2119463D01*
G01X4822526Y2115463D01*
G01X4772463Y2115463D01*
G01X4768462Y2119463D01*
G01X4768462Y2165463D01*
G37*
G36*
G01X4741462Y2602858D02*
G01X4741462Y2556858D01*
G01X4737461Y2552858D01*
G01X4687398Y2552858D01*
G01X4683398Y2556858D01*
G01X4683398Y2602858D01*
G01X4687398Y2606858D01*
G01X4737461Y2606858D01*
G01X4741462Y2602858D01*
G37*
G36*
G01X4768462Y2602858D02*
G01X4772463Y2606858D01*
G01X4822526Y2606858D01*
G01X4826527Y2602858D01*
G01X4826527Y2556858D01*
G01X4822526Y2552858D01*
G01X4772463Y2552858D01*
G01X4768462Y2556858D01*
G01X4768462Y2602858D01*
G37*
G36*
G01X3885400Y5128400D02*
G01X3885400Y5082400D01*
G01X3881399Y5078400D01*
G01X3831336Y5078400D01*
G01X3827336Y5082400D01*
G01X3827336Y5128400D01*
G01X3831336Y5132400D01*
G01X3881399Y5132400D01*
G01X3885400Y5128400D01*
G37*
G36*
G01X3912400Y5128400D02*
G01X3916401Y5132400D01*
G01X3966464Y5132400D01*
G01X3970465Y5128400D01*
G01X3970465Y5082400D01*
G01X3966464Y5078400D01*
G01X3916401Y5078400D01*
G01X3912400Y5082400D01*
G01X3912400Y5128400D01*
G37*
G36*
G01X637400Y2564600D02*
G01X683400Y2564600D01*
G01X687400Y2560599D01*
G01X687400Y2510536D01*
G01X683400Y2506536D01*
G01X637400Y2506536D01*
G01X633400Y2510536D01*
G01X633400Y2560599D01*
G01X637400Y2564600D01*
G37*
G36*
G01X637400Y2591600D02*
G01X633400Y2595601D01*
G01X633400Y2645664D01*
G01X637400Y2649665D01*
G01X683400Y2649665D01*
G01X687400Y2645664D01*
G01X687400Y2595601D01*
G01X683400Y2591600D01*
G01X637400Y2591600D01*
G37*
G36*
G01X2216008Y2290021D02*
G01X2216008Y2336020D01*
G01X2220008Y2340021D01*
G01X2270071Y2340021D01*
G01X2274072Y2336020D01*
G01X2274072Y2290021D01*
G01X2270071Y2286020D01*
G01X2220008Y2286020D01*
G01X2216008Y2290021D01*
G37*
G36*
G01X2189007Y2290021D02*
G01X2185007Y2286020D01*
G01X2134943Y2286020D01*
G01X2130943Y2290021D01*
G01X2130943Y2336020D01*
G01X2134943Y2340021D01*
G01X2185007Y2340021D01*
G01X2189007Y2336020D01*
G01X2189007Y2290021D01*
G37*
G36*
G01X2131200Y3848900D02*
G01X2085200Y3848900D01*
G01X2081200Y3852901D01*
G01X2081200Y3902964D01*
G01X2085200Y3906965D01*
G01X2131200Y3906965D01*
G01X2135200Y3902964D01*
G01X2135200Y3852901D01*
G01X2131200Y3848900D01*
G37*
G36*
G01X2131200Y3821900D02*
G01X2135200Y3817899D01*
G01X2135200Y3767836D01*
G01X2131200Y3763836D01*
G01X2085200Y3763836D01*
G01X2081200Y3767836D01*
G01X2081200Y3817899D01*
G01X2085200Y3821900D01*
G01X2131200Y3821900D01*
G37*
G36*
G01X2085200Y3606000D02*
G01X2131200Y3606000D01*
G01X2135200Y3601999D01*
G01X2135200Y3551936D01*
G01X2131200Y3547936D01*
G01X2085200Y3547936D01*
G01X2081200Y3551936D01*
G01X2081200Y3601999D01*
G01X2085200Y3606000D01*
G37*
G36*
G01X2085200Y3633000D02*
G01X2081200Y3637001D01*
G01X2081200Y3687064D01*
G01X2085200Y3691065D01*
G01X2131200Y3691065D01*
G01X2135200Y3687064D01*
G01X2135200Y3637001D01*
G01X2131200Y3633000D01*
G01X2085200Y3633000D01*
G37*
G36*
G01X1179776Y5637875D02*
G01X1179776Y5674900D01*
G01X1189776Y5684900D01*
G01X1220266Y5684900D01*
G01X1230266Y5694900D01*
G01X1230266Y5733650D01*
G01X1220266Y5743650D01*
G01X1189776Y5743650D01*
G01X1179776Y5753650D01*
G01X1179776Y5790676D01*
G01X1189776Y5800676D01*
G01X1318274Y5800676D01*
G01X1328274Y5790676D01*
G01X1328274Y5637875D01*
G01X1318274Y5627875D01*
G01X1189776Y5627875D01*
G01X1179776Y5637875D01*
G37*
G36*
G01X1009774Y5637875D02*
G01X999774Y5627875D01*
G01X871275Y5627875D01*
G01X861275Y5637875D01*
G01X861275Y5790676D01*
G01X871275Y5800676D01*
G01X999774Y5800676D01*
G01X1009774Y5790676D01*
G01X1009774Y5753650D01*
G01X999774Y5743650D01*
G01X969284Y5743650D01*
G01X959284Y5733650D01*
G01X959284Y5694900D01*
G01X969284Y5684900D01*
G01X999774Y5684900D01*
G01X1009774Y5674900D01*
G01X1009774Y5637875D01*
G37*
G36*
G01X2581999Y4330901D02*
G01X2581999Y4293875D01*
G01X2571999Y4283875D01*
G01X2541509Y4283875D01*
G01X2531509Y4273875D01*
G01X2531509Y4235125D01*
G01X2541509Y4225125D01*
G01X2571999Y4225125D01*
G01X2581999Y4215125D01*
G01X2581999Y4178099D01*
G01X2571999Y4168099D01*
G01X2443500Y4168099D01*
G01X2433500Y4178099D01*
G01X2433500Y4330901D01*
G01X2443500Y4340901D01*
G01X2571999Y4340901D01*
G01X2581999Y4330901D01*
G37*
G36*
G01X2752001Y4330901D02*
G01X2762001Y4340901D01*
G01X2890500Y4340901D01*
G01X2900500Y4330901D01*
G01X2900500Y4178099D01*
G01X2890500Y4168099D01*
G01X2762001Y4168099D01*
G01X2752001Y4178099D01*
G01X2752001Y4215125D01*
G01X2762001Y4225125D01*
G01X2792491Y4225125D01*
G01X2802491Y4235125D01*
G01X2802491Y4273875D01*
G01X2792491Y4283875D01*
G01X2762001Y4283875D01*
G01X2752001Y4293875D01*
G01X2752001Y4330901D01*
G37*
G36*
G01X2339983Y656224D02*
G01X2309983Y656224D01*
G01X2309983Y771225D01*
G01X2339983Y771225D01*
G01X2339983Y656224D01*
G37*
G36*
G01X2849989Y656224D02*
G01X2819992Y656224D01*
G01X2819989Y656224D01*
G01X2789992Y656224D01*
G01X2789992Y771225D01*
G01X2819989Y771225D01*
G01X2819992Y771225D01*
G01X2849989Y771225D01*
G01X2849989Y656224D01*
G37*
G36*
G01X2709982Y771225D02*
G01X2739979Y771225D01*
G01X2739982Y771225D01*
G01X2769979Y771225D01*
G01X2769979Y656224D01*
G01X2739982Y656224D01*
G01X2739979Y656224D01*
G01X2709982Y656224D01*
G01X2709982Y771225D01*
G37*
G36*
G01X2389995Y656224D02*
G01X2359995Y656224D01*
G01X2359995Y771225D01*
G01X2389995Y771225D01*
G01X2389995Y656224D01*
G37*
G36*
G01X2439982Y656224D02*
G01X2409982Y656224D01*
G01X2409982Y771225D01*
G01X2439982Y771225D01*
G01X2439982Y656224D01*
G37*
G36*
G01X2229998Y771225D02*
G01X2259995Y771225D01*
G01X2259998Y771225D01*
G01X2289995Y771225D01*
G01X2289995Y656224D01*
G01X2259998Y656224D01*
G01X2259995Y656224D01*
G01X2229998Y656224D01*
G01X2229998Y771225D01*
G37*
G36*
G01X2489995Y656224D02*
G01X2459995Y656224D01*
G01X2459995Y771225D01*
G01X2489995Y771225D01*
G01X2489995Y656224D01*
G37*
G36*
G01X2149988Y771225D02*
G01X2179985Y771225D01*
G01X2179988Y771225D01*
G01X2209985Y771225D01*
G01X2209985Y656224D01*
G01X2179988Y656224D01*
G01X2179985Y656224D01*
G01X2149988Y656224D01*
G01X2149988Y771225D01*
G37*
G36*
G01X2539982Y656224D02*
G01X2509982Y656224D01*
G01X2509982Y771225D01*
G01X2539982Y771225D01*
G01X2539982Y656224D01*
G37*
G36*
G01X2589995Y656224D02*
G01X2559995Y656224D01*
G01X2559995Y771225D01*
G01X2589995Y771225D01*
G01X2589995Y656224D01*
G37*
G36*
G01X2639982Y656224D02*
G01X2609982Y656224D01*
G01X2609982Y771225D01*
G01X2639982Y771225D01*
G01X2639982Y656224D01*
G37*
G36*
G01X2659995Y771225D02*
G01X2689995Y771225D01*
G01X2689995Y656224D01*
G01X2659995Y656224D01*
G01X2659995Y771225D01*
G37*
G36*
G01X3057736Y719559D02*
G01X3060217Y719310D01*
G01X3062681Y718939D01*
G01X3065125Y718444D01*
G01X3067540Y717829D01*
G01X3069923Y717095D01*
G01X3072267Y716242D01*
G01X3074563Y715274D01*
G01X3076811Y714192D01*
G01X3079001Y713001D01*
G01X3081127Y711700D01*
G01X3083187Y710296D01*
G01X3085173Y708790D01*
G01X3087083Y707187D01*
G01X3088912Y705493D01*
G01X3090652Y703707D01*
G01X3092303Y701838D01*
G01X3093857Y699889D01*
G01X3095313Y697865D01*
G01X3096664Y695770D01*
G01X3097911Y693611D01*
G01X3099049Y691393D01*
G01X3100073Y689120D01*
G01X3100984Y686801D01*
G01X3101777Y684436D01*
G01X3102453Y682036D01*
G01X3103009Y679607D01*
G01X3103441Y677151D01*
G01X3103750Y674677D01*
G01X3103938Y672191D01*
G01X3103999Y669699D01*
G01X3103999Y589699D01*
G01X3103938Y587207D01*
G01X3103750Y584721D01*
G01X3103441Y582247D01*
G01X3103009Y579791D01*
G01X3102453Y577362D01*
G01X3101777Y574962D01*
G01X3100984Y572597D01*
G01X3100073Y570278D01*
G01X3099049Y568005D01*
G01X3097911Y565788D01*
G01X3096664Y563629D01*
G01X3095313Y561533D01*
G01X3093857Y559509D01*
G01X3092303Y557560D01*
G01X3090652Y555691D01*
G01X3088912Y553905D01*
G01X3087083Y552211D01*
G01X3085173Y550609D01*
G01X3083187Y549102D01*
G01X3081127Y547698D01*
G01X3079001Y546397D01*
G01X3076811Y545206D01*
G01X3074563Y544124D01*
G01X3072267Y543156D01*
G01X3069923Y542303D01*
G01X3067540Y541569D01*
G01X3065125Y540954D01*
G01X3062681Y540459D01*
G01X3060217Y540088D01*
G01X3057736Y539839D01*
G01X3055247Y539714D01*
G01X3052752Y539714D01*
G01X3050263Y539839D01*
G01X3047782Y540088D01*
G01X3045318Y540459D01*
G01X3042874Y540954D01*
G01X3040459Y541569D01*
G01X3038076Y542303D01*
G01X3035732Y543156D01*
G01X3033436Y544124D01*
G01X3031188Y545206D01*
G01X3029001Y546397D01*
G01X3026872Y547698D01*
G01X3024812Y549102D01*
G01X3022826Y550609D01*
G01X3020916Y552211D01*
G01X3019087Y553905D01*
G01X3017347Y555691D01*
G01X3015696Y557560D01*
G01X3014142Y559509D01*
G01X3012686Y561533D01*
G01X3011335Y563629D01*
G01X3010088Y565788D01*
G01X3008950Y568005D01*
G01X3007926Y570278D01*
G01X3007015Y572597D01*
G01X3006222Y574962D01*
G01X3005546Y577362D01*
G01X3004990Y579791D01*
G01X3004558Y582247D01*
G01X3004249Y584721D01*
G01X3004061Y587207D01*
G01X3004000Y589699D01*
G01X3004000Y669699D01*
G01X3004061Y672191D01*
G01X3004249Y674677D01*
G01X3004558Y677151D01*
G01X3004990Y679607D01*
G01X3005546Y682036D01*
G01X3006222Y684436D01*
G01X3007015Y686801D01*
G01X3007926Y689120D01*
G01X3008950Y691393D01*
G01X3010088Y693611D01*
G01X3011335Y695770D01*
G01X3012686Y697865D01*
G01X3014142Y699889D01*
G01X3015696Y701838D01*
G01X3017347Y703707D01*
G01X3019087Y705493D01*
G01X3020916Y707187D01*
G01X3022826Y708790D01*
G01X3024812Y710296D01*
G01X3026872Y711700D01*
G01X3029001Y713001D01*
G01X3031188Y714192D01*
G01X3033436Y715274D01*
G01X3035732Y716242D01*
G01X3038076Y717095D01*
G01X3040459Y717829D01*
G01X3042874Y718444D01*
G01X3045318Y718939D01*
G01X3047782Y719310D01*
G01X3050263Y719559D01*
G01X3052752Y719684D01*
G01X3055247Y719684D01*
G01X3057736Y719559D01*
G37*
G36*
G01X1949737Y719559D02*
G01X1952219Y719310D01*
G01X1954682Y718939D01*
G01X1957126Y718444D01*
G01X1959541Y717829D01*
G01X1961924Y717095D01*
G01X1964268Y716242D01*
G01X1966565Y715274D01*
G01X1968812Y714192D01*
G01X1971002Y713001D01*
G01X1973128Y711700D01*
G01X1975188Y710296D01*
G01X1977174Y708790D01*
G01X1979084Y707187D01*
G01X1980913Y705493D01*
G01X1982653Y703707D01*
G01X1984304Y701838D01*
G01X1985858Y699889D01*
G01X1987314Y697865D01*
G01X1988665Y695770D01*
G01X1989912Y693611D01*
G01X1991050Y691393D01*
G01X1992074Y689120D01*
G01X1992986Y686801D01*
G01X1993778Y684436D01*
G01X1994454Y682036D01*
G01X1995010Y679607D01*
G01X1995442Y677151D01*
G01X1995752Y674677D01*
G01X1995940Y672191D01*
G01X1996001Y669699D01*
G01X1996001Y589699D01*
G01X1995940Y587207D01*
G01X1995752Y584721D01*
G01X1995442Y582247D01*
G01X1995010Y579791D01*
G01X1994454Y577362D01*
G01X1993778Y574962D01*
G01X1992986Y572597D01*
G01X1992074Y570278D01*
G01X1991050Y568005D01*
G01X1989912Y565788D01*
G01X1988665Y563629D01*
G01X1987314Y561533D01*
G01X1985858Y559509D01*
G01X1984304Y557560D01*
G01X1982653Y555691D01*
G01X1980913Y553905D01*
G01X1979084Y552211D01*
G01X1977174Y550609D01*
G01X1975188Y549102D01*
G01X1973128Y547698D01*
G01X1971002Y546397D01*
G01X1968812Y545206D01*
G01X1966565Y544124D01*
G01X1964268Y543156D01*
G01X1961924Y542303D01*
G01X1959541Y541569D01*
G01X1957126Y540954D01*
G01X1954682Y540459D01*
G01X1952219Y540088D01*
G01X1949737Y539839D01*
G01X1947248Y539714D01*
G01X1944754Y539714D01*
G01X1942264Y539839D01*
G01X1939783Y540088D01*
G01X1937319Y540459D01*
G01X1934875Y540954D01*
G01X1932460Y541569D01*
G01X1930077Y542303D01*
G01X1927733Y543156D01*
G01X1925437Y544124D01*
G01X1923189Y545206D01*
G01X1921002Y546397D01*
G01X1918873Y547698D01*
G01X1916814Y549102D01*
G01X1914827Y550609D01*
G01X1912917Y552211D01*
G01X1911088Y553905D01*
G01X1909348Y555691D01*
G01X1907697Y557560D01*
G01X1906143Y559509D01*
G01X1904688Y561533D01*
G01X1903336Y563629D01*
G01X1902089Y565788D01*
G01X1900951Y568005D01*
G01X1899928Y570278D01*
G01X1899016Y572597D01*
G01X1898223Y574962D01*
G01X1897548Y577362D01*
G01X1896991Y579791D01*
G01X1896560Y582247D01*
G01X1896250Y584721D01*
G01X1896062Y587207D01*
G01X1896001Y589699D01*
G01X1896001Y669699D01*
G01X1896062Y672191D01*
G01X1896250Y674677D01*
G01X1896560Y677151D01*
G01X1896991Y679607D01*
G01X1897548Y682036D01*
G01X1898223Y684436D01*
G01X1899016Y686801D01*
G01X1899928Y689120D01*
G01X1900951Y691393D01*
G01X1902089Y693611D01*
G01X1903336Y695770D01*
G01X1904688Y697865D01*
G01X1906143Y699889D01*
G01X1907697Y701838D01*
G01X1909348Y703707D01*
G01X1911088Y705493D01*
G01X1912917Y707187D01*
G01X1914827Y708790D01*
G01X1916814Y710296D01*
G01X1918873Y711700D01*
G01X1921002Y713001D01*
G01X1923189Y714192D01*
G01X1925437Y715274D01*
G01X1927733Y716242D01*
G01X1930077Y717095D01*
G01X1932460Y717829D01*
G01X1934875Y718444D01*
G01X1937319Y718939D01*
G01X1939783Y719310D01*
G01X1942264Y719559D01*
G01X1944754Y719684D01*
G01X1947248Y719684D01*
G01X1949737Y719559D01*
G37*
G36*
G01X3057736Y334559D02*
G01X3060217Y334310D01*
G01X3062681Y333939D01*
G01X3065125Y333444D01*
G01X3067540Y332829D01*
G01X3069923Y332095D01*
G01X3072267Y331241D01*
G01X3074563Y330274D01*
G01X3076811Y329192D01*
G01X3079001Y328000D01*
G01X3081127Y326700D01*
G01X3083187Y325295D01*
G01X3085173Y323789D01*
G01X3087083Y322186D01*
G01X3088912Y320492D01*
G01X3090652Y318707D01*
G01X3092303Y316837D01*
G01X3093857Y314889D01*
G01X3095313Y312865D01*
G01X3096664Y310769D01*
G01X3097911Y308610D01*
G01X3099049Y306393D01*
G01X3100073Y304119D01*
G01X3100984Y301800D01*
G01X3101777Y299436D01*
G01X3102453Y297035D01*
G01X3103009Y294607D01*
G01X3103441Y292151D01*
G01X3103750Y289677D01*
G01X3103938Y287190D01*
G01X3103999Y284698D01*
G01X3103999Y174699D01*
G01X3103938Y172207D01*
G01X3103750Y169720D01*
G01X3103441Y167246D01*
G01X3103009Y164790D01*
G01X3102453Y162362D01*
G01X3101777Y159962D01*
G01X3100984Y157597D01*
G01X3100073Y155278D01*
G01X3099049Y153005D01*
G01X3097911Y150787D01*
G01X3096664Y148628D01*
G01X3095313Y146533D01*
G01X3093857Y144508D01*
G01X3092303Y142560D01*
G01X3090652Y140691D01*
G01X3088912Y138905D01*
G01X3087083Y137211D01*
G01X3085173Y135608D01*
G01X3083187Y134102D01*
G01X3081127Y132697D01*
G01X3079001Y131397D01*
G01X3076811Y130205D01*
G01X3074563Y129123D01*
G01X3072267Y128156D01*
G01X3069923Y127302D01*
G01X3067540Y126568D01*
G01X3065125Y125954D01*
G01X3062681Y125458D01*
G01X3060217Y125087D01*
G01X3057736Y124838D01*
G01X3055247Y124714D01*
G01X3052752Y124714D01*
G01X3050263Y124838D01*
G01X3047782Y125087D01*
G01X3045318Y125458D01*
G01X3042874Y125954D01*
G01X3040459Y126568D01*
G01X3038076Y127302D01*
G01X3035732Y128156D01*
G01X3033436Y129123D01*
G01X3031188Y130205D01*
G01X3029001Y131397D01*
G01X3026872Y132697D01*
G01X3024812Y134102D01*
G01X3022826Y135608D01*
G01X3020916Y137211D01*
G01X3019087Y138905D01*
G01X3017347Y140691D01*
G01X3015696Y142560D01*
G01X3014142Y144508D01*
G01X3012686Y146533D01*
G01X3011335Y148628D01*
G01X3010088Y150787D01*
G01X3008950Y153005D01*
G01X3007926Y155278D01*
G01X3007015Y157597D01*
G01X3006222Y159962D01*
G01X3005546Y162362D01*
G01X3004990Y164790D01*
G01X3004558Y167246D01*
G01X3004249Y169720D01*
G01X3004061Y172207D01*
G01X3004000Y174699D01*
G01X3004000Y284698D01*
G01X3004061Y287190D01*
G01X3004249Y289677D01*
G01X3004558Y292151D01*
G01X3004990Y294607D01*
G01X3005546Y297035D01*
G01X3006222Y299436D01*
G01X3007015Y301800D01*
G01X3007926Y304119D01*
G01X3008950Y306393D01*
G01X3010088Y308610D01*
G01X3011335Y310769D01*
G01X3012686Y312865D01*
G01X3014142Y314889D01*
G01X3015696Y316837D01*
G01X3017347Y318707D01*
G01X3019087Y320492D01*
G01X3020916Y322186D01*
G01X3022826Y323789D01*
G01X3024812Y325295D01*
G01X3026872Y326700D01*
G01X3029001Y328000D01*
G01X3031188Y329192D01*
G01X3033436Y330274D01*
G01X3035732Y331241D01*
G01X3038076Y332095D01*
G01X3040459Y332829D01*
G01X3042874Y333444D01*
G01X3045318Y333939D01*
G01X3047782Y334310D01*
G01X3050263Y334559D01*
G01X3052752Y334683D01*
G01X3055247Y334683D01*
G01X3057736Y334559D01*
G37*
G36*
G01X1949737Y334559D02*
G01X1952219Y334310D01*
G01X1954682Y333939D01*
G01X1957126Y333444D01*
G01X1959541Y332829D01*
G01X1961924Y332095D01*
G01X1964268Y331241D01*
G01X1966565Y330274D01*
G01X1968812Y329192D01*
G01X1971002Y328000D01*
G01X1973128Y326700D01*
G01X1975188Y325295D01*
G01X1977174Y323789D01*
G01X1979084Y322186D01*
G01X1980913Y320492D01*
G01X1982653Y318707D01*
G01X1984304Y316837D01*
G01X1985858Y314889D01*
G01X1987314Y312865D01*
G01X1988665Y310769D01*
G01X1989912Y308610D01*
G01X1991050Y306393D01*
G01X1992074Y304119D01*
G01X1992986Y301800D01*
G01X1993778Y299436D01*
G01X1994454Y297035D01*
G01X1995010Y294607D01*
G01X1995442Y292151D01*
G01X1995752Y289677D01*
G01X1995940Y287190D01*
G01X1996001Y284698D01*
G01X1996001Y174699D01*
G01X1995940Y172207D01*
G01X1995752Y169720D01*
G01X1995442Y167246D01*
G01X1995010Y164790D01*
G01X1994454Y162362D01*
G01X1993778Y159962D01*
G01X1992986Y157597D01*
G01X1992074Y155278D01*
G01X1991050Y153005D01*
G01X1989912Y150787D01*
G01X1988665Y148628D01*
G01X1987314Y146533D01*
G01X1985858Y144508D01*
G01X1984304Y142560D01*
G01X1982653Y140691D01*
G01X1980913Y138905D01*
G01X1979084Y137211D01*
G01X1977174Y135608D01*
G01X1975188Y134102D01*
G01X1973128Y132697D01*
G01X1971002Y131397D01*
G01X1968812Y130205D01*
G01X1966565Y129123D01*
G01X1964268Y128156D01*
G01X1961924Y127302D01*
G01X1959541Y126568D01*
G01X1957126Y125954D01*
G01X1954682Y125458D01*
G01X1952219Y125087D01*
G01X1949737Y124838D01*
G01X1947248Y124714D01*
G01X1944754Y124714D01*
G01X1942264Y124838D01*
G01X1939783Y125087D01*
G01X1937319Y125458D01*
G01X1934875Y125954D01*
G01X1932460Y126568D01*
G01X1930077Y127302D01*
G01X1927733Y128156D01*
G01X1925437Y129123D01*
G01X1923189Y130205D01*
G01X1921002Y131397D01*
G01X1918873Y132697D01*
G01X1916814Y134102D01*
G01X1914827Y135608D01*
G01X1912917Y137211D01*
G01X1911088Y138905D01*
G01X1909348Y140691D01*
G01X1907697Y142560D01*
G01X1906143Y144508D01*
G01X1904688Y146533D01*
G01X1903336Y148628D01*
G01X1902089Y150787D01*
G01X1900951Y153005D01*
G01X1899928Y155278D01*
G01X1899016Y157597D01*
G01X1898223Y159962D01*
G01X1897548Y162362D01*
G01X1896991Y164790D01*
G01X1896560Y167246D01*
G01X1896250Y169720D01*
G01X1896062Y172207D01*
G01X1896001Y174699D01*
G01X1896001Y284698D01*
G01X1896062Y287190D01*
G01X1896250Y289677D01*
G01X1896560Y292151D01*
G01X1896991Y294607D01*
G01X1897548Y297035D01*
G01X1898223Y299436D01*
G01X1899016Y301800D01*
G01X1899928Y304119D01*
G01X1900951Y306393D01*
G01X1902089Y308610D01*
G01X1903336Y310769D01*
G01X1904688Y312865D01*
G01X1906143Y314889D01*
G01X1907697Y316837D01*
G01X1909348Y318707D01*
G01X1911088Y320492D01*
G01X1912917Y322186D01*
G01X1914827Y323789D01*
G01X1916814Y325295D01*
G01X1918873Y326700D01*
G01X1921002Y328000D01*
G01X1923189Y329192D01*
G01X1925437Y330274D01*
G01X1927733Y331241D01*
G01X1930077Y332095D01*
G01X1932460Y332829D01*
G01X1934875Y333444D01*
G01X1937319Y333939D01*
G01X1939783Y334310D01*
G01X1942264Y334559D01*
G01X1944754Y334683D01*
G01X1947248Y334683D01*
G01X1949737Y334559D01*
G37*
G36*
G01X2219336Y2768924D02*
G01X2219336Y2722925D01*
G01X2215336Y2718924D01*
G01X2165272Y2718924D01*
G01X2161272Y2722925D01*
G01X2161272Y2768924D01*
G01X2165272Y2772925D01*
G01X2215336Y2772925D01*
G01X2219336Y2768924D01*
G37*
G36*
G01X2246336Y2768924D02*
G01X2250337Y2772925D01*
G01X2300400Y2772925D01*
G01X2304401Y2768924D01*
G01X2304401Y2722925D01*
G01X2300400Y2718924D01*
G01X2250337Y2718924D01*
G01X2246336Y2722925D01*
G01X2246336Y2768924D01*
G37*
G36*
G01X2219336Y2895873D02*
G01X2219336Y2849873D01*
G01X2215336Y2845873D01*
G01X2165272Y2845873D01*
G01X2161272Y2849873D01*
G01X2161272Y2895873D01*
G01X2165272Y2899873D01*
G01X2215336Y2899873D01*
G01X2219336Y2895873D01*
G37*
G36*
G01X2246336Y2895873D02*
G01X2250337Y2899873D01*
G01X2300400Y2899873D01*
G01X2304401Y2895873D01*
G01X2304401Y2849873D01*
G01X2300400Y2845873D01*
G01X2250337Y2845873D01*
G01X2246336Y2849873D01*
G01X2246336Y2895873D01*
G37*
G36*
G01X154800Y1104100D02*
G01X200800Y1104100D01*
G01X204800Y1100099D01*
G01X204800Y1050036D01*
G01X200800Y1046036D01*
G01X154800Y1046036D01*
G01X150800Y1050036D01*
G01X150800Y1100099D01*
G01X154800Y1104100D01*
G37*
G36*
G01X154800Y1131100D02*
G01X150800Y1135101D01*
G01X150800Y1185164D01*
G01X154800Y1189165D01*
G01X200800Y1189165D01*
G01X204800Y1185164D01*
G01X204800Y1135101D01*
G01X200800Y1131100D01*
G01X154800Y1131100D01*
G37*
G36*
G01X175400Y432600D02*
G01X129400Y432600D01*
G01X125400Y436601D01*
G01X125400Y486664D01*
G01X129400Y490665D01*
G01X175400Y490665D01*
G01X179400Y486664D01*
G01X179400Y436601D01*
G01X175400Y432600D01*
G37*
G36*
G01X175400Y405600D02*
G01X179400Y401599D01*
G01X179400Y351536D01*
G01X175400Y347536D01*
G01X129400Y347536D01*
G01X125400Y351536D01*
G01X125400Y401599D01*
G01X129400Y405600D01*
G01X175400Y405600D01*
G37*
G36*
G01X1557318Y2084697D02*
G01X1557318Y2130696D01*
G01X1561318Y2134697D01*
G01X1611382Y2134697D01*
G01X1615382Y2130696D01*
G01X1615382Y2084697D01*
G01X1611382Y2080696D01*
G01X1561318Y2080696D01*
G01X1557318Y2084697D01*
G37*
G36*
G01X1530318Y2084697D02*
G01X1526317Y2080696D01*
G01X1476254Y2080696D01*
G01X1472253Y2084697D01*
G01X1472253Y2130696D01*
G01X1476254Y2134697D01*
G01X1526317Y2134697D01*
G01X1530318Y2130696D01*
G01X1530318Y2084697D01*
G37*
G36*
G01X1953400Y2591600D02*
G01X1907400Y2591600D01*
G01X1903400Y2595601D01*
G01X1903400Y2645664D01*
G01X1907400Y2649665D01*
G01X1953400Y2649665D01*
G01X1957400Y2645664D01*
G01X1957400Y2595601D01*
G01X1953400Y2591600D01*
G37*
G36*
G01X1953400Y2564600D02*
G01X1957400Y2560599D01*
G01X1957400Y2510536D01*
G01X1953400Y2506536D01*
G01X1907400Y2506536D01*
G01X1903400Y2510536D01*
G01X1903400Y2560599D01*
G01X1907400Y2564600D01*
G01X1953400Y2564600D01*
G37*
G36*
G01X1356500Y826300D02*
G01X1310500Y826300D01*
G01X1306500Y830301D01*
G01X1306500Y880364D01*
G01X1310500Y884365D01*
G01X1356500Y884365D01*
G01X1360500Y880364D01*
G01X1360500Y830301D01*
G01X1356500Y826300D01*
G37*
G36*
G01X1356500Y799300D02*
G01X1360500Y795299D01*
G01X1360500Y745236D01*
G01X1356500Y741236D01*
G01X1310500Y741236D01*
G01X1306500Y745236D01*
G01X1306500Y795299D01*
G01X1310500Y799300D01*
G01X1356500Y799300D01*
G37*
G36*
G01X997237Y1440239D02*
G01X997237Y1486238D01*
G01X1001238Y1490239D01*
G01X1051301Y1490239D01*
G01X1055302Y1486238D01*
G01X1055302Y1440239D01*
G01X1051301Y1436238D01*
G01X1001238Y1436238D01*
G01X997237Y1440239D01*
G37*
G36*
G01X970237Y1440239D02*
G01X966237Y1436238D01*
G01X916173Y1436238D01*
G01X912173Y1440239D01*
G01X912173Y1486238D01*
G01X916173Y1490239D01*
G01X966237Y1490239D01*
G01X970237Y1486238D01*
G01X970237Y1440239D01*
G37*
G36*
G01X4402970Y2446852D02*
G01X4266968Y2446852D01*
G01X4266968Y2582854D01*
G01X4402970Y2582854D01*
G01X4402970Y2446852D01*
G37*
G36*
G01X4442490Y2452357D02*
G01X4517488Y2452357D01*
G01X4517488Y2427355D01*
G01X4442490Y2427355D01*
G01X4442490Y2452357D01*
G37*
G36*
G01X4442490Y2502344D02*
G01X4517488Y2502344D01*
G01X4517488Y2477343D01*
G01X4442490Y2477343D01*
G01X4442490Y2502344D01*
G37*
G36*
G01X4442490Y2552356D02*
G01X4517488Y2552356D01*
G01X4517488Y2527355D01*
G01X4442490Y2527355D01*
G01X4442490Y2552356D01*
G37*
G36*
G01X4442490Y2602344D02*
G01X4517488Y2602344D01*
G01X4517488Y2577342D01*
G01X4442490Y2577342D01*
G01X4442490Y2602344D01*
G37*
G36*
G01X4152498Y2452357D02*
G01X4227496Y2452357D01*
G01X4227496Y2427355D01*
G01X4152498Y2427355D01*
G01X4152498Y2452357D01*
G37*
G36*
G01X4152498Y2502344D02*
G01X4227496Y2502344D01*
G01X4227496Y2477343D01*
G01X4152498Y2477343D01*
G01X4152498Y2502344D01*
G37*
G36*
G01X4152498Y2552356D02*
G01X4227496Y2552356D01*
G01X4227496Y2527355D01*
G01X4152498Y2527355D01*
G01X4152498Y2552356D01*
G37*
G36*
G01X4152498Y2602344D02*
G01X4227496Y2602344D01*
G01X4227496Y2577342D01*
G01X4152498Y2577342D01*
G01X4152498Y2602344D01*
G37*
G36*
G01X4397415Y2332352D02*
G01X4397415Y2407350D01*
G01X4422416Y2407350D01*
G01X4422416Y2332352D01*
G01X4397415Y2332352D01*
G37*
G36*
G01X4347428Y2332352D02*
G01X4347428Y2407350D01*
G01X4372429Y2407350D01*
G01X4372429Y2332352D01*
G01X4347428Y2332352D01*
G37*
G36*
G01X4297415Y2332352D02*
G01X4297415Y2407350D01*
G01X4322416Y2407350D01*
G01X4322416Y2332352D01*
G01X4297415Y2332352D01*
G37*
G36*
G01X4247428Y2332352D02*
G01X4247428Y2407350D01*
G01X4272429Y2407350D01*
G01X4272429Y2332352D01*
G01X4247428Y2332352D01*
G37*
G36*
G01X4397339Y2622343D02*
G01X4397339Y2697342D01*
G01X4422340Y2697342D01*
G01X4422340Y2622343D01*
G01X4397339Y2622343D01*
G37*
G36*
G01X4347351Y2622343D02*
G01X4347351Y2697342D01*
G01X4372353Y2697342D01*
G01X4372353Y2622343D01*
G01X4347351Y2622343D01*
G37*
G36*
G01X4297339Y2622343D02*
G01X4297339Y2697342D01*
G01X4322340Y2697342D01*
G01X4322340Y2622343D01*
G01X4297339Y2622343D01*
G37*
G36*
G01X4247352Y2622343D02*
G01X4247352Y2697342D01*
G01X4272353Y2697342D01*
G01X4272353Y2622343D01*
G01X4247352Y2622343D01*
G37*
G36*
G01X953300Y5476100D02*
G01X953300Y5522100D01*
G01X957301Y5526100D01*
G01X1007364Y5526100D01*
G01X1011365Y5522100D01*
G01X1011365Y5476100D01*
G01X1007364Y5472100D01*
G01X957301Y5472100D01*
G01X953300Y5476100D01*
G37*
G36*
G01X926300Y5476100D02*
G01X922299Y5472100D01*
G01X872236Y5472100D01*
G01X868236Y5476100D01*
G01X868236Y5522100D01*
G01X872236Y5526100D01*
G01X922299Y5526100D01*
G01X926300Y5522100D01*
G01X926300Y5476100D01*
G37*
G36*
G01X2136888Y1139135D02*
G01X2104361Y1106609D01*
G01X2098704Y1106609D01*
G01X2063304Y1142009D01*
G01X2063304Y1147667D01*
G01X2095830Y1180193D01*
G01X2101488Y1180193D01*
G01X2136888Y1144793D01*
G01X2136888Y1139135D01*
G37*
G36*
G01X2155980Y1120043D02*
G01X2161637Y1120043D01*
G01X2197037Y1084643D01*
G01X2197037Y1078986D01*
G01X2164511Y1046459D01*
G01X2158853Y1046459D01*
G01X2123453Y1081859D01*
G01X2123453Y1087517D01*
G01X2155980Y1120043D01*
G37*
G36*
G01X2845209Y1085483D02*
G01X2812683Y1118009D01*
G01X2812683Y1123667D01*
G01X2848083Y1159067D01*
G01X2853740Y1159067D01*
G01X2886267Y1126540D01*
G01X2886267Y1120883D01*
G01X2850867Y1085483D01*
G01X2845209Y1085483D01*
G37*
G36*
G01X2826117Y1066391D02*
G01X2826117Y1060733D01*
G01X2790717Y1025333D01*
G01X2785060Y1025333D01*
G01X2752533Y1057860D01*
G01X2752533Y1063517D01*
G01X2787933Y1098917D01*
G01X2793591Y1098917D01*
G01X2826117Y1066391D01*
G37*
G36*
G01X1677200Y1013971D02*
G01X1677200Y1059970D01*
G01X1681201Y1063971D01*
G01X1731264Y1063971D01*
G01X1735265Y1059970D01*
G01X1735265Y1013971D01*
G01X1731264Y1009971D01*
G01X1681201Y1009971D01*
G01X1677200Y1013971D01*
G37*
G36*
G01X1650200Y1013971D02*
G01X1646199Y1009971D01*
G01X1596136Y1009971D01*
G01X1592136Y1013971D01*
G01X1592136Y1059970D01*
G01X1596136Y1063971D01*
G01X1646199Y1063971D01*
G01X1650200Y1059970D01*
G01X1650200Y1013971D01*
G37*
G36*
G01X4011383Y2402858D02*
G01X3965384Y2402858D01*
G01X3961383Y2406859D01*
G01X3961383Y2456922D01*
G01X3965384Y2460923D01*
G01X4011383Y2460923D01*
G01X4015384Y2456922D01*
G01X4015384Y2406859D01*
G01X4011383Y2402858D01*
G37*
G36*
G01X4011383Y2375858D02*
G01X4015384Y2371858D01*
G01X4015384Y2321794D01*
G01X4011383Y2317794D01*
G01X3965384Y2317794D01*
G01X3961383Y2321794D01*
G01X3961383Y2371858D01*
G01X3965384Y2375858D01*
G01X4011383Y2375858D01*
G37*

G04 Pad Start*
G54D10*
G01X3549904Y3272307D03*
G01X3739896Y3272307D03*
G01X3549904Y3052293D03*
G01X3739896Y3052293D03*
G01X3644900Y3052293D03*
G01X1149604Y4377207D03*
G01X1339596Y4377207D03*
G01X1149604Y4157193D03*
G01X1339596Y4157193D03*
G01X1244600Y4157193D03*
G54D11*
G01X3125698Y1523164D03*
G01X3472713Y1523164D03*
G54D12*
G01X1155700Y3445993D03*
G01X1155700Y3793007D03*
G01X2822972Y1830656D03*
G01X2822972Y2177671D03*
G01X1919779Y3917830D03*
G01X1919779Y3570815D03*
G54D13*
G01X3472405Y1965184D03*
G54D14*
G01X3471438Y2145183D03*
G54D15*
G01X3289406Y2145181D03*
G54D16*
G01X3289406Y1965184D03*
G54D17*
G01X3404399Y2055183D03*
G01X3354412Y2055183D03*
G54D18*
G01X3471405Y2032679D03*
G01X3471430Y2077688D03*
G01X3290404Y2032679D03*
G01X3290404Y2077688D03*
G54D20*
G01X3981704Y3520910D03*
G01X4171696Y3520910D03*
G01X4171696Y3260890D03*
G01X4076700Y3260890D03*
G01X3981704Y3260890D03*
G54D21*
G01X1561000Y3489899D03*
G54D22*
G01X1741000Y3490867D03*
G54D23*
G01X1740997Y3672898D03*
G54D24*
G01X1561000Y3672898D03*
G54D25*
G01X1651000Y3557905D03*
G01X1651000Y3607892D03*
G54D26*
G01X1628496Y3490900D03*
G01X1673504Y3490874D03*
G01X1628496Y3671900D03*
G01X1673504Y3671900D03*
G54D27*
G01X1019010Y4857496D03*
G01X1019010Y4667504D03*
G01X758990Y4667504D03*
G01X758990Y4762500D03*
G01X758990Y4857496D03*
G54D28*
G01X3887597Y5362207D03*
G01X3427603Y5362207D03*
G01X3427603Y5712193D03*
G54D29*
G01X2190825Y2470150D03*
G01X2274848Y2470150D03*
G54D30*
G01X3225800Y3049567D03*
G01X3225800Y3133590D03*
G54D29*
G01X3507638Y3448050D03*
G01X3591662Y3448050D03*
G01X3940912Y4978452D03*
G01X3856888Y4978452D03*
G01X3638194Y1507695D03*
G01X3722217Y1507695D03*
G01X3193694Y2348664D03*
G01X3277717Y2348664D03*
G01X3074517Y2018464D03*
G01X2990494Y2018464D03*
G01X3001153Y1774395D03*
G01X3085176Y1774395D03*
G01X1019545Y4521200D03*
G01X935521Y4521200D03*
G54D30*
G01X571500Y4855312D03*
G01X571500Y4771288D03*
G54D29*
G01X3455517Y1802564D03*
G01X3371494Y1802564D03*
G01X1231900Y3996588D03*
G01X1147877Y3996588D03*
G01X1248512Y4521200D03*
G01X1164488Y4521200D03*
G01X3698138Y3448050D03*
G01X3782162Y3448050D03*
G01X3996588Y3111500D03*
G01X4080612Y3111500D03*
G54D30*
G01X1011665Y3224055D03*
G01X1011665Y3140032D03*
G01X1320800Y3628288D03*
G01X1320800Y3712312D03*
G01X1642212Y3916477D03*
G01X1642212Y4000500D03*
G54D29*
G01X2088752Y3175000D03*
G01X2004729Y3175000D03*
G54D30*
G01X1397000Y3991712D03*
G01X1397000Y3907688D03*
G54D29*
G01X3940912Y4851400D03*
G01X3856888Y4851400D03*
G01X256407Y3318204D03*
G01X340431Y3318204D03*
G54D11*
G01X3877793Y4660900D03*
G01X4224807Y4660900D03*
G54D31*
G01X4656286Y2364505D03*
G01X4656286Y2299507D03*
G01X4836270Y2299507D03*
G01X4836270Y2364505D03*
G01X4836270Y2429504D03*
G01X4656286Y2429504D03*
G54D32*
G01X475793Y2799889D03*
G01X475793Y2329903D03*
G01X260807Y2329903D03*
G01X260807Y2799889D03*
G54D33*
G01X3681806Y5124196D03*
G01X3631794Y5124196D03*
G01X3581806Y5124196D03*
G01X3531794Y5124196D03*
G01X3531794Y4934204D03*
G01X3581806Y4934204D03*
G01X3631794Y4934204D03*
G01X3681806Y4934204D03*
G54D34*
G01X3606800Y5029200D03*
G54D35*
G01X393857Y3712971D03*
G01X298861Y3712971D03*
G01X203865Y3712971D03*
G54D36*
G01X203865Y3482237D03*
G01X393857Y3482237D03*
G54D29*
G01X3651791Y2108417D03*
G01X3736789Y2108417D03*
G54D30*
G01X1622577Y3203415D03*
G01X1622577Y3118416D03*
G54D29*
G01X3455517Y1700964D03*
G01X3371494Y1700964D03*
G01X2088752Y3304769D03*
G01X2004729Y3304769D03*
G54D37*
G01X2984500Y3054375D03*
G01X2984500Y3219399D03*
G54D38*
G01X3048000Y3988397D03*
G01X2921000Y3988397D03*
G01X2413000Y3988397D03*
G01X2286000Y3988397D03*
G01X2286000Y3428403D03*
G01X2921000Y3428403D03*
G01X3048000Y3428403D03*
G54D39*
G01X1992000Y4704426D03*
G01X2330667Y4704426D03*
G01X2669333Y4704426D03*
G01X3008000Y4704426D03*
G54D29*
G01X2190825Y2618873D03*
G01X2274848Y2618873D03*
G01X1248512Y1460500D03*
G01X1164488Y1460500D03*
G01X1410909Y1036971D03*
G01X1494932Y1036971D03*
G54D20*
G01X1408777Y1471636D03*
G01X1598769Y1471636D03*
G01X1598769Y1211616D03*
G01X1503773Y1211616D03*
G01X1408777Y1211616D03*
G54D40*
G01X3418757Y4422703D03*
G01X3418757Y4357705D03*
G01X3418757Y4292706D03*
G01X3418757Y4227682D03*
G01X3418757Y4162684D03*
G01X3418757Y4097685D03*
G01X3418757Y4032686D03*
G01X3418757Y3967688D03*
G01X3991908Y4422703D03*
G01X3991908Y4357705D03*
G01X3991908Y4292706D03*
G01X3991908Y4227682D03*
G01X3991908Y4162684D03*
G01X3991908Y4097685D03*
G01X3991908Y4032686D03*
G01X3991908Y3967688D03*
G54D30*
G01X3238500Y3577488D03*
G01X3238500Y3661512D03*
G54D29*
G01X1705006Y2107696D03*
G01X1789029Y2107696D03*
G54D32*
G01X1525225Y2329903D03*
G01X1525225Y2799889D03*
G01X1740211Y2799889D03*
G01X1740211Y2329903D03*
G54D41*
G01X4137037Y2160420D03*
G01X4296930Y2161106D03*
G54D42*
G01X359996Y334998D03*
G01X1040005Y334998D03*
G01X359996Y610004D03*
G01X1040005Y840001D03*
G01X359996Y1149982D03*
G01X1040005Y1149982D03*
G54D43*
G01X2500000Y1578293D03*
G54D44*
G01X2337507Y1415800D03*
G54D45*
G01X2662493Y1415800D03*
G54D46*
G01X2500000Y1253307D03*
G54D47*
G01X2635160Y1550960D03*
G54D48*
G01X2635160Y1280640D03*
G54D49*
G01X2364840Y1550960D03*
G54D50*
G01X2364840Y1280640D03*
G54D51*
G01X4600032Y5762495D03*
G54D44*
G01X4437539Y5600002D03*
G54D45*
G01X4762526Y5600002D03*
G54D52*
G01X4600032Y5437508D03*
G54D53*
G01X4735192Y5735162D03*
G54D54*
G01X4735192Y5464841D03*
G54D55*
G01X4464872Y5735162D03*
G54D56*
G01X4464872Y5464841D03*
G54D51*
G01X400032Y5762495D03*
G54D44*
G01X237539Y5600002D03*
G54D45*
G01X562525Y5600002D03*
G54D52*
G01X400032Y5437508D03*
G54D57*
G01X535192Y5735162D03*
G54D58*
G01X535192Y5464841D03*
G54D59*
G01X264872Y5735162D03*
G54D60*
G01X264872Y5464841D03*
G54D30*
G01X3365500Y3133590D03*
G01X3365500Y3049567D03*
G54D29*
G01X3209188Y3441700D03*
G01X3293212Y3441700D03*
G01X4225188Y4419600D03*
G01X4309212Y4419600D03*
G54D30*
G01X3988383Y2647270D03*
G01X3988383Y2563247D03*
G54D29*
G01X4213072Y2884658D03*
G01X4297095Y2884658D03*
G01X4022572Y2884658D03*
G01X4106595Y2884658D03*
G54D61*
G01X3109354Y2692400D03*
G01X3748646Y2692400D03*
G54D62*
G01X787400Y4167746D03*
G01X787400Y3528454D03*
G54D29*
G01X2294788Y3251200D03*
G01X2378812Y3251200D03*
G04 Pad End*

M02*

